<?xml version="1.0" standalone="no"?>
<!DOCTYPE svg PUBLIC "-//W3C//DTD SVG 20010904//EN"
 "http://www.w3.org/TR/2001/REC-SVG-20010904/DTD/svg10.dtd">
<svg version="1.0" xmlns="http://www.w3.org/2000/svg"
 width="1024.000000pt" height="1024.000000pt" viewBox="0 0 1024.000000 1024.000000"
 preserveAspectRatio="xMidYMid meet">

<g transform="translate(0.000000,1024.000000) scale(0.100000,-0.100000)"
fill="#000000" stroke="none">
<path d="M6843 7053 c15 -2 39 -2 55 0 15 2 2 4 -28 4 -30 0 -43 -2 -27 -4z"/>
<path d="M6958 7053 c6 -2 18 -2 25 0 6 3 1 5 -13 5 -14 0 -19 -2 -12 -5z"/>
<path d="M7413 7053 c9 -2 25 -2 35 0 9 3 1 5 -18 5 -19 0 -27 -2 -17 -5z"/>
<path d="M7528 7053 c17 -2 47 -2 65 0 17 2 3 4 -33 4 -36 0 -50 -2 -32 -4z"/>
<path d="M7648 7053 c6 -2 18 -2 25 0 6 3 1 5 -13 5 -14 0 -19 -2 -12 -5z"/>
<path d="M7988 7053 c12 -2 32 -2 45 0 12 2 2 4 -23 4 -25 0 -35 -2 -22 -4z"/>
<path d="M8188 7053 c23 -2 61 -2 85 0 23 2 4 4 -43 4 -47 0 -66 -2 -42 -4z"/>
<path d="M2479 6903 c-5 -16 -12 -35 -15 -43 -57 -152 -62 -170 -51 -170 10 0
97 209 97 233 0 18 -22 4 -31 -20z"/>
<path d="M3320 6832 l0 -98 38 -1 c46 -2 72 20 72 62 0 48 -20 69 -58 62 -32
-6 -32 -6 -32 33 0 22 -4 40 -10 40 -6 0 -10 -39 -10 -98z m86 -16 c7 -27 -10
-66 -29 -66 -20 0 -37 21 -37 45 0 46 55 63 66 21z"/>
<path d="M1570 6827 l0 -93 42 -1 c54 -3 68 10 68 62 0 49 -18 70 -55 63 -23
-5 -25 -2 -25 28 0 24 -5 34 -15 34 -12 0 -15 -17 -15 -93z m88 -10 c2 -10 1
-30 -2 -43 -10 -37 -50 -29 -54 9 -2 16 -1 35 2 44 8 20 50 12 54 -10z"/>
<path d="M1710 6825 c0 -78 3 -95 15 -95 12 0 15 17 15 95 0 78 -3 95 -15 95
-12 0 -15 -17 -15 -95z"/>
<path d="M1950 6825 c0 -100 17 -133 22 -43 2 42 7 54 22 56 25 5 36 -14 36
-65 0 -24 5 -43 10 -43 6 0 10 24 10 54 0 61 -15 81 -55 74 -23 -5 -25 -2 -25
28 0 19 -4 34 -10 34 -6 0 -10 -38 -10 -95z"/>
<path d="M2800 6827 l0 -93 42 -1 c54 -3 68 10 68 62 0 49 -18 70 -55 63 -23
-5 -25 -2 -25 28 0 24 -5 34 -15 34 -12 0 -15 -17 -15 -93z m88 -23 c6 -56
-50 -73 -64 -19 -8 31 12 57 40 53 15 -2 22 -11 24 -34z"/>
<path d="M450 6900 c0 -5 14 -10 30 -10 l30 0 0 -80 c0 -103 18 -105 22 -2 3
76 3 77 31 80 55 7 25 22 -43 22 -40 0 -70 -4 -70 -10z"/>
<path d="M872 6899 c2 -6 8 -10 13 -10 5 0 11 4 13 10 2 6 -4 11 -13 11 -9 0
-15 -5 -13 -11z"/>
<path d="M1290 6820 c0 -73 3 -90 15 -90 10 0 15 11 15 35 0 30 3 35 24 35 53
0 76 65 34 94 -12 9 -37 16 -55 16 l-33 0 0 -90z m82 47 c10 -17 -10 -47 -32
-47 -16 0 -20 7 -20 36 0 32 2 35 23 28 12 -4 25 -11 29 -17z"/>
<path d="M1780 6895 c0 -8 5 -15 10 -15 6 0 10 7 10 15 0 8 -4 15 -10 15 -5 0
-10 -7 -10 -15z"/>
<path d="M2542 6898 c-24 -24 -14 -57 28 -83 44 -28 48 -36 24 -56 -12 -10
-22 -10 -45 -2 -16 6 -29 8 -29 4 0 -15 25 -31 48 -31 71 0 86 61 25 101 -48
31 -50 55 -5 52 21 -1 32 3 29 10 -5 17 -60 20 -75 5z"/>
<path d="M3260 6895 c0 -8 5 -15 10 -15 6 0 10 7 10 15 0 8 -4 15 -10 15 -5 0
-10 -7 -10 -15z"/>
<path d="M8161 6798 c-44 -121 -46 -128 -32 -128 8 0 91 213 91 233 0 4 -4 7
-8 7 -5 0 -28 -51 -51 -112z"/>
<path d="M7539 6896 c-9 -9 3 -196 12 -191 11 8 12 195 1 195 -5 0 -11 -2 -13
-4z"/>
<path d="M6368 6883 c-20 -5 -32 -36 -23 -62 3 -11 21 -26 40 -36 19 -9 35
-22 35 -30 0 -22 -31 -34 -58 -24 -32 12 -43 2 -18 -17 41 -30 96 -10 96 35 0
29 -14 46 -54 66 -33 17 -27 40 12 40 33 0 44 18 16 29 -17 6 -19 6 -46 -1z"/>
<path d="M6832 6878 c6 -18 28 -21 28 -4 0 9 -7 16 -16 16 -9 0 -14 -5 -12
-12z"/>
<path d="M7430 6877 c-45 -23 -63 -87 -37 -136 16 -31 61 -47 93 -32 36 16 29
31 -12 24 -44 -7 -64 13 -64 62 0 49 20 69 64 62 42 -7 49 9 10 23 -30 12 -24
12 -54 -3z"/>
<path d="M7600 6875 c0 -8 5 -15 10 -15 6 0 10 7 10 15 0 8 -4 15 -10 15 -5 0
-10 -7 -10 -15z"/>
<path d="M8274 6880 c-48 -19 -43 -67 11 -93 24 -11 35 -23 35 -38 0 -19 -5
-21 -40 -17 -43 4 -57 -15 -19 -27 47 -15 98 22 85 63 -3 10 -22 26 -41 36
-44 24 -49 58 -7 56 43 -3 48 0 28 15 -22 17 -23 17 -52 5z"/>
<path d="M7940 6856 c0 -8 -6 -17 -12 -20 -10 -5 -10 -7 0 -12 7 -3 12 -24 12
-48 0 -49 20 -82 44 -73 20 8 21 27 1 27 -11 0 -15 12 -15 45 0 33 4 45 15 45
8 0 15 5 15 10 0 6 -7 10 -15 10 -8 0 -15 7 -15 15 0 8 -7 15 -15 15 -8 0 -15
-6 -15 -14z"/>
<path d="M592 6848 c-10 -13 -15 -39 -13 -70 3 -47 78 -66 105 -26 34 48 7
108 -48 108 -19 0 -38 -6 -44 -12z m76 -31 c7 -37 -7 -68 -30 -65 -28 4 -42
29 -34 62 5 22 11 27 34 24 16 -2 28 -10 30 -21z"/>
<path d="M730 6768 c0 -52 4 -88 10 -88 6 0 10 13 10 30 0 27 2 29 29 24 22
-5 32 -1 45 17 18 27 21 62 6 90 -9 15 -20 19 -55 17 l-45 -1 0 -89z m86 48
c3 -13 1 -34 -6 -46 -22 -41 -69 -6 -56 43 9 36 53 38 62 3z"/>
<path d="M870 6796 c0 -77 19 -91 22 -16 0 28 1 55 2 62 1 6 -5 13 -11 16 -10
3 -13 -14 -13 -62z"/>
<path d="M946 6844 c-19 -18 -21 -85 -4 -102 17 -17 75 -15 81 2 5 12 -1 13
-28 9 -31 -5 -35 -3 -41 22 -9 36 7 60 40 60 15 -1 26 5 26 12 0 18 -55 16
-74 -3z"/>
<path d="M1051 6846 c-16 -19 1 -52 29 -61 32 -10 24 -33 -12 -37 l-33 -4 25
-11 c28 -12 57 -1 67 24 4 11 -4 25 -25 43 -39 32 -40 40 -7 40 14 0 25 5 25
10 0 15 -56 12 -69 -4z"/>
<path d="M1165 6850 c-7 -12 2 -30 16 -30 5 0 9 9 9 20 0 21 -15 27 -25 10z"/>
<path d="M1430 6814 c0 -69 12 -84 65 -82 l45 2 0 63 c0 48 -3 63 -14 63 -11
0 -16 -15 -18 -52 -2 -42 -7 -54 -22 -56 -25 -5 -36 14 -36 66 0 23 -4 42 -10
42 -5 0 -10 -21 -10 -46z"/>
<path d="M1780 6795 c0 -37 4 -65 10 -65 6 0 10 28 10 65 0 37 -4 65 -10 65
-6 0 -10 -28 -10 -65z"/>
<path d="M1840 6845 c-16 -20 -6 -43 25 -57 37 -16 33 -41 -5 -36 -19 3 -29 1
-27 -6 5 -16 56 -20 73 -5 22 18 17 38 -16 57 -36 21 -39 42 -5 42 14 0 25 5
25 10 0 16 -56 12 -70 -5z"/>
<path d="M2096 6844 c-21 -20 -20 -78 0 -99 18 -17 85 -18 84 0 0 5 -14 8 -30
7 -21 -3 -32 2 -40 17 -10 20 -8 21 35 21 40 0 45 2 45 23 0 13 -5 28 -12 35
-17 17 -64 15 -82 -4z m68 -19 c4 -11 -2 -15 -24 -15 -20 0 -30 5 -30 15 0 9
9 15 24 15 13 0 26 -7 30 -15z"/>
<path d="M2220 6793 c0 -48 3 -63 14 -63 11 0 16 15 18 53 3 45 6 52 26 55 38
6 24 21 -18 19 l-40 -1 0 -63z"/>
<path d="M2317 6853 c-16 -15 -5 -43 23 -63 34 -24 30 -44 -6 -37 -16 3 -24 0
-24 -10 0 -10 10 -13 38 -11 32 3 37 7 40 30 3 21 -3 30 -27 43 -40 20 -40 35
0 35 17 0 28 4 24 10 -7 11 -58 14 -68 3z"/>
<path d="M2662 6798 l3 -63 48 -1 47 -1 0 64 c0 35 -4 63 -10 63 -5 0 -10 -20
-10 -44 0 -46 -19 -72 -45 -62 -11 4 -15 20 -15 56 0 28 -5 50 -10 50 -7 0
-10 -24 -8 -62z"/>
<path d="M2947 6853 c-4 -3 -7 -17 -7 -31 0 -17 8 -27 30 -35 44 -17 40 -41
-6 -34 -25 4 -34 2 -31 -6 2 -7 21 -12 43 -12 35 0 39 3 42 27 3 21 -3 30 -27
43 -46 23 -40 41 13 35 11 -1 15 3 12 9 -8 12 -59 15 -69 4z"/>
<path d="M3056 6838 c-21 -30 -20 -71 2 -91 23 -21 68 -22 75 -3 4 10 -3 13
-26 12 -31 -1 -32 0 -32 39 0 37 2 40 28 40 15 -1 27 5 27 12 0 23 -57 15 -74
-9z"/>
<path d="M3160 6793 c0 -49 3 -63 15 -63 11 0 15 12 15 51 0 42 3 52 20 56 32
9 23 21 -15 20 l-35 -1 0 -63z"/>
<path d="M3260 6795 c0 -37 4 -65 10 -65 6 0 10 28 10 65 0 37 -4 65 -10 65
-6 0 -10 -28 -10 -65z"/>
<path d="M3466 6838 c-34 -49 -7 -108 49 -108 47 0 54 18 8 22 -27 2 -39 8
-41 21 -3 14 4 17 37 17 48 0 58 13 37 45 -21 33 -69 34 -90 3z m72 -15 c2 -9
-7 -13 -27 -13 -30 0 -39 9 -24 24 11 10 46 3 51 -11z"/>
<path d="M3600 6809 c0 -26 -3 -54 -6 -63 -4 -11 -1 -16 10 -16 12 0 16 10 16
39 0 52 8 71 31 71 10 0 19 4 19 10 0 5 -16 9 -35 8 -35 -1 -35 -1 -35 -49z"/>
<path d="M3684 6838 c-6 -21 16 -50 48 -60 22 -8 -4 -30 -29 -25 -15 3 -22 0
-20 -7 2 -6 19 -11 38 -11 29 0 34 4 37 27 3 21 -3 30 -28 43 -34 18 -32 35 6
35 14 0 22 4 19 10 -3 6 -19 10 -35 10 -21 0 -31 -6 -36 -22z"/>
<path d="M6488 6823 c-52 -59 -9 -141 61 -118 30 9 26 27 -4 19 -25 -6 -55 9
-55 27 0 5 13 9 29 9 61 0 81 29 43 63 -24 22 -55 22 -74 0z m60 -26 c3 -13
-3 -17 -27 -17 -33 0 -39 8 -19 28 17 17 42 11 46 -11z"/>
<path d="M6610 6776 c0 -36 5 -68 10 -71 6 -4 10 10 10 35 0 31 6 47 27 66 29
27 24 45 -7 26 -12 -7 -20 -8 -20 -2 0 5 -4 10 -10 10 -6 0 -10 -28 -10 -64z"/>
<path d="M6690 6838 c2 -26 51 -133 61 -133 8 0 24 27 36 60 26 71 27 78 11
73 -6 -2 -19 -26 -29 -54 -14 -41 -18 -46 -24 -29 -26 68 -35 85 -44 85 -6 0
-11 -1 -11 -2z"/>
<path d="M6837 6833 c-4 -3 -7 -33 -7 -65 0 -45 3 -58 15 -58 12 0 15 14 15
65 0 60 -6 75 -23 58z"/>
<path d="M6910 6820 c-49 -49 -4 -139 55 -112 37 17 30 32 -10 25 -29 -5 -35
-3 -37 13 -4 58 10 77 52 67 22 -6 24 -5 11 10 -18 23 -47 21 -71 -3z"/>
<path d="M7028 6823 c-29 -34 -31 -71 -4 -98 26 -25 42 -30 70 -19 27 10 18
24 -12 18 -19 -4 -32 -1 -41 10 -19 23 -3 38 37 34 44 -4 54 20 23 51 -26 26
-53 27 -73 4z m60 -26 c3 -12 -3 -17 -21 -17 -31 0 -40 10 -25 27 15 18 42 12
46 -10z"/>
<path d="M7151 6826 c-17 -21 -6 -51 25 -65 32 -14 26 -37 -10 -33 -34 4 -34
-16 0 -24 18 -5 31 -1 45 13 23 23 17 45 -17 63 -34 18 -32 44 2 36 19 -5 25
-3 22 6 -6 19 -53 22 -67 4z"/>
<path d="M7607 6833 c-11 -10 -8 -123 3 -123 6 0 10 28 10 65 0 65 -1 71 -13
58z"/>
<path d="M7677 6827 c-10 -6 -20 -28 -23 -48 -5 -29 -2 -41 15 -58 25 -25 63
-27 82 -4 13 15 11 16 -13 10 -35 -9 -58 1 -58 24 0 15 7 19 40 19 32 0 40 4
40 18 0 22 -30 52 -51 52 -9 0 -23 -6 -32 -13z m52 -20 c6 -8 8 -17 4 -20 -12
-12 -53 -7 -53 6 0 28 30 37 49 14z"/>
<path d="M7795 6830 c-2 -3 -2 -33 0 -65 4 -74 25 -87 25 -17 0 32 5 54 15 62
26 21 45 -5 45 -61 0 -27 5 -49 10 -49 15 0 12 116 -3 128 -13 11 -86 12 -92
2z"/>
<path d="M8032 6828 c-21 -21 -13 -47 19 -63 36 -19 33 -41 -5 -37 -34 4 -34
-16 1 -24 20 -5 30 -2 44 15 22 27 17 41 -22 63 -35 20 -29 43 8 33 18 -4 24
-2 21 7 -6 18 -50 22 -66 6z"/>
<path d="M8387 6822 c-10 -10 -17 -35 -17 -55 0 -44 35 -73 75 -63 34 9 32 27
-3 20 -19 -4 -32 -1 -41 10 -19 23 -5 36 40 36 31 0 39 4 39 18 0 24 -31 52
-57 52 -11 0 -27 -8 -36 -18z m61 -25 c3 -13 -3 -17 -27 -17 -33 0 -39 8 -19
28 17 17 42 11 46 -11z"/>
<path d="M8514 6831 c-2 -2 -4 -33 -4 -68 0 -47 3 -64 13 -61 7 3 13 25 15 52
3 38 7 49 23 53 32 9 23 32 -12 30 -17 -1 -32 -4 -35 -6z"/>
<path d="M8590 6838 c2 -26 51 -133 61 -133 8 0 24 27 36 60 26 71 27 78 11
73 -6 -2 -19 -26 -29 -54 -14 -41 -18 -46 -24 -29 -26 68 -35 85 -44 85 -6 0
-11 -1 -11 -2z"/>
<path d="M8748 6830 c-22 -13 -31 -60 -19 -93 11 -29 47 -43 80 -32 30 9 26
27 -4 19 -27 -7 -55 10 -55 32 0 10 13 14 40 14 36 0 40 3 40 25 0 37 -45 56
-82 35z m60 -33 c3 -13 -3 -17 -27 -17 -20 0 -31 5 -31 14 0 29 53 32 58 3z"/>
<path d="M8862 6771 c3 -76 22 -89 26 -18 3 40 7 50 28 59 36 17 29 27 -16 26
l-41 0 3 -67z"/>
<path d="M8961 6826 c-17 -21 -6 -51 25 -65 32 -14 26 -37 -10 -34 -33 2 -34
-15 -1 -23 52 -13 78 52 30 74 -35 16 -34 46 1 38 19 -5 25 -3 22 6 -6 19 -53
22 -67 4z"/>
<path d="M7260 6815 c0 -8 7 -15 15 -15 8 0 15 7 15 15 0 8 -7 15 -15 15 -8 0
-15 -7 -15 -15z"/>
<path d="M1160 6745 c0 -8 7 -15 15 -15 8 0 15 7 15 15 0 8 -7 15 -15 15 -8 0
-15 -7 -15 -15z"/>
<path d="M7262 6726 c1 -10 8 -17 13 -17 15 1 12 24 -3 29 -9 3 -13 -2 -10
-12z"/>
<path d="M1688 6319 c-10 -5 -18 -15 -18 -21 0 -6 8 -4 18 5 15 14 52 17 248
20 l229 2 -230 2 c-142 2 -237 -2 -247 -8z"/>
<path d="M2698 6323 c6 -2 18 -2 25 0 6 3 1 5 -13 5 -14 0 -19 -2 -12 -5z"/>
<path d="M3018 6323 c23 -2 59 -2 80 0 20 2 1 4 -43 4 -44 0 -61 -2 -37 -4z"/>
<path d="M1661 6264 c0 -11 3 -14 6 -6 3 7 2 16 -1 19 -3 4 -6 -2 -5 -13z"/>
<path d="M8313 6195 c0 -38 2 -53 4 -32 2 20 2 52 0 70 -2 17 -4 1 -4 -38z"/>
<path d="M8210 6190 c0 -33 4 -60 10 -60 6 0 10 11 10 25 0 18 5 25 20 25 10
0 23 8 29 17 15 27 -5 53 -39 53 -30 0 -30 0 -30 -60z m55 25 c0 -11 -8 -21
-17 -23 -14 -3 -18 3 -18 23 0 20 4 26 18 23 9 -2 17 -12 17 -23z"/>
<path d="M8612 6188 l1 -63 6 50 c6 53 11 52 30 -7 7 -21 16 -38 20 -38 5 0
17 21 27 48 l19 47 6 -50 6 -50 1 63 c2 75 -14 80 -38 14 -8 -23 -17 -42 -20
-42 -3 0 -12 19 -20 42 -24 66 -40 61 -38 -14z"/>
<path d="M8858 6229 c-2 -7 -1 -30 2 -53 4 -31 10 -41 25 -43 11 -2 14 0 8 3
-16 7 -17 74 -2 74 6 0 4 7 -5 15 -18 18 -23 19 -28 4z"/>
<path d="M8355 6210 c-4 -6 3 -9 16 -7 29 3 36 -21 7 -25 -15 -2 -24 -11 -26
-25 -3 -20 1 -23 30 -23 32 0 33 2 32 34 -1 19 -5 39 -9 45 -8 14 -42 14 -50
1z m45 -50 c0 -12 -28 -25 -36 -17 -9 9 6 27 22 27 8 0 14 -5 14 -10z"/>
<path d="M8440 6174 c0 -54 18 -59 22 -6 4 55 31 50 39 -8 l7 -45 -2 50 c-1
49 -2 50 -33 52 -33 1 -33 1 -33 -43z"/>
<path d="M8759 6199 c-16 -31 3 -69 36 -69 17 0 29 8 36 24 15 32 -4 66 -36
66 -15 0 -29 -9 -36 -21z m56 -24 c0 -23 -4 -30 -20 -30 -21 0 -31 25 -21 51
11 28 41 12 41 -21z"/>
<path d="M8923 6175 c0 -27 2 -38 4 -22 2 15 2 37 0 50 -2 12 -4 0 -4 -28z"/>
<path d="M8960 6199 c-19 -34 2 -71 38 -67 24 3 27 7 27 43 0 36 -3 40 -27 43
-19 2 -30 -3 -38 -19z m55 -24 c0 -23 -4 -30 -20 -30 -21 0 -31 25 -21 51 11
28 41 12 41 -21z"/>
<path d="M9061 6170 l2 -45 6 40 c8 53 35 55 39 3 4 -46 22 -51 22 -5 0 44
-11 58 -43 55 -25 -2 -27 -5 -26 -48z"/>
<path d="M1773 6150 c0 -30 2 -43 4 -27 2 15 2 39 0 55 -2 15 -4 2 -4 -28z"/>
<path d="M2423 6140 c0 -36 2 -50 4 -32 2 17 2 47 0 65 -2 17 -4 3 -4 -33z"/>
<path d="M2473 6173 c-4 -11 1 -22 15 -31 28 -18 28 -29 0 -35 -20 -4 -19 -4
5 -6 34 -1 37 30 5 52 l-23 15 25 10 c25 11 25 11 2 11 -12 1 -26 -7 -29 -16z"/>
<path d="M2541 6153 c-1 -31 4 -45 17 -52 31 -17 52 5 51 52 l-2 42 -6 -40
c-5 -31 -10 -40 -26 -40 -16 0 -21 9 -26 40 l-6 40 -2 -42z"/>
<path d="M2630 6145 c0 -45 1 -46 28 -43 24 3 27 7 27 43 0 36 -3 40 -27 43
-27 3 -28 2 -28 -43z m43 20 c1 -5 -6 -11 -15 -13 -11 -2 -18 3 -18 13 0 17
30 18 33 0z m5 -42 c2 -8 -5 -13 -17 -13 -12 0 -21 6 -21 16 0 18 31 15 38 -3z"/>
<path d="M2714 6175 c-7 -17 3 -35 18 -35 6 0 5 6 -3 16 -10 13 -10 17 2 25
10 6 11 9 1 9 -7 0 -15 -7 -18 -15z"/>
<path d="M2757 6183 c-15 -14 -6 -34 20 -44 28 -10 23 -23 -12 -32 -15 -4 -14
-5 7 -6 39 -2 46 19 15 44 -32 24 -33 32 -9 38 14 4 14 5 1 6 -9 0 -19 -2 -22
-6z"/>
<path d="M2831 6143 c1 -34 3 -41 8 -25 l6 24 19 -21 c29 -32 36 -26 34 27
l-1 47 -6 -45 c-5 -36 -8 -41 -14 -24 -4 12 -7 26 -6 30 4 23 -3 34 -21 34
-17 0 -20 -6 -19 -47z m29 22 c0 -8 -4 -15 -10 -15 -5 0 -10 7 -10 15 0 8 5
15 10 15 6 0 10 -7 10 -15z"/>
<path d="M2927 6184 c-4 -4 -7 -25 -7 -46 0 -35 2 -38 29 -38 27 0 47 21 33
35 -3 3 -7 16 -7 28 0 22 -33 36 -48 21z m35 -19 c0 -5 -5 -11 -11 -13 -6 -2
-11 4 -11 13 0 9 5 15 11 13 6 -2 11 -8 11 -13z m6 -43 c2 -7 -5 -12 -17 -12
-14 0 -19 5 -14 15 6 17 25 15 31 -3z"/>
<path d="M3000 6145 c0 -43 1 -45 28 -44 16 1 20 3 10 6 -10 2 -18 11 -18 18
0 7 8 16 18 18 16 4 16 5 0 6 -10 0 -18 7 -18 15 0 8 8 17 18 19 10 3 6 5 -10
6 -27 1 -28 -1 -28 -44z"/>
<path d="M3071 6143 c1 -26 4 -38 6 -25 5 27 20 29 28 2 3 -11 11 -20 16 -20
6 0 7 6 2 12 -4 7 -7 26 -8 43 0 23 -5 31 -22 33 -21 3 -23 0 -22 -45z m39 22
c0 -8 -7 -15 -15 -15 -8 0 -15 7 -15 15 0 8 7 15 15 15 8 0 15 -7 15 -15z"/>
<path d="M1801 6132 l1 -37 9 33 c5 17 16 32 24 32 10 0 15 -11 16 -32 l1 -33
7 29 c9 42 29 44 34 4 l4 -33 1 37 2 36 -50 0 -50 1 1 -37z"/>
<path d="M1943 6163 c23 -6 22 -19 -4 -26 -26 -7 -20 -31 9 -35 19 -3 22 1 22
32 0 31 -3 36 -22 35 -17 -1 -19 -2 -5 -6z m17 -43 c0 -5 -7 -10 -15 -10 -8 0
-15 5 -15 10 0 6 7 10 15 10 8 0 15 -4 15 -10z"/>
<path d="M1999 6168 c-1 -2 -3 -25 -5 -51 -4 -47 -4 -48 23 -45 33 4 43 27 14
35 -18 4 -19 7 -8 17 8 6 17 19 20 29 5 13 1 17 -18 17 -14 0 -25 -1 -26 -2z
m31 -17 c0 -6 -4 -13 -10 -16 -5 -3 -10 1 -10 9 0 9 5 16 10 16 6 0 10 -4 10
-9z m0 -61 c0 -5 -7 -10 -15 -10 -8 0 -15 5 -15 10 0 6 7 10 15 10 8 0 15 -4
15 -10z"/>
<path d="M2064 6156 c-12 -30 1 -51 31 -53 18 -1 22 1 10 4 -24 6 -44 23 -27
23 6 0 9 7 6 15 -4 8 -2 15 4 15 6 0 12 -6 15 -12 2 -7 8 -10 12 -6 11 11 -4
28 -26 28 -11 0 -22 -6 -25 -14z"/>
<path d="M8530 6110 c0 -5 16 -10 35 -10 19 0 35 5 35 10 0 6 -16 10 -35 10
-19 0 -35 -4 -35 -10z"/>
<path d="M2718 6103 c7 -3 16 -2 19 1 4 3 -2 6 -13 5 -11 0 -14 -3 -6 -6z"/>
<path d="M7979 6023 c-12 -30 -7 -109 7 -123 5 -5 9 26 9 71 0 43 -1 79 -3 79
-1 0 -7 -12 -13 -27z"/>
<path d="M8660 6013 c-7 -21 -21 -55 -31 -75 -10 -20 -15 -39 -10 -42 10 -6
67 141 58 150 -3 3 -11 -12 -17 -33z"/>
<path d="M9385 5970 c0 -53 3 -76 10 -69 6 5 10 37 10 69 0 32 -4 63 -10 69
-7 7 -10 -16 -10 -69z"/>
<path d="M8037 6033 c-4 -3 -6 -31 -6 -62 1 -31 4 -44 6 -28 5 34 26 35 42 1
6 -15 14 -24 17 -21 3 3 1 15 -5 26 -9 15 -8 26 1 41 11 18 10 23 -6 36 -21
15 -39 18 -49 7z m43 -28 c0 -8 -9 -15 -20 -15 -11 0 -20 7 -20 15 0 8 9 15
20 15 11 0 20 -7 20 -15z"/>
<path d="M8557 6017 c-2 -7 -2 -30 2 -52 5 -30 11 -40 26 -42 11 -2 14 0 8 3
-17 7 -17 61 -1 66 9 3 8 9 -4 21 -20 20 -24 21 -31 4z"/>
<path d="M8701 5973 c1 -32 4 -46 6 -30 5 34 30 35 39 2 3 -14 10 -25 14 -25
5 0 5 13 0 29 -4 15 -4 34 0 41 14 22 -1 40 -31 40 -29 0 -29 0 -28 -57z m47
30 c-2 -10 -10 -18 -18 -18 -8 0 -16 8 -18 18 -2 12 3 17 18 17 15 0 20 -5 18
-17z"/>
<path d="M8138 5998 c-37 -30 -25 -79 20 -77 27 1 27 1 3 8 -37 10 -38 31 -2
31 32 0 41 16 19 38 -15 15 -20 15 -40 0z m37 -18 c4 -6 -5 -10 -20 -10 -15 0
-24 4 -20 10 3 6 12 10 20 10 8 0 17 -4 20 -10z"/>
<path d="M8221 5996 c-20 -24 -10 -70 17 -74 12 -2 22 -10 22 -18 0 -8 4 -14
8 -14 5 0 10 25 11 55 1 30 -2 55 -8 55 -5 0 -16 2 -24 5 -7 3 -19 -1 -26 -9z
m39 -36 c0 -20 -5 -30 -15 -30 -18 0 -30 24 -21 45 10 28 36 17 36 -15z"/>
<path d="M8400 5989 c-7 -11 -9 -32 -6 -45 5 -20 12 -24 39 -23 30 2 30 2 5 6
-38 6 -37 33 2 33 24 0 28 3 23 18 -14 36 -47 42 -63 11z m48 -7 c2 -7 -6 -12
-17 -12 -21 0 -27 11 -14 24 9 9 26 2 31 -12z"/>
<path d="M8497 6003 c-12 -12 -7 -41 8 -47 20 -7 19 -24 -2 -29 -13 -4 -12 -5
5 -6 32 -1 40 27 13 45 -20 14 -20 41 0 29 5 -4 9 -1 9 4 0 12 -23 15 -33 4z"/>
<path d="M8790 5984 c-14 -36 3 -64 38 -63 27 1 27 1 3 8 -37 10 -38 31 -2 31
32 0 41 16 19 38 -20 20 -48 14 -58 -14z m48 -2 c2 -7 -6 -12 -17 -12 -21 0
-27 11 -14 24 9 9 26 2 31 -12z"/>
<path d="M8883 5994 c-4 -10 1 -22 10 -29 22 -16 22 -32 0 -38 -13 -4 -12 -5
5 -6 32 -1 41 29 14 47 -27 17 -28 29 -4 35 16 4 16 5 -1 6 -10 0 -20 -6 -24
-15z"/>
<path d="M8951 5941 c1 -36 4 -54 6 -40 3 21 8 25 28 21 20 -3 25 1 31 23 9
36 -6 60 -40 61 -26 1 -26 0 -25 -65z m47 18 c-3 -26 -18 -29 -32 -6 -7 10 -5
21 4 32 17 20 33 6 28 -26z"/>
<path d="M9045 5994 c-20 -20 -16 -53 8 -68 36 -23 75 35 47 70 -16 18 -35 18
-55 -2z m49 -17 c8 -12 7 -21 -6 -33 -20 -20 -38 -11 -38 20 0 39 23 46 44 13z"/>
<path d="M9131 5960 c2 -34 3 -38 6 -15 9 62 43 69 43 9 0 -19 5 -34 10 -34
13 0 13 50 0 70 -5 8 -21 15 -35 15 -23 1 -25 -2 -24 -45z"/>
<path d="M9222 5997 c-13 -15 -4 -31 21 -40 25 -9 10 -29 -15 -21 -14 4 -18 2
-14 -5 11 -17 46 -13 53 5 4 11 -2 23 -16 33 -24 18 -19 34 7 24 10 -4 13 -2
8 5 -9 16 -31 15 -44 -1z"/>
<path d="M9296 5994 c-19 -18 -20 -28 -6 -55 10 -19 60 -28 60 -11 0 5 -10 8
-21 8 -12 -1 -24 5 -26 12 -3 8 6 12 26 12 17 0 31 4 31 9 0 12 -29 41 -40 41
-5 0 -16 -7 -24 -16z m44 -14 c0 -5 -9 -10 -20 -10 -11 0 -20 5 -20 10 0 6 9
10 20 10 11 0 20 -4 20 -10z"/>
<path d="M3847 5993 c-14 -13 -6 -43 13 -53 28 -15 25 -33 -5 -28 -27 6 -34
-6 -10 -16 42 -16 62 31 24 58 -24 16 -17 39 8 29 11 -4 14 -3 9 5 -8 13 -29
16 -39 5z"/>
<path d="M3912 5958 c-2 -36 2 -50 16 -57 33 -17 52 5 50 57 l-1 47 -6 -45
c-5 -36 -10 -45 -26 -45 -16 0 -21 9 -26 45 l-6 45 -1 -47z"/>
<path d="M4007 5994 c-4 -4 -7 -27 -7 -51 0 -44 0 -44 33 -41 26 2 31 7 29 23
-2 11 -4 31 -5 45 -2 25 -34 40 -50 24z m41 -22 c2 -7 -3 -12 -12 -12 -9 0
-16 7 -16 16 0 17 22 14 28 -4z m2 -47 c0 -8 -7 -15 -15 -15 -8 0 -15 7 -15
15 0 8 7 15 15 15 8 0 15 -7 15 -15z"/>
<path d="M4092 5953 l-2 -53 40 0 c47 0 62 20 36 49 -21 23 -21 42 1 34 11 -4
14 -3 9 5 -4 7 -13 12 -21 12 -22 0 -25 -27 -5 -53 22 -28 17 -37 -21 -37 -26
0 -28 3 -32 48 l-3 47 -2 -52z"/>
<path d="M4207 5993 c-13 -13 -7 -38 13 -51 26 -16 25 -30 -2 -35 l-23 -4 23
-2 c33 -2 40 28 13 50 -25 20 -20 42 6 32 11 -4 14 -3 9 5 -8 13 -29 16 -39 5z"/>
<path d="M4271 5948 c1 -29 4 -43 6 -30 2 12 7 22 10 22 2 0 14 -10 25 -22 11
-13 16 -16 12 -8 -5 8 -8 31 -9 50 0 29 -4 36 -22 38 -22 3 -23 0 -22 -50z
m34 22 c0 -7 -6 -15 -12 -17 -8 -3 -13 4 -13 17 0 13 5 20 13 18 6 -3 12 -11
12 -18z"/>
<path d="M4342 5949 c-2 -29 1 -49 7 -49 12 0 15 86 3 93 -4 3 -8 -17 -10 -44z"/>
<path d="M4380 5949 c0 -49 1 -50 28 -47 23 3 27 7 28 38 1 41 -11 60 -37 60
-16 0 -19 -8 -19 -51z m40 26 c0 -8 -7 -15 -15 -15 -8 0 -15 7 -15 15 0 8 7
15 15 15 8 0 15 -7 15 -15z m4 -56 c-8 -14 -34 -11 -34 4 0 8 3 17 7 20 9 9
34 -13 27 -24z"/>
<path d="M4460 5950 c0 -48 1 -50 28 -49 23 2 24 2 5 6 -13 2 -23 11 -23 19 0
8 10 19 23 24 l22 9 -22 0 c-13 1 -23 7 -23 15 0 8 10 17 23 19 19 4 18 4 -5
6 -27 1 -28 -1 -28 -49z"/>
<path d="M4531 5948 c1 -29 4 -43 6 -30 5 27 29 29 38 2 3 -11 11 -20 16 -20
6 0 7 6 2 12 -4 7 -7 29 -8 48 0 31 -3 35 -27 38 -28 3 -28 3 -27 -50z m47 24
c2 -7 -3 -12 -12 -12 -9 0 -16 7 -16 16 0 17 22 14 28 -4z"/>
<path d="M8303 5965 c2 -37 4 -40 35 -43 31 -3 32 -2 32 37 0 23 -4 41 -10 41
-5 0 -10 -13 -10 -29 0 -28 -15 -49 -27 -38 -3 4 -9 21 -14 39 -8 33 -8 33 -6
-7z"/>
<path d="M1995 5970 l-180 -6 177 -2 c109 -1 179 2 183 8 3 6 5 9 3 8 -2 -1
-84 -5 -183 -8z"/>
<path d="M1778 5963 c6 -2 18 -2 25 0 6 3 1 5 -13 5 -14 0 -19 -2 -12 -5z"/>
<path d="M2603 5963 c15 -2 39 -2 55 0 15 2 2 4 -28 4 -30 0 -43 -2 -27 -4z"/>
<path d="M3063 5963 c9 -2 23 -2 30 0 6 3 -1 5 -18 5 -16 0 -22 -2 -12 -5z"/>
<path d="M8448 5713 c7 -3 16 -2 19 1 4 3 -2 6 -13 5 -11 0 -14 -3 -6 -6z"/>
<path d="M8389 5693 c-13 -16 -12 -17 4 -4 16 13 21 21 13 21 -2 0 -10 -8 -17
-17z"/>
<path d="M8373 5610 c0 -30 2 -43 4 -27 2 15 2 39 0 55 -2 15 -4 2 -4 -28z"/>
<path d="M304 5515 c0 -66 1 -92 3 -57 2 34 2 88 0 120 -2 31 -3 3 -3 -63z"/>
<path d="M2061 5508 c1 -29 4 -44 6 -33 2 11 14 25 26 30 32 15 29 49 -5 53
-28 3 -28 3 -27 -50z m44 22 c0 -8 -8 -16 -17 -18 -13 -2 -18 3 -18 18 0 15 5
20 18 18 9 -2 17 -10 17 -18z"/>
<path d="M2142 5518 c-2 -39 1 -48 18 -53 32 -10 50 12 48 59 -1 40 -1 40 -5
6 -9 -71 -49 -76 -56 -7 l-4 42 -1 -47z"/>
<path d="M2230 5511 c0 -43 3 -51 18 -51 29 0 56 25 46 41 -4 8 -8 23 -9 34 0
14 -8 21 -27 23 -27 3 -28 2 -28 -47z m48 22 c2 -8 -5 -13 -17 -13 -12 0 -21
6 -21 16 0 18 31 15 38 -3z m2 -37 c0 -17 -27 -29 -35 -16 -4 6 -3 15 0 20 9
15 35 12 35 -4z"/>
<path d="M2322 5513 c-2 -51 -1 -53 24 -53 14 0 23 4 19 10 -3 6 -12 10 -20
10 -9 0 -15 15 -18 43 -3 40 -4 40 -5 -10z"/>
<path d="M2383 5544 c-4 -11 2 -23 17 -34 25 -19 20 -43 -7 -33 -11 4 -14 3
-9 -5 10 -17 31 -15 47 4 12 14 10 19 -14 38 -33 26 -34 33 -4 39 l22 4 -23 2
c-13 0 -25 -6 -29 -15z"/>
<path d="M2453 5510 c0 -30 2 -43 4 -27 3 21 10 27 29 27 18 0 24 -5 24 -22 0
-32 6 -18 14 30 4 26 2 42 -4 42 -5 0 -10 -9 -10 -20 0 -30 -47 -28 -53 3 -2
12 -4 -3 -4 -33z"/>
<path d="M2550 5510 c0 -47 2 -50 25 -50 14 0 25 5 25 10 0 6 -9 10 -20 10
-27 0 -25 28 3 33 l22 4 -22 2 c-13 0 -23 7 -23 15 0 8 10 17 23 19 19 4 18 4
-5 6 -27 1 -28 -1 -28 -49z"/>
<path d="M2620 5515 c0 -25 5 -45 10 -45 6 0 10 10 10 23 0 21 1 21 26 -8 17
-20 22 -23 15 -8 -6 12 -8 35 -5 52 6 29 5 31 -25 31 -30 0 -31 -1 -31 -45z
m50 20 c0 -8 -7 -15 -15 -15 -8 0 -15 7 -15 15 0 8 7 15 15 15 8 0 15 -7 15
-15z"/>
<path d="M8374 5450 c0 -58 1 -81 3 -52 2 28 2 76 0 105 -2 28 -3 5 -3 -53z"/>
<path d="M3360 5460 c0 -51 4 -79 10 -75 6 3 10 30 10 58 l0 52 33 -54 c17
-30 37 -54 42 -55 6 -1 11 31 13 72 2 45 -1 72 -8 72 -5 0 -10 -23 -10 -52 l0
-53 -33 54 c-48 81 -57 78 -57 -19z"/>
<path d="M3525 5515 c-48 -47 -22 -135 40 -135 36 0 75 42 75 80 0 36 -38 80
-70 80 -11 0 -32 -11 -45 -25z m66 -5 c14 -8 19 -21 19 -48 0 -62 -45 -85 -75
-38 -18 28 -11 71 14 86 20 12 19 12 42 0z"/>
<path d="M7507 5533 c-14 -13 -6 -36 18 -55 28 -21 24 -43 -6 -35 -11 3 -19 1
-19 -5 0 -5 12 -8 28 -6 37 4 42 39 7 62 -29 19 -24 40 7 30 14 -4 18 -2 14 5
-8 12 -39 15 -49 4z"/>
<path d="M7581 5500 c0 -26 4 -51 11 -58 17 -17 55 -15 62 4 10 26 7 96 -4 89
-5 -3 -10 -26 -10 -51 0 -37 -3 -44 -20 -44 -20 0 -26 13 -33 75 -3 21 -4 16
-6 -15z"/>
<path d="M7687 5533 c-4 -3 -7 -28 -7 -55 0 -47 1 -48 30 -48 32 0 48 20 34
42 -5 7 -7 21 -5 32 4 26 -34 48 -52 29z m41 -25 c-6 -18 -28 -21 -28 -4 0 9
7 16 16 16 9 0 14 -5 12 -12z m0 -51 c2 -10 -3 -17 -12 -17 -10 0 -16 9 -16
21 0 24 23 21 28 -4z"/>
<path d="M7772 5488 l-2 -58 30 0 c17 0 30 4 30 9 0 4 -11 6 -24 4 -24 -5 -25
-2 -29 48 l-3 54 -2 -57z"/>
<path d="M7857 5533 c-15 -14 -6 -41 18 -57 31 -20 23 -40 -12 -31 -16 4 -22
2 -18 -5 10 -16 55 -12 62 7 4 11 -3 24 -22 38 -28 23 -27 49 2 38 11 -4 14
-3 9 5 -8 13 -29 16 -39 5z"/>
<path d="M7931 5483 c1 -32 4 -46 6 -30 2 15 8 27 12 27 4 0 14 -12 21 -27 7
-17 14 -23 17 -15 3 7 0 19 -7 26 -7 10 -8 16 0 21 16 10 12 42 -6 49 -38 15
-44 8 -43 -51z m38 34 c12 -15 5 -27 -16 -27 -7 0 -13 9 -13 20 0 23 13 26 29
7z"/>
<path d="M8050 5484 l0 -55 33 3 c30 3 32 5 32 42 0 43 -16 66 -46 66 -16 0
-19 -7 -19 -56z m48 24 c-6 -18 -25 -20 -31 -3 -5 10 0 15 14 15 12 0 19 -5
17 -12z m5 -43 c7 -17 -8 -29 -28 -21 -17 6 -9 36 10 36 7 0 15 -7 18 -15z"/>
<path d="M8140 5485 l0 -55 33 1 c29 1 29 2 8 8 -33 9 -38 29 -9 40 15 7 17
10 7 10 -25 1 -33 31 -9 31 11 0 20 5 20 10 0 6 -11 10 -25 10 -24 0 -25 -3
-25 -55z"/>
<path d="M8221 5483 c1 -32 3 -49 6 -38 9 35 21 39 34 12 7 -15 16 -27 21 -27
5 0 4 9 -2 20 -6 11 -8 31 -4 46 7 28 -7 44 -38 44 -15 0 -18 -9 -17 -57z m47
25 c-7 -19 -38 -22 -38 -4 0 10 9 16 21 16 12 0 19 -5 17 -12z"/>
<path d="M3670 5455 l0 -75 35 0 c47 0 75 29 75 78 0 49 -24 72 -73 72 l-37 0
0 -75z m78 43 c30 -30 3 -98 -39 -98 -16 0 -19 7 -19 55 0 51 2 55 23 55 13 0
28 -5 35 -12z"/>
<path d="M3810 5455 l0 -75 45 0 c25 0 45 5 45 10 0 6 -13 10 -30 10 -25 0
-30 4 -30 25 0 20 5 25 25 25 34 0 32 18 -2 22 -41 5 -44 38 -4 38 16 0 33 5
36 10 4 6 -12 10 -39 10 l-46 0 0 -75z"/>
<path d="M3980 5456 l0 -76 39 0 c49 0 77 30 59 64 -6 12 -12 35 -12 51 -1 28
-4 30 -43 33 l-43 3 0 -75z m68 37 c-2 -10 -12 -18 -23 -18 -11 0 -21 8 -23
18 -3 13 3 17 23 17 20 0 26 -4 23 -17z m7 -68 c0 -13 -8 -21 -22 -23 -19 -3
-23 1 -23 23 0 22 4 26 23 23 14 -2 22 -10 22 -23z"/>
<path d="M5941 5514 c0 -11 3 -14 6 -6 3 7 2 16 -1 19 -3 4 -6 -2 -5 -13z"/>
<path d="M8018 5493 c6 -65 10 -70 11 -15 0 28 -3 52 -7 52 -4 0 -6 -17 -4
-37z"/>
<path d="M8730 5445 c0 -43 4 -75 10 -75 6 0 10 26 10 58 l0 57 33 -57 c44
-80 57 -76 57 17 0 85 -17 103 -22 23 l-3 -53 -28 53 c-40 76 -57 70 -57 -23z"/>
<path d="M8886 5498 c-38 -54 -9 -128 50 -128 44 0 74 29 74 73 0 51 -24 77
-70 77 -29 0 -43 -6 -54 -22z m88 -14 c10 -26 7 -69 -6 -82 -15 -15 -55 -16
-63 -1 -4 6 -7 25 -7 44 0 19 3 38 7 44 10 17 62 13 69 -5z"/>
<path d="M9040 5445 l0 -75 38 0 c50 0 72 24 72 77 0 50 -23 73 -73 73 l-37 0
0 -75z m84 23 c14 -39 -6 -78 -39 -78 -24 0 -25 3 -25 56 0 54 0 55 27 52 20
-2 30 -11 37 -30z"/>
<path d="M9180 5445 l0 -75 45 0 c25 0 45 5 45 10 0 6 -13 10 -30 10 -25 0
-30 4 -30 25 0 20 5 25 26 25 14 0 23 4 19 10 -3 6 -17 10 -31 10 -17 0 -24 5
-24 20 0 16 7 20 35 20 19 0 35 5 35 10 0 6 -20 10 -45 10 l-45 0 0 -75z"/>
<path d="M9357 5513 c-9 -8 -9 -71 -1 -112 6 -27 11 -31 38 -31 51 0 76 24 76
74 0 29 -6 48 -18 59 -18 17 -82 23 -95 10z m83 -32 c22 -43 1 -91 -41 -91
-16 0 -19 7 -19 55 0 52 1 55 25 55 14 0 29 -8 35 -19z"/>
<path d="M6940 5420 l0 -80 39 0 c89 0 111 121 28 150 -64 22 -67 18 -67 -70z
m78 38 c7 -7 12 -26 12 -43 0 -37 -16 -55 -47 -55 -21 0 -23 4 -23 55 0 51 2
55 23 55 13 0 28 -5 35 -12z"/>
<path d="M6314 5476 c-10 -25 1 -129 14 -134 9 -3 12 13 12 55 l1 58 30 -57
c42 -82 59 -77 59 17 0 85 -17 103 -22 23 l-3 -53 -29 53 c-29 51 -51 65 -62
38z"/>
<path d="M6476 5468 c-22 -31 -20 -91 2 -111 50 -45 129 3 118 71 -7 48 -23
62 -67 62 -28 0 -42 -6 -53 -22z m82 -10 c17 -17 15 -73 -2 -88 -41 -33 -87
18 -67 73 11 29 47 37 69 15z"/>
<path d="M6625 5457 c-4 -18 -5 -51 -3 -72 3 -38 5 -40 40 -43 48 -4 78 24 78
73 0 46 -29 75 -75 75 -31 0 -35 -3 -40 -33z m89 -19 c14 -39 -6 -78 -39 -78
-24 0 -25 3 -25 56 0 54 0 55 27 52 20 -2 30 -11 37 -30z"/>
<path d="M6770 5415 l0 -75 40 0 c22 0 40 5 40 10 0 6 -13 10 -30 10 -25 0
-30 4 -30 25 0 20 5 25 25 25 14 0 25 5 25 10 0 6 -11 10 -25 10 -18 0 -25 5
-25 20 0 16 7 20 30 20 17 0 30 5 30 10 0 6 -18 10 -40 10 l-40 0 0 -75z"/>
<path d="M657 5473 c-11 -10 -8 -141 2 -148 6 -3 11 19 13 52 l3 58 34 -58
c18 -32 38 -56 45 -54 6 2 12 33 14 75 2 60 0 72 -13 72 -11 0 -15 -11 -15
-47 l0 -48 -31 53 c-30 51 -39 59 -52 45z"/>
<path d="M819 5461 c-33 -27 -33 -95 0 -122 53 -43 111 -9 111 65 0 35 -5 48
-22 60 -30 21 -61 20 -89 -3z m75 -17 c21 -20 20 -63 -1 -86 -20 -22 -37 -23
-57 -2 -31 31 -11 104 29 104 7 0 21 -7 29 -16z"/>
<path d="M962 5404 l3 -79 39 1 c46 2 76 31 76 74 0 42 -29 70 -78 77 l-43 6
3 -79z m69 46 c28 -15 27 -85 -2 -100 -35 -19 -49 -5 -49 48 0 63 10 73 51 52z"/>
<path d="M1110 5399 c0 -70 2 -80 16 -75 9 3 27 6 40 6 13 0 24 4 24 9 0 4
-12 8 -27 7 -23 -1 -29 4 -31 27 -3 23 0 27 22 27 14 0 26 5 26 10 0 6 -11 10
-25 10 -18 0 -25 5 -25 20 0 16 7 20 30 20 17 0 30 5 30 10 0 6 -18 10 -40 10
l-40 0 0 -81z"/>
<path d="M1287 5405 c-16 -46 -22 -77 -16 -81 6 -3 13 3 16 15 8 29 69 30 78
1 7 -22 25 -27 25 -8 0 28 -53 148 -65 148 -8 0 -24 -32 -38 -75z m63 -17 c0
-5 -9 -8 -20 -8 -20 0 -25 15 -13 45 5 15 8 14 19 -6 7 -13 13 -27 14 -31z"/>
<path d="M3090 5246 c-15 -39 -12 -99 5 -122 17 -23 18 -19 5 26 -6 23 -6 47
1 73 12 46 4 62 -11 23z"/>
<path d="M3260 5206 c0 -60 1 -64 25 -68 27 -6 55 17 55 45 0 22 -30 49 -46
43 -10 -4 -14 3 -14 19 0 14 -4 25 -10 25 -6 0 -10 -28 -10 -64z m58 -23 c-4
-36 -38 -45 -38 -10 0 27 7 37 27 37 10 0 13 -9 11 -27z"/>
<path d="M4357 5245 c10 -39 10 -82 0 -120 -7 -24 -6 -28 4 -18 20 20 24 124
5 148 -16 19 -16 19 -9 -10z"/>
<path d="M9219 5264 c-2 -5 -2 -38 1 -74 l6 -65 4 64 c5 57 -2 96 -11 75z"/>
<path d="M3155 5246 c-13 -9 -19 -26 -19 -50 0 -39 7 -50 41 -60 49 -15 85 71
45 107 -23 21 -42 21 -67 3z m65 -52 c0 -38 -21 -54 -49 -37 -40 25 -12 105
30 83 13 -8 19 -21 19 -46z"/>
<path d="M3360 5250 c0 -5 5 -10 11 -10 5 0 7 5 4 10 -3 6 -8 10 -11 10 -2 0
-4 -4 -4 -10z"/>
<path d="M3682 5198 c3 -56 5 -63 25 -66 28 -4 63 31 63 63 0 32 -33 65 -65
65 -25 0 -26 -1 -23 -62z m66 19 c7 -34 -7 -67 -28 -67 -17 0 -20 7 -20 46 0
41 2 45 22 42 13 -2 24 -11 26 -21z"/>
<path d="M8810 5250 c0 -5 5 -10 10 -10 6 0 10 5 10 10 0 6 -4 10 -10 10 -5 0
-10 -4 -10 -10z"/>
<path d="M9117 5253 c-11 -10 -8 -123 3 -123 6 0 10 8 10 18 0 10 12 22 30 29
23 8 30 18 30 37 0 33 -52 61 -73 39z m53 -38 c0 -18 -5 -25 -20 -25 -15 0
-20 7 -20 25 0 18 5 25 20 25 15 0 20 -7 20 -25z"/>
<path d="M9560 5250 c0 -5 5 -10 10 -10 6 0 10 5 10 10 0 6 -4 10 -10 10 -5 0
-10 -4 -10 -10z"/>
<path d="M3888 5238 c-9 -22 6 -101 20 -106 6 -2 12 1 12 7 0 6 -4 11 -10 11
-13 0 -13 57 -1 62 5 2 4 11 -4 21 -9 13 -14 14 -17 5z"/>
<path d="M8480 5190 c0 -33 3 -60 8 -60 4 0 7 20 6 45 0 25 2 45 6 45 4 0 13
-21 21 -46 8 -25 18 -46 23 -46 6 0 17 18 25 40 23 59 32 62 25 9 -3 -30 -1
-47 6 -47 6 0 10 25 10 60 0 78 -21 81 -46 8 l-17 -52 -19 52 c-27 73 -48 69
-48 -8z"/>
<path d="M8750 5235 c0 -8 -5 -15 -12 -15 -9 0 -9 -3 0 -12 7 -7 12 -27 12
-45 0 -21 6 -36 15 -40 19 -7 34 5 19 15 -16 10 -23 61 -10 70 9 5 7 12 -6 25
-15 14 -18 14 -18 2z"/>
<path d="M3569 5228 c-5 -48 9 -98 26 -98 8 0 15 5 15 10 0 6 -4 10 -10 10 -5
0 -10 14 -10 30 0 17 5 30 11 30 6 0 4 7 -5 15 -18 18 -26 19 -27 3z"/>
<path d="M3360 5178 c0 -30 -5 -59 -12 -66 -9 -9 -8 -12 4 -12 9 0 19 7 22 16
10 25 7 102 -4 109 -6 4 -10 -14 -10 -47z"/>
<path d="M3956 5214 c-19 -18 -21 -55 -4 -72 15 -15 45 -16 54 -1 4 7 1 10 -7
7 -18 -7 -51 10 -44 23 4 5 19 9 36 9 16 0 29 4 29 9 0 12 -29 41 -40 41 -5 0
-16 -7 -24 -16z m44 -14 c0 -5 -9 -10 -20 -10 -11 0 -20 5 -20 10 0 6 9 10 20
10 11 0 20 -4 20 -10z"/>
<path d="M4053 5223 c-20 -7 -15 -37 8 -52 17 -10 19 -15 9 -21 -7 -5 -20 -6
-29 -3 -12 5 -13 3 -5 -7 16 -17 54 -3 54 20 0 10 -9 22 -20 25 -27 8 -25 23
3 27 16 2 18 5 7 9 -8 3 -21 4 -27 2z"/>
<path d="M4123 5223 c-20 -8 -15 -41 8 -48 25 -8 19 -31 -7 -27 -16 3 -17 1
-6 -9 9 -10 17 -11 29 -3 27 17 26 33 -1 45 -31 15 -34 29 -5 29 11 0 17 5 14
10 -7 11 -13 11 -32 3z"/>
<path d="M4196 5214 c-38 -37 -7 -97 39 -76 32 15 35 66 6 82 -25 13 -27 13
-45 -6z m44 -34 c0 -23 -5 -30 -19 -30 -21 0 -33 22 -25 45 4 8 15 15 25 15
14 0 19 -7 19 -30z"/>
<path d="M4303 5222 c-20 -3 -23 -9 -23 -48 0 -24 5 -44 10 -44 6 0 10 16 10
35 0 22 6 37 17 44 22 12 15 18 -14 13z"/>
<path d="M5971 5199 c-14 -41 -13 -57 4 -94 13 -30 13 -29 8 17 -3 25 -1 60 5
77 6 17 7 31 2 31 -4 0 -13 -14 -19 -31z"/>
<path d="M6210 5165 l0 -65 30 0 c38 0 57 31 41 67 -8 18 -17 24 -31 20 -16
-4 -20 0 -20 19 0 13 -4 24 -10 24 -6 0 -10 -28 -10 -65z m55 -21 c0 -19 -5
-29 -15 -29 -16 0 -25 28 -16 51 10 25 31 10 31 -22z"/>
<path d="M7342 5168 l1 -63 6 60 c4 40 8 54 14 42 11 -27 9 -95 -4 -119 -9
-16 -8 -19 2 -16 18 6 30 56 23 93 -10 54 -15 65 -30 65 -11 0 -14 -14 -12
-62z"/>
<path d="M8323 5208 c-2 -16 1 -17 13 -8 17 15 17 17 1 23 -8 3 -14 -3 -14
-15z"/>
<path d="M429 5188 c-16 -39 -16 -91 0 -132 17 -42 22 -28 9 23 -8 33 -8 55 1
89 14 54 9 65 -10 20z"/>
<path d="M1620 5194 c6 -14 10 -43 10 -64 0 -21 -4 -50 -10 -64 -6 -16 -6 -26
0 -26 9 0 30 62 30 90 0 28 -21 90 -30 90 -6 0 -6 -10 0 -26z"/>
<path d="M3404 5206 c-16 -42 16 -87 52 -71 16 7 15 9 -10 14 -36 7 -36 25 -1
29 18 2 25 9 23 20 -4 22 -56 29 -64 8z m51 -6 c4 -6 -5 -10 -20 -10 -15 0
-24 4 -20 10 3 6 12 10 20 10 8 0 17 -4 20 -10z"/>
<path d="M3494 5195 c-3 -14 -4 -32 0 -40 8 -21 35 -30 49 -16 8 8 6 11 -10
11 -23 0 -36 22 -26 46 3 9 13 14 24 11 11 -3 19 -1 19 4 0 5 -11 9 -25 9 -18
0 -26 -7 -31 -25z"/>
<path d="M3790 5200 c-14 -27 10 -70 40 -70 30 0 33 18 3 22 -39 4 -42 28 -3
28 25 0 31 4 28 18 -5 26 -54 28 -68 2z m55 0 c4 -6 -5 -10 -20 -10 -15 0 -24
4 -20 10 3 6 12 10 20 10 8 0 17 -4 20 -10z"/>
<path d="M6021 5158 c0 -54 2 -59 11 -35 12 34 25 34 40 2 6 -14 15 -25 20
-25 5 0 2 14 -7 30 -10 19 -11 30 -5 30 6 0 10 12 8 28 -2 22 -8 28 -35 30
l-33 3 1 -63z m48 39 c12 -15 5 -27 -16 -27 -7 0 -13 9 -13 20 0 23 13 26 29
7z"/>
<path d="M6844 5195 c-13 -20 -15 -33 -8 -58 8 -28 15 -32 47 -35 20 -2 37 1
37 6 0 6 -9 8 -20 5 -28 -7 -50 14 -50 47 0 37 22 55 49 40 12 -6 21 -7 21 -1
0 10 -24 21 -46 21 -7 0 -21 -11 -30 -25z"/>
<path d="M8647 5213 c-4 -3 -7 -21 -7 -39 0 -40 28 -61 60 -44 23 12 27 59 8
78 -13 13 -50 16 -61 5z m51 -41 c3 -26 0 -32 -17 -32 -24 0 -37 35 -20 56 18
22 34 12 37 -24z"/>
<path d="M8810 5169 c0 -31 4 -48 10 -44 6 3 10 26 10 51 0 24 -4 44 -10 44
-5 0 -10 -23 -10 -51z"/>
<path d="M8862 5208 c-17 -17 -15 -54 4 -72 20 -21 37 -20 57 2 32 35 15 82
-28 82 -12 0 -26 -5 -33 -12z m53 -33 c0 -23 -4 -30 -20 -30 -21 0 -31 25 -21
51 11 28 41 12 41 -21z"/>
<path d="M8960 5168 c0 -59 18 -64 22 -5 4 59 32 59 36 -1 4 -48 22 -48 22 1
0 45 -11 57 -48 54 -31 -2 -32 -3 -32 -49z"/>
<path d="M9265 5210 c-4 -7 2 -9 19 -4 20 5 26 2 26 -10 0 -9 -8 -16 -19 -16
-25 0 -42 -22 -31 -39 4 -8 22 -15 40 -16 31 -2 31 -2 28 44 -3 41 -6 46 -30
49 -14 2 -29 -2 -33 -8z m45 -55 c0 -8 -9 -15 -20 -15 -20 0 -26 11 -13 23 12
13 33 7 33 -8z"/>
<path d="M9362 5166 c1 -42 2 -45 5 -14 4 39 28 67 43 52 5 -5 11 -27 13 -49
3 -33 4 -31 3 10 -1 49 -1 50 -33 51 l-33 1 2 -51z"/>
<path d="M9460 5173 c0 -53 18 -57 22 -5 2 25 8 37 18 37 10 0 16 -12 18 -37
4 -46 22 -51 22 -5 0 45 -11 57 -48 54 -31 -2 -32 -4 -32 -44z"/>
<path d="M9573 5175 c0 -27 2 -38 4 -22 2 15 2 37 0 50 -2 12 -4 0 -4 -28z"/>
<path d="M9610 5175 c0 -54 18 -60 22 -7 4 55 32 51 36 -6 3 -46 22 -48 22 -2
0 48 -9 60 -46 60 -34 0 -34 -1 -34 -45z"/>
<path d="M9719 5213 c-1 -5 -3 -32 -5 -61 -1 -39 2 -55 12 -59 22 -8 64 6 64
22 0 17 -36 39 -50 30 -6 -3 -10 -2 -10 4 0 5 10 11 22 13 14 2 24 13 29 31 7
26 5 27 -27 27 -19 0 -35 -3 -35 -7z m45 -11 c8 -13 -11 -35 -23 -28 -16 10
-14 36 3 36 8 0 17 -4 20 -8z m6 -81 c0 -6 -5 -13 -10 -16 -15 -9 -43 3 -35
15 8 13 45 13 45 1z"/>
<path d="M6402 5194 c-7 -8 -8 -15 -2 -19 6 -3 10 -22 10 -41 0 -29 3 -34 23
-33 16 1 18 2 5 6 -21 5 -25 59 -6 65 10 4 9 8 -2 20 -13 12 -18 13 -28 2z"/>
<path d="M7128 5197 c-3 -7 -3 -31 0 -54 3 -36 8 -43 26 -43 19 1 19 2 4 11
-19 11 -24 49 -9 65 6 5 4 14 -4 21 -10 9 -14 9 -17 0z"/>
<path d="M486 5178 c-31 -44 -7 -108 39 -108 13 0 27 5 31 11 4 8 -1 9 -15 4
-28 -8 -51 10 -51 40 0 41 11 55 42 55 17 0 27 4 23 10 -11 18 -53 11 -69 -12z"/>
<path d="M1130 5135 c0 -62 1 -65 24 -65 57 0 84 37 65 87 -13 34 -26 43 -61
43 -28 0 -28 -1 -28 -65z m76 8 c6 -20 2 -31 -16 -45 -13 -10 -28 -17 -34 -15
-13 5 -15 77 -3 94 13 19 45 -2 53 -34z"/>
<path d="M6125 5174 c-20 -20 -16 -53 8 -68 36 -23 75 35 47 70 -16 18 -35 18
-55 -2z m49 -42 c-16 -25 -38 -21 -42 7 -5 30 18 45 38 25 11 -11 12 -19 4
-32z"/>
<path d="M6316 5174 c-33 -32 -10 -79 36 -72 17 2 24 11 26 31 6 49 -30 73
-62 41z m49 -43 c-9 -29 -39 -23 -43 8 -2 13 2 27 10 32 19 12 41 -14 33 -40z"/>
<path d="M6515 5179 c-4 -6 0 -9 10 -7 27 5 28 -16 3 -27 -34 -15 -29 -39 10
-43 30 -3 32 -2 32 30 0 47 -36 78 -55 47z m35 -54 c0 -8 -7 -15 -15 -15 -16
0 -20 12 -8 23 11 12 23 8 23 -8z"/>
<path d="M6608 5183 c-13 -3 -18 -15 -18 -44 0 -21 5 -39 10 -39 6 0 10 14 10
30 0 18 6 33 15 36 8 4 15 10 15 15 0 9 -4 10 -32 2z"/>
<path d="M6668 5182 c-14 -2 -18 -13 -18 -43 0 -21 5 -39 10 -39 6 0 10 16 10
36 0 49 32 44 41 -6 l6 -35 4 35 c3 23 10 36 22 38 14 3 17 -4 17 -32 0 -20 4
-36 8 -36 11 0 12 38 2 64 -7 19 -16 23 -47 23 -21 0 -46 -2 -55 -5z"/>
<path d="M6946 5177 c-38 -27 2 -95 42 -71 24 16 28 55 6 71 -10 7 -21 13 -24
13 -3 0 -14 -6 -24 -13z m44 -18 c13 -22 -1 -49 -26 -49 -18 0 -28 38 -14 55
17 20 27 19 40 -6z"/>
<path d="M7031 5140 c2 -34 3 -38 6 -15 9 62 43 69 43 9 0 -19 5 -34 10 -34
14 0 12 67 -2 77 -7 4 -23 8 -35 8 -21 1 -23 -3 -22 -45z"/>
<path d="M7185 5181 c-10 -9 -5 -81 5 -81 6 0 10 14 10 31 0 19 7 37 18 45 16
12 15 13 -6 11 -13 -1 -25 -3 -27 -6z"/>
<path d="M7250 5176 c-28 -35 11 -93 48 -70 35 22 22 84 -18 84 -10 0 -23 -7
-30 -14z m49 -15 c7 -13 6 -23 -4 -37 -15 -19 -15 -19 -30 0 -15 19 -5 56 15
56 5 0 14 -8 19 -19z"/>
<path d="M593 5163 c-23 -9 -13 -20 13 -15 35 6 28 -20 -7 -28 -15 -4 -24 -13
-24 -25 0 -16 8 -21 38 -23 36 -3 37 -3 37 32 0 19 -7 42 -16 50 -16 17 -21
18 -41 9z m35 -65 c-7 -19 -38 -22 -38 -4 0 10 9 16 21 16 12 0 19 -5 17 -12z"/>
<path d="M693 5162 c-20 -3 -23 -10 -23 -48 0 -54 18 -59 22 -6 4 52 31 50 39
-3 5 -34 6 -36 8 -10 3 68 47 74 54 8 l4 -38 1 41 c2 46 -20 76 -40 56 -6 -6
-18 -8 -27 -4 -9 5 -26 6 -38 4z"/>
<path d="M835 5150 c-26 -29 -10 -74 28 -78 15 -2 27 1 27 6 0 5 -10 8 -21 8
-12 -1 -24 5 -26 12 -3 8 6 12 26 12 24 0 31 4 31 20 0 10 -9 24 -19 30 -26
13 -25 13 -46 -10z m50 -10 c4 -6 -5 -10 -20 -10 -15 0 -24 4 -20 10 3 6 12
10 20 10 8 0 17 -4 20 -10z"/>
<path d="M938 5163 c-14 -3 -18 -15 -18 -49 0 -24 5 -44 10 -44 6 0 10 16 10
35 0 22 6 38 15 41 8 4 15 10 15 15 0 9 -4 10 -32 2z"/>
<path d="M995 5161 c-4 -7 4 -11 19 -11 14 0 26 -4 26 -10 0 -5 -8 -10 -19
-10 -24 0 -45 -25 -37 -45 3 -10 16 -15 36 -13 30 2 31 4 28 48 -3 37 -7 46
-25 48 -11 2 -24 -2 -28 -7z m43 -63 c-7 -19 -38 -22 -38 -4 0 10 9 16 21 16
12 0 19 -5 17 -12z"/>
<path d="M1268 5163 c-14 -3 -18 -14 -17 -51 1 -26 3 -38 6 -27 2 11 6 30 9
43 2 12 11 22 19 22 8 0 15 5 15 10 0 10 -3 11 -32 3z"/>
<path d="M1350 5163 c0 -18 34 -93 42 -93 8 0 17 18 32 68 4 12 3 22 -2 22 -5
0 -14 -15 -19 -32 l-10 -33 -17 38 c-15 34 -26 47 -26 30z"/>
<path d="M1456 5154 c-19 -18 -21 -55 -4 -72 13 -13 68 -17 68 -4 0 4 -12 8
-27 7 -14 0 -28 6 -30 13 -3 8 6 12 26 12 24 0 31 4 31 20 0 10 -9 24 -19 30
-25 13 -27 13 -45 -6z m49 -14 c4 -6 -5 -10 -19 -10 -14 0 -26 5 -26 10 0 6 9
10 19 10 11 0 23 -4 26 -10z"/>
<path d="M1575 5161 c-3 -6 -12 -8 -20 -4 -12 4 -15 -5 -15 -41 0 -25 5 -46
10 -46 6 0 10 16 10 35 0 27 5 38 22 44 13 5 17 10 10 15 -6 3 -13 2 -17 -3z"/>
<path d="M1323 5115 c0 -27 2 -38 4 -22 2 15 2 37 0 50 -2 12 -4 0 -4 -28z"/>
<path d="M8098 5153 c23 -2 61 -2 85 0 23 2 4 4 -43 4 -47 0 -66 -2 -42 -4z"/>
<path d="M8250 5140 c-9 -6 -10 -10 -3 -10 6 0 15 5 18 10 8 12 4 12 -15 0z"/>
<path d="M8209 5103 c-13 -16 -12 -17 4 -4 9 7 17 15 17 17 0 8 -8 3 -21 -13z"/>
<path d="M7423 5005 c0 -22 2 -30 4 -17 2 12 2 30 0 40 -3 9 -5 -1 -4 -23z"/>
<path d="M5942 4990 c0 -19 2 -27 5 -17 2 9 2 25 0 35 -3 9 -5 1 -5 -18z"/>
<path d="M9000 4950 c0 -40 4 -70 10 -70 6 0 10 30 10 70 0 40 -4 70 -10 70
-6 0 -10 -30 -10 -70z"/>
<path d="M8906 4988 c-32 -46 -6 -112 42 -106 14 2 27 9 30 16 3 11 0 11 -16
1 -17 -10 -23 -10 -36 0 -21 17 -21 65 0 85 19 19 26 20 43 4 11 -11 13 -10 9
2 -8 25 -54 24 -72 -2z"/>
<path d="M9050 4999 c0 -5 5 -7 10 -4 6 3 10 8 10 11 0 2 -4 4 -10 4 -5 0 -10
-5 -10 -11z"/>
<path d="M303 4920 c0 -47 2 -66 4 -42 2 23 2 61 0 85 -2 23 -4 4 -4 -43z"/>
<path d="M9291 4983 c-9 -10 -10 -17 -3 -22 6 -3 12 -22 14 -41 2 -26 8 -36
23 -38 18 -2 18 -2 3 8 -23 14 -25 70 -3 70 8 0 15 5 15 10 0 6 -6 10 -14 10
-8 0 -16 4 -18 9 -1 5 -9 2 -17 -6z"/>
<path d="M2470 4965 c0 -16 -4 -23 -13 -19 -19 7 -39 -20 -35 -48 2 -17 10
-23 31 -24 26 -1 27 0 27 57 0 33 -2 59 -5 59 -3 0 -5 -11 -5 -25z m-2 -58
c-2 -11 -9 -22 -15 -25 -16 -4 -27 22 -19 43 8 22 38 6 34 -18z"/>
<path d="M2563 4925 c0 -33 2 -45 4 -27 2 18 2 45 0 60 -2 15 -4 0 -4 -33z"/>
<path d="M9053 4930 c0 -30 2 -43 4 -27 2 15 2 39 0 55 -2 15 -4 2 -4 -28z"/>
<path d="M9102 4968 c-7 -7 -12 -24 -12 -38 0 -14 5 -31 12 -38 14 -14 58 -16
58 -3 0 5 -8 7 -18 4 -10 -2 -24 3 -31 11 -12 14 -10 16 7 16 27 0 52 10 52
20 0 13 -30 40 -44 40 -6 0 -17 -5 -24 -12z m48 -18 c0 -5 -12 -10 -26 -10
-14 0 -23 4 -19 10 3 6 15 10 26 10 10 0 19 -4 19 -10z"/>
<path d="M9190 4927 c0 -29 4 -46 10 -42 6 3 10 22 10 41 0 27 4 34 20 34 17
0 20 -7 20 -40 0 -22 5 -40 10 -40 13 0 13 60 0 80 -5 8 -23 15 -40 15 -29 1
-30 0 -30 -48z"/>
<path d="M1891 4918 c1 -29 3 -45 6 -35 3 10 16 22 30 28 35 13 29 53 -9 57
-28 3 -28 2 -27 -50z m45 31 c10 -17 -13 -36 -27 -22 -12 12 -4 33 11 33 5 0
12 -5 16 -11z"/>
<path d="M1983 4943 c-8 -3 -12 -20 -12 -41 2 -34 2 -35 6 -7 3 16 10 33 16
37 14 9 6 17 -10 11z"/>
<path d="M2020 4935 c-28 -34 16 -84 47 -53 14 14 15 22 5 43 -13 28 -33 32
-52 10z m40 -31 c0 -15 -6 -24 -15 -24 -21 0 -30 27 -15 45 16 19 30 10 30
-21z"/>
<path d="M2102 4941 c-8 -5 -12 -21 -10 -37 2 -21 9 -30 26 -32 12 -2 22 1 22
6 0 5 -8 9 -17 8 -13 -1 -18 6 -18 24 0 18 5 25 17 24 10 -1 15 2 12 7 -6 11
-15 11 -32 0z"/>
<path d="M2162 4938 c-26 -26 -6 -69 33 -67 18 1 18 2 -3 7 -30 9 -33 26 -4
30 25 4 30 27 6 36 -20 8 -18 8 -32 -6z m33 -8 c3 -5 -3 -10 -15 -10 -12 0
-18 5 -15 10 3 6 10 10 15 10 5 0 12 -4 15 -10z"/>
<path d="M2231 4936 c-10 -12 -8 -17 8 -26 26 -13 27 -27 4 -33 -17 -4 -17 -5
0 -6 26 -2 33 27 11 44 -17 13 -17 16 -4 25 8 5 10 10 4 10 -6 0 -17 -6 -23
-14z"/>
<path d="M2290 4936 c-9 -12 -7 -17 9 -28 26 -16 27 -25 4 -31 -17 -4 -17 -5
0 -6 26 -2 33 27 11 44 -17 13 -17 16 -4 25 8 5 10 10 4 10 -6 0 -17 -6 -24
-14z"/>
<path d="M2356 4934 c-28 -28 -12 -65 29 -63 19 0 19 1 -2 9 -31 12 -29 30 2
30 23 0 24 2 15 20 -13 24 -23 25 -44 4z m29 -4 c3 -5 -1 -10 -10 -10 -9 0
-13 5 -10 10 3 6 8 10 10 10 2 0 7 -4 10 -10z"/>
<path d="M2601 4906 c2 -41 2 -41 8 -8 3 18 11 33 16 33 6 0 13 -15 16 -33 5
-27 7 -29 8 -8 3 60 35 64 44 5 3 -22 4 -19 3 10 l-1 40 -47 1 -48 0 1 -40z"/>
<path d="M2743 4944 c24 -8 21 -19 -10 -33 -23 -10 -24 -14 -12 -26 8 -8 23
-12 35 -9 18 5 20 11 15 37 -5 22 -13 33 -26 34 -16 1 -17 1 -2 -3z m17 -43
c0 -12 -20 -25 -27 -18 -7 7 6 27 18 27 5 0 9 -4 9 -9z"/>
<path d="M2803 4938 c-4 -7 -9 -29 -10 -50 -1 -26 3 -37 15 -40 42 -11 59 26
20 42 -16 6 -18 9 -7 9 16 1 29 20 29 42 0 14 -38 11 -47 -3z m27 -13 c0 -8
-4 -15 -10 -15 -5 0 -10 7 -10 15 0 8 5 15 10 15 6 0 10 -7 10 -15z m10 -55
c0 -5 -9 -10 -21 -10 -11 0 -17 5 -14 10 3 6 13 10 21 10 8 0 14 -4 14 -10z"/>
<path d="M2871 4936 c-25 -30 13 -86 40 -59 9 9 7 11 -10 6 -15 -4 -21 -1 -21
11 0 10 8 16 21 16 14 0 19 5 17 17 -4 23 -31 28 -47 9z m34 -6 c3 -5 -1 -10
-10 -10 -9 0 -13 5 -10 10 3 6 8 10 10 10 2 0 7 -4 10 -10z"/>
<path d="M2503 4853 c9 -2 25 -2 35 0 9 3 1 5 -18 5 -19 0 -27 -2 -17 -5z"/>
<path d="M5962 4834 c10 -10 20 -16 22 -13 3 3 -5 11 -17 18 -21 13 -21 12 -5
-5z"/>
<path d="M1719 4803 c-13 -16 -12 -17 4 -4 16 13 21 21 13 21 -2 0 -10 -8 -17
-17z"/>
<path d="M9839 4753 c-13 -16 -12 -17 4 -4 16 13 21 21 13 21 -2 0 -10 -8 -17
-17z"/>
<path d="M8748 4733 c29 -2 74 -2 100 0 26 2 2 3 -53 3 -55 0 -76 -1 -47 -3z"/>
<path d="M9578 4733 c12 -2 30 -2 40 0 9 3 -1 5 -23 4 -22 0 -30 -2 -17 -4z"/>
<path d="M2268 4473 c172 -2 451 -2 620 0 169 1 28 2 -313 2 -341 0 -479 -1
-307 -2z"/>
<path d="M7316 4353 c-5 -12 2 -25 24 -43 34 -28 31 -40 -9 -40 -18 0 -22 -3
-14 -11 15 -15 44 -8 57 14 9 15 6 22 -16 41 -33 26 -37 51 -8 43 11 -3 20 -1
20 4 0 17 -48 9 -54 -8z"/>
<path d="M7400 4310 l0 -60 38 1 c36 1 36 2 7 8 -38 8 -42 42 -5 52 24 7 24 7
3 8 -35 2 -31 39 5 44 22 3 20 4 -10 6 l-38 1 0 -60z"/>
<path d="M7491 4308 c1 -35 4 -51 6 -35 2 15 11 27 18 27 8 0 21 -12 29 -27 8
-16 15 -21 15 -13 1 8 -3 21 -8 29 -6 9 -5 21 2 32 14 23 -6 49 -39 49 -23 0
-24 -3 -23 -62z m47 29 c2 -12 -3 -17 -17 -17 -12 0 -21 6 -21 13 0 31 32 34
38 4z"/>
<path d="M7570 4366 c0 -13 44 -116 49 -116 10 0 43 98 39 112 -3 7 -11 -5
-18 -27 -19 -59 -26 -61 -40 -11 -7 26 -17 46 -21 46 -5 0 -9 -2 -9 -4z"/>
<path d="M7680 4316 c0 -30 5 -58 10 -61 6 -4 10 17 10 54 0 34 -4 61 -10 61
-5 0 -10 -24 -10 -54z"/>
<path d="M7736 4354 c-34 -33 -10 -104 34 -104 10 0 22 5 26 12 5 8 2 9 -11 5
-24 -10 -45 10 -45 43 0 33 21 53 45 43 13 -4 16 -3 11 5 -10 17 -42 15 -60
-4z"/>
<path d="M7820 4310 l0 -60 36 0 c21 0 33 4 29 10 -3 6 -15 10 -26 10 -26 0
-24 29 4 40 l22 9 -22 0 c-16 1 -23 7 -23 20 0 12 8 21 23 24 16 3 13 5 -10 6
l-33 1 0 -60z"/>
<path d="M7957 4363 c-15 -15 -5 -44 18 -55 31 -14 29 -44 -3 -41 -12 2 -22
-2 -22 -7 0 -14 44 -12 58 2 20 20 14 37 -19 53 -34 18 -34 40 0 39 11 0 21 3
21 8 0 10 -44 11 -53 1z"/>
<path d="M8040 4310 l0 -60 33 1 c29 1 30 2 7 8 -34 9 -40 48 -8 54 l23 4 -22
2 c-35 2 -31 39 5 44 25 4 25 4 -5 6 l-33 1 0 -60z"/>
<path d="M8120 4311 c0 -34 4 -61 10 -61 6 0 10 11 10 25 0 16 6 25 15 25 8 0
15 -4 15 -8 0 -5 7 -17 16 -28 14 -18 15 -18 8 6 -4 14 -8 41 -8 60 -1 32 -4
35 -33 38 l-33 3 0 -60z m55 29 c0 -8 -8 -16 -17 -18 -13 -2 -18 3 -18 18 0
15 5 20 18 18 9 -2 17 -10 17 -18z"/>
<path d="M8213 4349 c12 -48 38 -102 47 -93 12 13 42 106 36 112 -3 2 -10 -8
-16 -24 -26 -72 -26 -72 -40 -29 -15 47 -36 74 -27 34z"/>
<path d="M8320 4310 l0 -60 30 0 c17 0 30 4 30 10 0 5 -6 7 -12 5 -20 -7 -42
11 -35 28 3 9 16 17 29 20 20 4 19 4 -5 6 -36 1 -34 32 3 42 23 6 22 7 -7 8
l-33 1 0 -60z"/>
<path d="M8400 4311 c0 -34 4 -61 10 -61 6 0 10 11 10 25 0 16 6 25 15 25 8 0
15 -4 15 -8 0 -5 7 -17 16 -28 15 -19 16 -19 8 1 -4 11 -8 38 -8 60 -1 38 -3
40 -33 43 l-33 3 0 -60z m55 29 c0 -8 -8 -16 -17 -18 -13 -2 -18 3 -18 18 0
15 5 20 18 18 9 -2 17 -10 17 -18z"/>
<path d="M2270 4194 c0 -56 3 -75 13 -71 7 2 12 23 12 54 0 28 3 49 8 46 4 -2
19 -27 32 -54 38 -74 55 -66 55 26 0 85 -17 103 -22 23 l-3 -53 -29 53 c-19
33 -36 52 -48 52 -16 0 -18 -9 -18 -76z"/>
<path d="M2436 4248 c-22 -31 -20 -91 2 -111 50 -45 129 3 118 71 -7 48 -23
62 -67 62 -28 0 -42 -6 -53 -22z m78 -4 c19 -18 21 -75 4 -92 -19 -19 -56 -14
-68 9 -14 26 -4 76 18 89 23 13 28 12 46 -6z"/>
<path d="M2580 4195 l0 -75 40 0 c53 0 80 27 80 78 0 50 -24 72 -78 72 l-42 0
0 -75z m90 36 c22 -43 1 -91 -41 -91 -16 0 -19 7 -19 55 0 52 1 55 25 55 14 0
29 -8 35 -19z"/>
<path d="M2730 4195 l0 -75 45 0 c25 0 45 5 45 10 0 6 -16 10 -35 10 -31 0
-35 3 -35 25 0 20 5 25 24 25 14 0 28 5 31 10 4 6 -7 10 -24 10 -24 0 -31 4
-31 20 0 16 7 20 35 20 19 0 35 5 35 10 0 6 -20 10 -45 10 l-45 0 0 -75z"/>
<path d="M2900 4195 l0 -75 39 0 c52 0 79 32 57 65 -9 13 -11 27 -6 35 16 26
-8 50 -50 50 l-40 0 0 -75z m68 38 c-2 -10 -12 -18 -23 -18 -11 0 -21 8 -23
18 -3 13 3 17 23 17 20 0 26 -4 23 -17z m7 -68 c0 -31 -49 -28 -53 3 -3 20 0
23 25 20 20 -2 28 -8 28 -23z"/>
<path d="M3381 4154 c0 -11 3 -14 6 -6 3 7 2 16 -1 19 -3 4 -6 -2 -5 -13z"/>
<path d="M4662 4018 c2 -54 7 -83 16 -86 8 -2 12 9 12 38 0 37 2 40 19 31 10
-6 24 -24 29 -41 6 -16 16 -30 21 -30 15 0 13 20 -4 54 -11 20 -12 33 -5 40
17 17 11 55 -9 66 -11 5 -34 10 -51 10 l-31 0 3 -82z m68 47 c15 -18 5 -35
-21 -35 -14 0 -19 7 -19 25 0 28 21 33 40 10z"/>
<path d="M4815 4075 c-17 -16 -25 -35 -25 -60 0 -38 35 -85 64 -85 33 0 64 20
75 48 36 86 -52 160 -114 97z m73 -11 c51 -36 7 -134 -47 -104 -28 14 -30 94
-3 109 23 14 24 14 50 -5z"/>
<path d="M4972 4088 c-24 -24 -14 -58 23 -79 54 -32 43 -62 -21 -52 -28 4 -28
4 -10 -11 38 -30 86 -12 86 33 0 23 -8 34 -36 50 -40 24 -40 47 0 44 17 -1 26
2 23 10 -5 17 -50 20 -65 5z"/>
<path d="M5147 4093 c-4 -3 -7 -42 -7 -85 l0 -78 33 0 c72 0 113 56 87 119
-15 37 -91 67 -113 44z m81 -35 c17 -15 15 -74 -4 -93 -16 -16 -62 -18 -56 -2
1 4 2 32 2 63 0 53 1 55 23 48 12 -3 28 -11 35 -16z"/>
<path d="M5296 4085 c-8 -21 -8 -69 0 -117 6 -35 9 -38 41 -38 69 0 109 85 65
140 -23 29 -96 40 -106 15z m74 -15 c4 0 13 -14 19 -30 17 -50 -7 -90 -55 -90
-10 0 -14 15 -14 58 0 62 6 76 28 67 7 -3 17 -5 22 -5z"/>
<path d="M5456 4084 c-9 -8 -16 -22 -16 -29 0 -14 5 -20 49 -53 35 -27 22 -56
-20 -47 -24 5 -30 4 -27 -6 7 -21 57 -23 79 -3 29 26 23 52 -16 76 -43 25 -44
54 -2 51 29 -2 37 11 11 21 -25 10 -42 7 -58 -10z"/>
<path d="M8524 3935 c0 -55 1 -76 3 -47 2 29 2 74 0 100 -2 26 -3 2 -3 -53z"/>
<path d="M1980 3999 c-16 -30 -17 -108 -1 -137 18 -34 22 -23 9 26 -7 30 -7
54 0 84 13 49 9 60 -8 27z"/>
<path d="M3316 3971 c13 -41 13 -58 4 -87 -14 -41 -7 -56 10 -23 16 29 8 126
-13 146 -14 15 -14 12 -1 -36z"/>
<path d="M2161 3945 l-1 -71 30 -2 c30 -2 50 19 50 52 0 23 -30 47 -50 41 -15
-5 -20 0 -23 22 -2 15 -5 -4 -6 -42z m57 -24 c2 -13 -1 -28 -8 -35 -16 -15
-40 18 -33 45 7 27 37 20 41 -10z"/>
<path d="M2265 4000 c-3 -5 -1 -10 4 -10 6 0 11 5 11 10 0 6 -2 10 -4 10 -3 0
-8 -4 -11 -10z"/>
<path d="M2036 3978 c-43 -61 11 -132 74 -98 27 14 35 65 16 95 -21 33 -69 34
-90 3z m74 -7 c16 -31 12 -59 -12 -75 -31 -22 -58 -4 -58 37 0 54 47 79 70 38z"/>
<path d="M2600 3935 l0 -65 33 0 c41 0 67 26 67 67 0 38 -27 63 -68 63 l-32 0
0 -65z m78 2 c3 -31 0 -39 -20 -46 -33 -12 -38 -6 -38 45 0 44 1 45 28 42 23
-3 27 -8 30 -41z"/>
<path d="M2487 3976 c-3 -8 -4 -22 -2 -33 14 -70 16 -73 38 -73 20 1 20 2 5
11 -21 12 -24 65 -6 71 9 3 8 9 -4 21 -20 21 -24 21 -31 3z"/>
<path d="M2823 3983 c4 -3 2 -12 -4 -20 -9 -10 -8 -13 1 -13 6 0 11 -12 10
-27 -3 -47 -1 -53 23 -53 20 1 20 2 5 11 -21 12 -24 65 -6 71 9 3 8 9 -4 21
-9 9 -20 17 -24 17 -4 0 -4 -3 -1 -7z"/>
<path d="M3067 3978 c-2 -7 -1 -33 2 -58 5 -35 10 -45 26 -47 11 -2 14 0 8 3
-17 7 -17 71 -1 76 9 3 8 9 -4 21 -20 20 -24 21 -31 5z"/>
<path d="M2268 3964 c-5 -4 -8 -30 -8 -59 0 -28 -5 -56 -12 -63 -9 -9 -8 -12
5 -12 10 0 20 6 23 14 8 20 0 129 -8 120z"/>
<path d="M2315 3946 c-24 -36 -5 -76 35 -76 16 0 30 4 30 10 0 5 -7 7 -15 4
-8 -4 -23 0 -32 7 -14 13 -13 15 18 19 27 4 33 9 31 25 -8 40 -44 46 -67 11z
m55 -6 c0 -5 -12 -10 -26 -10 -14 0 -23 4 -19 10 3 6 15 10 26 10 10 0 19 -4
19 -10z"/>
<path d="M2416 3954 c-19 -18 -20 -38 -6 -65 12 -20 45 -26 55 -8 4 6 1 10 -6
8 -30 -4 -39 2 -39 24 0 29 18 47 38 40 10 -4 13 -2 8 5 -10 17 -32 15 -50 -4z"/>
<path d="M2736 3957 c-12 -9 -17 -23 -14 -47 3 -31 6 -35 36 -38 17 -2 32 1
32 6 0 6 -8 8 -18 5 -10 -2 -24 3 -31 11 -12 14 -9 16 23 16 40 0 47 17 20 44
-19 19 -25 20 -48 3z m44 -17 c0 -5 -9 -10 -20 -10 -11 0 -20 5 -20 10 0 6 9
10 20 10 11 0 20 -4 20 -10z"/>
<path d="M2896 3954 c-19 -18 -21 -55 -4 -72 14 -14 58 -16 58 -4 0 5 -10 8
-21 8 -12 -1 -24 5 -26 12 -3 8 6 12 26 12 20 0 31 5 31 14 0 16 -26 46 -40
46 -5 0 -16 -7 -24 -16z m44 -14 c0 -5 -9 -10 -20 -10 -11 0 -20 5 -20 10 0 6
9 10 20 10 11 0 20 -4 20 -10z"/>
<path d="M2991 3956 c-7 -8 -11 -30 -9 -48 3 -29 6 -33 32 -33 17 0 31 6 34
15 5 13 3 13 -11 1 -22 -18 -49 3 -45 33 2 16 10 21 31 21 15 -1 26 4 24 10
-6 16 -43 17 -56 1z"/>
<path d="M3136 3947 c-20 -30 -10 -66 20 -73 31 -8 54 11 54 45 0 51 -48 69
-74 28z m58 -13 c7 -19 -11 -57 -26 -52 -19 7 -32 34 -25 52 8 21 43 21 51 0z"/>
<path d="M3242 3915 c1 -40 2 -43 5 -15 3 20 13 42 26 52 l22 18 -27 -2 c-27
-2 -28 -5 -26 -53z"/>
<path d="M7073 3884 c-24 -10 -14 -49 18 -75 39 -32 32 -54 -15 -45 -29 5 -30
5 -12 -9 25 -19 41 -19 60 1 26 26 19 52 -21 73 -33 17 -30 45 2 38 16 -3 24
0 22 7 -4 12 -35 18 -54 10z"/>
<path d="M7160 3820 l0 -70 48 1 c44 2 45 2 12 8 -26 4 -36 12 -38 29 -3 18 1
22 22 22 14 0 26 5 26 10 0 6 -11 10 -25 10 -18 0 -25 5 -25 20 0 16 7 20 30
20 17 0 30 5 30 10 0 6 -18 10 -40 10 l-40 0 0 -70z"/>
<path d="M7270 3820 c0 -40 4 -70 10 -70 6 0 10 14 10 31 0 37 19 35 38 -4 14
-30 39 -38 26 -9 -9 21 -9 52 0 73 10 23 -19 49 -55 49 l-29 0 0 -70z m60 30
c0 -13 -7 -20 -20 -20 -13 0 -20 7 -20 20 0 13 7 20 20 20 13 0 20 -7 20 -20z"/>
<path d="M7372 3878 c21 -78 44 -128 57 -126 14 3 49 86 50 121 2 32 -16 9
-29 -38 -7 -25 -16 -47 -20 -50 -4 -2 -14 20 -24 50 -9 30 -22 55 -27 55 -6 0
-9 -6 -7 -12z"/>
<path d="M7510 3821 c0 -41 4 -71 10 -71 6 0 10 28 10 64 0 36 -4 68 -10 71
-6 4 -10 -20 -10 -64z"/>
<path d="M7576 3874 c-46 -46 -25 -117 37 -122 23 -2 37 1 37 8 0 7 -7 9 -16
6 -44 -17 -79 38 -54 84 9 18 18 21 41 16 30 -6 40 7 13 18 -25 10 -42 7 -58
-10z"/>
<path d="M7677 3883 c-4 -3 -7 -35 -7 -70 l0 -63 43 2 c36 1 38 2 10 5 -27 4
-33 9 -33 29 0 19 5 24 25 24 14 0 25 5 25 10 0 6 -11 10 -25 10 -18 0 -25 5
-25 20 0 16 7 20 30 20 17 0 30 5 30 10 0 11 -63 14 -73 3z"/>
<path d="M7846 3874 c-20 -20 -30 -57 -21 -84 9 -28 49 -53 75 -45 29 9 25 24
-7 22 -33 -2 -54 32 -43 71 6 23 12 27 44 26 29 -1 34 1 25 12 -15 19 -54 18
-73 -2z"/>
<path d="M7950 3821 l0 -71 36 0 c21 0 33 4 29 10 -3 6 -15 10 -26 10 -16 0
-19 7 -19 54 0 30 -4 58 -10 61 -6 4 -10 -20 -10 -64z"/>
<path d="M8040 3820 c0 -40 4 -70 10 -70 6 0 10 30 10 70 0 40 -4 70 -10 70
-6 0 -10 -30 -10 -70z"/>
<path d="M8090 3820 l0 -70 43 2 c36 1 38 2 10 5 -27 4 -33 9 -33 29 0 19 5
24 24 24 14 0 28 5 31 10 4 6 -7 10 -24 10 -24 0 -31 4 -31 20 0 16 7 20 30
20 17 0 30 5 30 10 0 6 -18 10 -40 10 l-40 0 0 -70z"/>
<path d="M8200 3821 c0 -79 17 -98 22 -23 l3 47 25 -47 c35 -70 50 -63 50 22
0 40 -4 70 -10 70 -5 0 -10 -24 -10 -52 l0 -53 -28 49 c-40 74 -52 71 -52 -13z"/>
<path d="M8320 3880 c0 -5 9 -10 20 -10 18 0 20 -7 20 -60 0 -33 4 -60 10 -60
6 0 10 27 10 60 0 53 2 60 20 60 11 0 20 5 20 10 0 6 -22 10 -50 10 -27 0 -50
-4 -50 -10z"/>
<path d="M4636 3779 c-12 -61 -7 -129 9 -129 12 0 15 13 15 58 l1 57 32 -57
c44 -80 57 -76 57 17 0 43 -4 75 -10 75 -5 0 -10 -24 -10 -52 l0 -53 -33 54
c-39 65 -52 72 -61 30z"/>
<path d="M4775 3800 c-4 -6 5 -10 19 -10 25 0 26 -2 26 -70 0 -90 18 -92 22
-2 3 61 5 67 26 70 12 2 20 8 17 13 -8 12 -102 12 -110 -1z"/>
<path d="M4916 3802 c-3 -3 -6 -38 -6 -79 l0 -73 51 0 c31 0 48 4 44 10 -3 6
-19 10 -36 10 -24 0 -29 4 -29 25 0 20 5 25 25 25 14 0 25 5 25 10 0 6 -11 10
-25 10 -18 0 -25 5 -25 19 0 15 8 21 33 23 17 2 32 8 32 13 0 10 -80 17 -89 7z"/>
<path d="M5047 3804 c-11 -11 -9 -154 3 -154 6 0 10 14 10 31 0 23 4 30 17 27
10 -2 23 -14 29 -26 6 -13 17 -29 23 -35 17 -17 14 12 -4 47 -9 16 -12 32 -7
35 16 11 21 39 9 55 -13 18 -68 32 -80 20z m63 -43 c0 -20 -25 -35 -41 -25 -5
3 -9 14 -9 25 0 14 7 19 25 19 18 0 25 -5 25 -19z"/>
<path d="M5176 3802 c-3 -3 -6 -38 -6 -79 0 -54 3 -73 13 -73 9 0 12 10 9 30
-4 28 -2 30 28 30 21 0 30 4 27 13 -2 6 -15 12 -28 12 -17 0 -25 7 -27 23 -3
19 1 22 27 22 26 0 55 18 34 21 -30 6 -72 6 -77 1z"/>
<path d="M5295 3756 c-31 -71 -40 -106 -27 -106 6 0 14 9 17 20 8 25 75 30 75
6 0 -16 18 -31 27 -23 7 7 -46 145 -58 153 -5 3 -20 -19 -34 -50z m33 -44
c-28 -5 -31 1 -16 33 l12 28 12 -29 c11 -26 10 -29 -8 -32z"/>
<path d="M5445 3798 c-11 -6 -23 -16 -27 -22 -10 -14 -10 -88 0 -103 12 -19
55 -31 80 -22 33 12 27 30 -8 23 -18 -4 -36 -1 -45 6 -20 16 -19 74 1 94 18
19 28 20 55 6 12 -7 19 -7 19 -1 0 10 -32 31 -47 31 -4 0 -17 -6 -28 -12z"/>
<path d="M5547 3803 c-4 -3 -7 -39 -7 -80 l0 -73 40 0 c22 0 42 0 45 0 3 0 5
3 5 8 0 4 -14 7 -30 7 -26 0 -30 3 -30 27 0 23 4 28 25 28 14 0 25 5 25 10 0
6 -11 10 -25 10 -20 0 -25 5 -25 25 0 21 5 25 30 25 17 0 30 5 30 10 0 11 -73
14 -83 3z"/>
<path d="M3383 3740 c0 -36 2 -50 4 -32 2 17 2 47 0 65 -2 17 -4 3 -4 -33z"/>
<path d="M4570 3725 c0 -60 3 -75 15 -75 12 0 15 15 15 75 0 60 -3 75 -15 75
-12 0 -15 -15 -15 -75z"/>
<path d="M8522 3640 c0 -19 2 -27 5 -17 2 9 2 25 0 35 -3 9 -5 1 -5 -18z"/>
<path d="M3377 3641 c-4 -17 -3 -21 5 -13 5 5 8 16 6 23 -3 8 -7 3 -11 -10z"/>
<path d="M1900 3633 c0 -6 8 -17 18 -24 16 -13 16 -13 2 6 -8 11 -16 22 -17
24 -2 2 -3 0 -3 -6z"/>
<path d="M2003 3593 c37 -2 96 -2 130 0 34 2 4 3 -68 3 -71 0 -99 -1 -62 -3z"/>
<path d="M2388 3593 c7 -3 16 -2 19 1 4 3 -2 6 -13 5 -11 0 -14 -3 -6 -6z"/>
<path d="M2682 3593 c37 -2 100 -2 140 0 40 1 10 3 -67 3 -77 0 -110 -1 -73
-3z"/>
<path d="M3108 3593 c6 -2 18 -2 25 0 6 3 1 5 -13 5 -14 0 -19 -2 -12 -5z"/>
<path d="M3293 3593 c9 -2 23 -2 30 0 6 3 -1 5 -18 5 -16 0 -22 -2 -12 -5z"/>
<path d="M6998 3563 c17 -2 47 -2 65 0 17 2 3 4 -33 4 -36 0 -50 -2 -32 -4z"/>
<path d="M8177 3018 c-35 -99 -40 -118 -30 -118 5 0 21 37 37 83 15 45 30 88
33 95 2 6 0 12 -5 12 -6 0 -21 -33 -35 -72z"/>
<path d="M6408 3069 c-29 -17 -22 -56 13 -74 41 -22 36 -51 -10 -48 -31 1 -32
0 -17 -15 24 -24 70 -5 74 30 2 20 -4 30 -27 44 -39 23 -43 59 -6 52 28 -6 34
6 9 16 -19 7 -15 8 -36 -5z"/>
<path d="M6810 3006 c0 -84 17 -114 22 -39 3 40 6 48 23 48 16 0 21 -8 23 -40
5 -59 22 -69 22 -13 0 53 -21 82 -51 73 -15 -5 -19 -1 -19 19 0 14 -4 26 -10
26 -6 0 -10 -31 -10 -74z"/>
<path d="M8073 3053 c4 -3 2 -12 -4 -20 -9 -9 -8 -13 0 -13 6 0 11 -18 11 -45
0 -46 16 -65 41 -49 9 5 6 10 -9 15 -28 10 -31 63 -4 78 9 6 11 11 5 11 -7 0
-13 7 -13 15 0 8 -7 15 -17 15 -9 0 -13 -3 -10 -7z"/>
<path d="M6548 3000 l-16 -45 -16 38 c-25 57 -38 44 -15 -15 11 -29 18 -62 14
-75 -3 -13 -1 -23 4 -23 12 0 54 125 49 147 -3 12 -10 2 -20 -27z"/>
<path d="M6623 3033 c-21 -4 -23 -10 -23 -59 0 -34 4 -53 10 -49 6 3 10 24 10
45 0 72 49 59 51 -14 l1 -41 10 38 c8 30 7 42 -6 62 -9 14 -20 24 -24 24 -4
-1 -17 -4 -29 -6z"/>
<path d="M6732 3024 c-26 -18 -30 -65 -6 -88 17 -18 24 -19 48 -10 25 10 19
20 -11 19 -25 0 -28 3 -28 35 0 32 2 35 28 33 24 -2 27 0 17 13 -16 18 -20 18
-48 -2z"/>
<path d="M6953 3033 c-21 -4 -23 -10 -23 -61 0 -61 16 -62 22 -2 2 24 10 38
25 46 19 9 22 27 4 23 -3 -1 -16 -4 -28 -6z"/>
<path d="M7997 3028 c-25 -13 -21 -43 8 -56 34 -16 31 -32 -6 -32 -17 0 -28
-4 -24 -10 9 -14 48 -13 63 2 20 20 14 37 -18 53 -32 17 -31 40 1 32 11 -3 19
-2 19 3 0 13 -25 18 -43 8z"/>
<path d="M8341 3024 c-29 -21 -29 -79 0 -94 12 -7 32 -9 47 -4 27 7 27 8 -8
13 -22 4 -36 12 -38 24 -3 14 4 17 33 17 32 0 36 3 33 21 -4 30 -40 42 -67 23z
m47 -21 c2 -8 -6 -13 -22 -13 -25 0 -33 10 -19 24 10 10 36 3 41 -11z"/>
<path d="M8448 3029 c-25 -14 -22 -36 7 -55 32 -21 32 -38 0 -31 -16 3 -24 0
-22 -7 6 -18 49 -13 61 7 9 15 6 22 -17 41 -29 24 -27 36 7 36 17 0 18 2 6 10
-18 12 -21 12 -42 -1z"/>
<path d="M8661 3023 c-25 -17 -29 -74 -6 -93 22 -18 64 -4 75 25 20 53 -26 99
-69 68z m44 -43 c0 -39 -27 -54 -43 -23 -14 25 3 65 25 61 13 -2 18 -13 18
-38z"/>
<path d="M8800 3030 c-7 -4 -19 -6 -27 -3 -10 4 -13 -8 -13 -51 0 -31 5 -56
10 -56 6 0 10 17 10 39 0 39 20 68 40 56 5 -3 10 -26 10 -51 0 -24 5 -44 10
-44 6 0 10 22 10 50 0 52 -21 78 -50 60z"/>
<path d="M8893 3033 c-21 -8 -14 -42 12 -59 29 -19 23 -38 -12 -31 -15 3 -22
0 -20 -7 2 -6 15 -12 30 -14 34 -4 54 29 31 52 -8 9 -20 16 -25 16 -5 0 -9 7
-9 16 0 11 6 15 20 11 24 -6 27 8 4 17 -9 3 -16 6 -17 5 -1 0 -8 -3 -14 -6z"/>
<path d="M7010 2974 c0 -34 4 -53 10 -49 6 3 10 22 10 42 0 22 7 41 18 49 15
12 14 13 -10 14 -27 0 -28 -2 -28 -56z"/>
<path d="M7092 3018 c-20 -20 -15 -76 8 -88 42 -22 90 22 73 67 -12 33 -57 45
-81 21z m60 -23 c20 -44 -29 -77 -52 -35 -8 14 -8 26 0 40 15 27 38 25 52 -5z"/>
<path d="M7200 2986 c0 -50 14 -66 55 -62 29 3 30 5 31 55 2 61 -14 69 -18 9
-2 -35 -7 -43 -23 -43 -16 0 -21 8 -23 43 -4 55 -22 54 -22 -2z"/>
<path d="M7313 3013 c-4 -11 3 -23 20 -37 34 -27 34 -40 2 -33 -16 3 -24 0
-22 -7 6 -18 49 -13 61 7 9 15 6 22 -16 38 -34 25 -35 36 -5 42 19 4 18 4 -6
6 -17 1 -30 -5 -34 -16z"/>
<path d="M7450 2979 c0 -26 5 -51 10 -54 6 -4 10 10 10 34 0 29 6 44 21 55 21
14 21 15 -10 14 -30 -1 -31 -2 -31 -49z"/>
<path d="M7530 3010 c-24 -45 15 -99 60 -85 29 9 24 23 -6 17 -16 -3 -29 1
-34 9 -13 20 -2 29 31 29 26 0 30 3 27 23 -4 32 -62 37 -78 7z m58 -7 c2 -8
-6 -13 -22 -13 -19 0 -24 4 -19 15 6 18 34 16 41 -2z"/>
<path d="M7641 3011 c-25 -45 6 -100 48 -86 18 5 21 2 21 -22 0 -16 4 -23 8
-17 4 7 6 41 4 76 l-4 64 -33 2 c-25 2 -37 -3 -44 -17z m54 -32 c0 -24 -5 -35
-17 -37 -22 -4 -35 42 -18 63 20 24 35 12 35 -26z"/>
<path d="M7753 2985 c6 -56 8 -58 52 -60 l35 -1 0 53 c0 63 -18 71 -22 11 -2
-35 -7 -43 -23 -43 -16 0 -21 8 -23 43 -2 23 -8 42 -14 42 -7 0 -9 -17 -5 -45z"/>
<path d="M7882 3018 c-7 -7 -12 -27 -12 -45 0 -26 6 -36 24 -45 14 -6 33 -7
43 -3 15 7 13 9 -11 14 -42 9 -43 27 -1 35 39 8 40 9 25 37 -12 21 -50 25 -68
7z m56 -15 c2 -8 -6 -13 -22 -13 -25 0 -33 10 -19 24 10 10 36 3 41 -11z"/>
<path d="M8250 2972 c0 -33 4 -51 10 -47 6 3 10 24 10 46 0 28 4 39 15 39 8 0
15 4 15 9 0 5 -11 8 -25 7 -23 -1 -25 -5 -25 -54z"/>
<path d="M8528 2954 c2 -42 8 -72 13 -69 5 4 9 14 9 25 0 13 5 17 19 13 29 -7
57 40 45 75 -8 23 -16 27 -49 28 l-40 2 3 -74z m62 51 c17 -21 4 -67 -18 -63
-18 3 -28 39 -18 64 7 18 20 18 36 -1z"/>
<path d="M8970 3004 c-19 -50 23 -98 68 -78 13 6 11 8 -13 13 -17 4 -31 14
-33 23 -3 15 2 17 26 12 35 -7 47 7 32 36 -17 31 -68 27 -80 -6z m68 -1 c2 -8
-6 -13 -22 -13 -25 0 -33 10 -19 24 10 10 36 3 41 -11z"/>
<path d="M1230 2925 c0 -43 4 -75 10 -75 6 0 10 18 10 40 0 33 3 40 20 40 17
0 20 -7 20 -40 0 -22 5 -40 10 -40 6 0 10 17 10 39 0 41 -20 67 -45 57 -11 -4
-15 2 -15 24 0 17 -4 30 -10 30 -6 0 -10 -32 -10 -75z"/>
<path d="M2090 2971 c0 -25 -3 -28 -21 -24 -37 10 -64 -48 -39 -87 5 -8 25
-15 44 -15 l36 -2 0 79 c0 45 -4 78 -10 78 -5 0 -10 -13 -10 -29z m-2 -75 c-2
-23 -8 -31 -23 -31 -23 0 -33 38 -15 60 19 23 41 6 38 -29z"/>
<path d="M755 2978 c-2 -7 -14 -39 -26 -71 -21 -58 -21 -88 1 -48 14 26 65 29
79 4 21 -38 17 -5 -7 60 -24 65 -38 81 -47 55z m30 -55 c5 -20 3 -23 -18 -23
-24 0 -25 2 -14 30 12 31 20 29 32 -7z"/>
<path d="M2249 2963 c-2 -46 4 -99 13 -110 12 -15 38 -17 38 -3 0 6 -7 10 -15
10 -23 0 -21 77 3 83 16 4 16 5 0 6 -10 0 -18 8 -18 16 0 21 -20 19 -21 -2z"/>
<path d="M2560 2968 c0 -10 -5 -18 -12 -18 -9 0 -9 -3 0 -12 7 -7 12 -29 12
-49 0 -39 23 -60 44 -39 7 7 5 10 -7 10 -13 0 -17 9 -17 41 0 22 4 38 9 34 5
-3 12 -1 16 5 3 5 1 10 -6 10 -6 0 -18 8 -25 18 -13 16 -13 16 -14 0z"/>
<path d="M843 2933 c-4 -11 3 -24 22 -39 25 -19 27 -24 13 -29 -10 -4 -22 -4
-28 0 -5 3 -10 2 -10 -3 0 -13 27 -23 45 -16 22 9 19 51 -5 59 -11 3 -20 13
-20 21 0 11 6 13 20 9 11 -4 20 -2 20 4 0 18 -50 13 -57 -6z"/>
<path d="M920 2941 c0 -5 7 -26 16 -46 9 -21 14 -49 11 -62 -12 -62 29 6 53
90 13 40 -5 33 -22 -10 l-15 -38 -17 38 c-16 35 -26 47 -26 28z"/>
<path d="M1032 2890 c1 -48 2 -50 5 -13 7 74 53 85 53 12 0 -21 5 -39 10 -39
12 0 13 70 2 88 -5 7 -23 11 -40 10 l-32 -2 2 -56z"/>
<path d="M1145 2930 c-35 -39 10 -106 51 -75 18 13 17 14 -11 12 -24 -2 -31 2
-33 21 -5 31 16 54 41 46 13 -4 17 -2 13 5 -11 17 -41 13 -61 -9z"/>
<path d="M1345 2940 c-4 -6 3 -9 16 -7 30 3 35 -19 6 -27 -51 -12 -34 -68 17
-59 22 5 26 11 26 38 0 19 -3 40 -6 49 -7 18 -49 22 -59 6z m42 -65 c-7 -16
-37 -21 -37 -5 0 10 32 31 39 25 2 -2 1 -11 -2 -20z"/>
<path d="M1440 2892 c0 -33 4 -51 10 -47 6 3 10 23 10 45 0 24 5 40 14 43 21
8 34 -12 39 -58 3 -28 4 -24 3 15 l-1 55 -37 0 -38 1 0 -54z"/>
<path d="M1550 2893 c0 -29 5 -53 10 -53 6 0 10 17 10 39 0 77 44 73 53 -4 3
-28 4 -24 3 15 l-1 55 -37 0 -38 1 0 -53z"/>
<path d="M1672 2938 c-27 -27 -4 -98 32 -98 41 0 64 61 36 95 -15 18 -51 20
-68 3z m60 -23 c9 -21 9 -29 -4 -42 -23 -23 -48 -9 -48 26 0 26 9 38 33 40 4
1 13 -10 19 -24z"/>
<path d="M1781 2909 c-1 -52 11 -68 51 -66 27 2 28 4 28 55 0 28 -4 52 -10 52
-5 0 -10 -18 -10 -40 0 -27 -5 -43 -15 -47 -22 -8 -28 1 -36 50 l-6 42 -2 -46z"/>
<path d="M1897 2943 c-16 -15 -6 -44 19 -53 31 -12 21 -34 -12 -27 -28 5 -32
-9 -5 -18 49 -15 69 31 26 59 -28 19 -24 41 6 33 11 -3 17 -1 13 4 -6 10 -38
12 -47 2z"/>
<path d="M2145 2941 c-3 -6 7 -9 21 -8 15 1 29 -4 31 -10 3 -7 -2 -13 -10 -13
-8 0 -24 -8 -36 -17 -19 -15 -20 -21 -9 -36 10 -13 21 -16 46 -11 29 6 32 10
32 43 0 20 -5 42 -12 49 -14 14 -54 16 -63 3z m55 -60 c0 -6 -5 -13 -10 -16
-15 -9 -43 3 -35 15 8 13 45 13 45 1z"/>
<path d="M2320 2941 c0 -6 10 -10 21 -8 31 3 35 -21 6 -32 -14 -6 -28 -15 -32
-21 -11 -18 15 -39 46 -37 29 2 30 3 27 52 -3 48 -4 50 -35 53 -19 2 -33 -1
-33 -7z m50 -66 c0 -8 -9 -15 -20 -15 -20 0 -26 11 -13 23 12 13 33 7 33 -8z"/>
<path d="M2477 2943 c-15 -14 -6 -40 19 -51 30 -15 23 -32 -14 -32 -23 -1 -25
-2 -9 -11 24 -14 57 -2 57 22 0 11 -11 24 -25 31 -30 14 -27 34 4 31 13 -2 20
1 16 7 -7 11 -38 13 -48 3z"/>
<path d="M2631 2890 c1 -58 4 -58 14 3 4 23 11 37 20 37 8 0 15 4 15 9 0 5
-11 8 -25 7 -24 -1 -25 -4 -24 -56z"/>
<path d="M2713 2938 c-21 -27 -23 -51 -8 -74 16 -25 58 -33 70 -14 4 6 -6 10
-23 10 -17 0 -32 6 -36 15 -4 12 3 15 29 15 27 0 35 4 35 18 0 36 -46 57 -67
30z m45 -16 c2 -7 -7 -12 -23 -12 -24 0 -26 2 -15 15 14 17 31 16 38 -3z"/>
<path d="M2815 2940 c-5 -9 -1 -10 13 -6 12 4 23 2 28 -6 4 -6 2 -14 -4 -16
-6 -2 -22 -12 -34 -22 -19 -15 -20 -20 -9 -33 7 -9 25 -15 42 -14 29 2 30 3
27 52 -3 46 -5 50 -30 53 -14 2 -29 -2 -33 -8z m49 -65 c-6 -16 -44 -21 -44
-7 0 14 12 22 31 22 12 0 16 -5 13 -15z"/>
<path d="M2910 2899 c0 -60 18 -74 22 -17 2 35 7 43 23 43 16 0 21 -9 26 -45
6 -44 6 -44 7 -8 2 37 26 73 43 63 5 -4 9 -26 9 -51 0 -28 4 -43 10 -39 14 9
12 81 -2 93 -7 5 -41 9 -75 9 l-63 0 0 -48z"/>
<path d="M3085 2933 c-4 -12 2 -24 19 -38 33 -26 33 -35 0 -35 -14 0 -23 -4
-19 -10 9 -14 41 -12 54 4 15 18 4 44 -20 51 -24 8 -19 31 5 29 9 -1 16 2 16
7 0 17 -48 9 -55 -8z"/>
</g>
</svg>
