<?xml version="1.0" standalone="no"?>
<!DOCTYPE svg PUBLIC "-//W3C//DTD SVG 20010904//EN"
 "http://www.w3.org/TR/2001/REC-SVG-20010904/DTD/svg10.dtd">
<svg version="1.0" xmlns="http://www.w3.org/2000/svg"
 width="1024.000000pt" height="1024.000000pt" viewBox="0 0 1024.000000 1024.000000"
 preserveAspectRatio="xMidYMid meet">

<g transform="translate(0.000000,1024.000000) scale(0.100000,-0.100000)"
fill="#000000" stroke="none">
<path d="M5343 6793 c169 -2 445 -2 615 0 169 1 30 2 -308 2 -338 0 -477 -1
-307 -2z"/>
<path d="M6358 6793 c18 -2 45 -2 60 0 15 2 0 4 -33 4 -33 0 -45 -2 -27 -4z"/>
<path d="M4989 6773 c-13 -16 -12 -17 4 -4 9 7 17 15 17 17 0 8 -8 3 -21 -13z"/>
<path d="M5192 6623 c-13 -25 -4 -43 25 -54 36 -13 27 -45 -12 -41 -23 3 -27
0 -19 -8 6 -6 24 -10 40 -8 22 2 30 9 32 28 2 19 -5 29 -29 43 -26 15 -29 20
-18 33 6 8 18 13 26 10 7 -3 13 -1 13 4 0 17 -49 11 -58 -7z"/>
<path d="M5280 6575 l0 -65 35 0 c19 0 35 5 35 10 0 6 -3 9 -7 9 -27 -4 -43 3
-43 21 0 15 7 20 27 20 14 0 23 3 19 7 -4 4 -15 8 -24 8 -9 0 -18 8 -20 17 -2
12 7 20 30 27 l33 9 -42 1 -43 1 0 -65z"/>
<path d="M5380 6575 c0 -75 17 -89 22 -17 l3 47 25 -44 c38 -68 50 -64 50 16
0 47 -3 63 -10 53 -5 -8 -10 -31 -10 -50 l0 -35 -27 48 c-38 67 -53 62 -53
-18z"/>
<path d="M5517 6633 c-17 -16 -5 -49 24 -66 27 -15 29 -20 18 -33 -8 -10 -21
-13 -38 -9 -20 5 -23 4 -15 -5 6 -6 24 -10 40 -8 43 5 46 47 4 71 -25 15 -29
21 -19 33 7 9 20 12 32 8 13 -4 17 -2 13 5 -8 12 -49 15 -59 4z"/>
<path d="M5616 6624 c-18 -18 -21 -66 -6 -95 13 -23 72 -26 90 -4 16 20 17 80
1 99 -17 20 -65 21 -85 0z m61 -2 c40 -25 7 -121 -34 -96 -25 15 -30 74 -7 91
20 15 25 15 41 5z"/>
<path d="M5740 6575 c0 -37 4 -65 10 -65 6 0 10 14 10 30 0 39 15 38 36 -2 10
-18 19 -28 21 -21 2 7 -1 21 -7 32 -8 15 -7 26 2 40 16 26 -5 51 -43 51 -29 0
-29 0 -29 -65z m58 28 c-5 -26 -38 -29 -38 -4 0 15 6 21 21 21 14 0 19 -5 17
-17z"/>
<path d="M5900 6575 l0 -65 29 0 c39 0 61 24 61 64 0 39 -26 66 -63 66 -26 0
-27 -1 -27 -65z m71 19 c10 -29 -11 -68 -39 -72 -20 -3 -22 1 -22 48 0 50 1
51 26 48 16 -2 30 -11 35 -24z"/>
<path d="M6043 6623 c-3 -10 -14 -39 -24 -65 -10 -27 -15 -48 -10 -48 5 0 11
7 15 15 3 9 18 15 36 15 20 0 30 -5 30 -15 0 -8 5 -15 10 -15 14 0 13 11 -11
74 -23 58 -35 69 -46 39z m30 -43 c4 -15 0 -20 -15 -20 -14 0 -18 5 -14 16 3
9 6 20 6 25 0 17 17 1 23 -21z"/>
<path d="M6110 6630 c0 -5 9 -10 20 -10 16 0 20 -8 23 -57 l3 -58 2 58 c2 50
5 57 22 57 11 0 20 5 20 10 0 6 -20 10 -45 10 -25 0 -45 -4 -45 -10z"/>
<path d="M6237 6633 c-12 -22 -38 -115 -33 -120 3 -3 8 2 12 11 8 20 60 22 68
1 3 -8 9 -15 14 -15 5 0 -1 28 -13 62 -21 59 -37 79 -48 61z m26 -53 c4 -15 0
-20 -15 -20 -14 0 -18 5 -14 16 3 9 6 20 6 25 0 17 17 1 23 -21z"/>
<path d="M6542 6610 c0 -19 2 -27 5 -17 2 9 2 25 0 35 -3 9 -5 1 -5 -18z"/>
<path d="M1811 6572 c-14 -26 -14 -92 -1 -128 15 -39 21 -25 9 22 -8 29 -7 53
0 80 12 43 8 56 -8 26z"/>
<path d="M2206 6532 c-4 -35 -5 -66 -2 -69 13 -13 17 7 14 68 l-3 64 -9 -63z"/>
<path d="M3430 6564 c13 -33 13 -86 0 -119 -6 -16 -6 -24 0 -20 21 13 32 79
21 123 -7 23 -16 42 -21 42 -6 0 -6 -10 0 -26z"/>
<path d="M2347 6562 c-21 -23 -22 -76 -1 -96 19 -20 35 -20 60 -1 18 14 17 14
-13 9 -40 -8 -62 24 -44 63 10 22 16 24 43 19 26 -5 29 -4 18 9 -17 20 -43 19
-63 -3z"/>
<path d="M2991 6518 l-1 -68 30 0 c17 0 30 5 30 10 0 6 -11 10 -24 10 -22 0
-24 3 -20 33 3 17 1 43 -5 57 -8 21 -10 13 -10 -42z"/>
<path d="M3073 6515 c0 -38 2 -53 4 -32 2 20 2 52 0 70 -2 17 -4 1 -4 -38z"/>
<path d="M3110 6510 c0 -60 0 -60 29 -60 39 0 61 24 61 64 0 41 -15 56 -57 56
l-33 0 0 -60z m70 30 c14 -26 5 -57 -22 -71 -28 -15 -36 -2 -30 49 3 33 8 42
23 42 10 0 23 -9 29 -20z"/>
<path d="M3245 6558 c-25 -70 -34 -102 -30 -106 2 -3 7 3 11 12 4 9 17 16 34
16 17 0 30 -7 34 -16 4 -9 9 -15 12 -12 2 3 -5 31 -16 62 -21 54 -36 69 -45
44z m28 -38 c4 -15 0 -20 -15 -20 -14 0 -18 5 -14 16 3 9 6 20 6 25 0 17 17 1
23 -21z"/>
<path d="M3331 6508 c1 -35 3 -54 6 -43 10 47 12 49 33 30 11 -10 20 -24 20
-32 0 -7 5 -13 10 -13 14 0 12 13 -4 35 -10 14 -11 24 -3 36 16 26 1 49 -33
49 l-30 0 1 -62z m54 32 c0 -8 -10 -16 -22 -18 -18 -3 -23 2 -23 18 0 16 5 21
23 18 12 -2 22 -10 22 -18z"/>
<path d="M6543 6525 c0 -22 2 -30 4 -17 2 12 2 30 0 40 -3 9 -5 -1 -4 -23z"/>
<path d="M2123 6543 c-21 -4 -23 -10 -23 -64 0 -33 4 -59 10 -59 6 0 10 9 10
20 0 13 5 18 15 14 22 -9 45 14 45 45 0 25 -17 53 -29 50 -4 -1 -16 -4 -28 -6z
m37 -44 c0 -24 -4 -30 -17 -27 -11 2 -19 14 -21 31 -3 22 1 27 17 27 17 0 21
-6 21 -31z"/>
<path d="M2606 6543 c-3 -4 -24 -6 -46 -5 l-40 3 1 -48 c1 -26 3 -39 6 -28 2
11 6 30 9 43 8 40 34 27 34 -18 0 -22 5 -40 10 -40 6 0 10 18 10 41 0 33 3 40
18 37 11 -2 19 -16 23 -43 l6 -40 2 41 c1 40 -18 72 -33 57z"/>
<path d="M2676 6537 c-12 -9 -17 -23 -14 -41 4 -34 28 -52 54 -41 16 7 15 9
-10 14 -38 8 -36 25 4 31 30 5 30 6 15 28 -19 26 -25 27 -49 9z m39 -17 c4 -6
-5 -10 -20 -10 -15 0 -24 4 -20 10 3 6 12 10 20 10 8 0 17 -4 20 -10z"/>
<path d="M2778 6542 c-14 -3 -18 -13 -16 -50 1 -40 2 -42 5 -12 2 19 11 41 20
47 19 15 15 21 -9 15z"/>
<path d="M1855 6520 c-12 -37 3 -60 38 -59 30 2 31 2 5 6 -39 6 -37 33 2 33
32 0 37 9 18 28 -19 19 -56 14 -63 -8z m55 0 c0 -5 -9 -10 -20 -10 -11 0 -20
5 -20 10 0 6 9 10 20 10 11 0 20 -4 20 -10z"/>
<path d="M1957 6533 c-14 -13 -7 -33 11 -33 24 0 32 8 25 26 -5 15 -25 19 -36
7z m23 -13 c0 -5 -5 -10 -11 -10 -5 0 -7 5 -4 10 3 6 8 10 11 10 2 0 4 -4 4
-10z"/>
<path d="M2440 6534 c8 -3 22 -8 30 -11 11 -4 8 -8 -10 -12 -18 -5 -25 -14
-25 -31 0 -20 5 -25 28 -26 27 -1 28 1 25 40 -3 38 -5 41 -33 43 -16 1 -23 0
-15 -3z m30 -64 c-9 -6 -19 -5 -25 1 -6 6 -5 13 5 19 9 6 19 5 25 -1 6 -6 5
-13 -5 -19z"/>
<path d="M2833 6533 c34 -5 35 -19 1 -27 -19 -5 -25 -12 -22 -29 2 -17 9 -22
32 -20 37 3 40 6 32 48 -6 32 -10 35 -39 34 -30 -2 -30 -2 -4 -6z m25 -55 c-3
-7 -11 -13 -18 -13 -7 0 -15 6 -17 13 -3 7 4 12 17 12 13 0 20 -5 18 -12z"/>
<path d="M1955 6470 c3 -5 17 -10 31 -10 13 0 24 5 24 10 0 6 -14 10 -31 10
-17 0 -28 -4 -24 -10z"/>
<path d="M2905 6465 c-5 -11 -10 -24 -13 -30 -3 -5 3 -3 13 7 9 9 15 22 12 30
-3 9 -7 7 -12 -7z"/>
<path d="M2040 6460 c0 -5 5 -10 10 -10 6 0 10 5 10 10 0 6 -4 10 -10 10 -5 0
-10 -4 -10 -10z"/>
<path d="M2245 6459 c-11 -17 1 -21 15 -4 8 9 8 15 2 15 -6 0 -14 -5 -17 -11z"/>
<path d="M5171 6392 c-14 -26 -14 -102 -1 -138 16 -42 22 -22 8 29 -9 35 -9
54 0 83 13 43 9 56 -7 26z"/>
<path d="M5530 6340 c0 -40 4 -70 10 -70 6 0 10 30 10 70 0 40 -4 70 -10 70
-6 0 -10 -30 -10 -70z"/>
<path d="M5670 6371 c-14 -26 -13 -74 2 -89 14 -14 64 -16 73 -2 4 6 -5 7 -24
4 -23 -5 -32 -2 -40 14 -6 12 -11 27 -11 36 0 23 30 47 51 41 11 -4 19 -2 19
4 0 20 -59 12 -70 -8z"/>
<path d="M5211 6338 c-13 -35 2 -63 35 -65 27 -2 27 -1 5 5 -37 11 -38 32 -2
32 32 0 41 16 19 38 -19 19 -48 14 -57 -10z m47 -6 c2 -7 -6 -12 -17 -12 -21
0 -27 11 -14 24 9 9 26 2 31 -12z"/>
<path d="M5311 6346 c-7 -8 -11 -27 -9 -43 2 -23 8 -29 36 -31 17 -2 32 1 32
5 0 5 -12 9 -27 8 -14 0 -28 6 -30 13 -3 8 6 12 26 12 32 0 41 16 19 38 -16
16 -33 15 -47 -2z m39 -11 c11 -13 8 -15 -15 -15 -23 0 -26 2 -15 15 7 8 14
15 15 15 1 0 8 -7 15 -15z"/>
<path d="M5447 6353 c-3 -5 -5 -31 -6 -60 -1 -55 15 -72 53 -57 26 10 19 43
-11 50 -25 7 -25 8 -6 15 11 4 23 19 25 33 5 23 2 26 -23 26 -15 0 -30 -3 -32
-7z m39 -14 c8 -14 -11 -33 -25 -25 -11 7 -4 36 9 36 5 0 12 -5 16 -11z m9
-79 c-3 -5 -15 -10 -26 -10 -10 0 -19 5 -19 10 0 6 12 10 26 10 14 0 23 -4 19
-10z"/>
<path d="M5765 6351 c-4 -7 2 -10 16 -8 29 3 36 -21 7 -25 -15 -2 -24 -11 -26
-25 -3 -20 1 -23 30 -23 l34 0 -5 43 c-5 33 -10 43 -28 45 -11 2 -24 -2 -28
-7z m45 -51 c0 -12 -28 -25 -36 -17 -9 9 6 27 22 27 8 0 14 -5 14 -10z"/>
<path d="M5851 6311 c2 -34 3 -38 6 -16 9 62 43 69 43 9 0 -46 18 -44 22 4 4
52 31 50 39 -3 l7 -40 -2 45 -1 45 -57 1 -58 1 1 -46z"/>
<path d="M5999 6339 c-16 -31 3 -69 35 -69 14 0 27 4 31 9 3 6 -7 9 -21 8 -15
-1 -29 4 -31 11 -3 8 6 12 26 12 32 0 41 16 19 38 -19 19 -46 14 -59 -9z m51
-4 c0 -8 -9 -15 -20 -15 -20 0 -26 11 -13 23 12 13 33 7 33 -8z"/>
<path d="M6090 6315 c0 -25 5 -45 10 -45 6 0 10 16 10 35 0 22 6 38 18 44 14
9 13 10 -10 11 -26 0 -28 -3 -28 -45z"/>
<path d="M6155 6350 c-4 -7 2 -9 19 -4 20 5 26 2 26 -9 0 -9 -10 -17 -22 -19
-15 -2 -23 -10 -23 -23 0 -15 8 -21 33 -23 l33 -3 -3 43 c-3 38 -6 43 -30 46
-14 2 -29 -2 -33 -8z m45 -55 c0 -8 -6 -15 -14 -15 -17 0 -28 14 -19 24 12 12
33 6 33 -9z"/>
<path d="M5396 6281 c-4 -7 -5 -15 -2 -18 9 -9 19 4 14 18 -4 11 -6 11 -12 0z"/>
<path d="M5577 6269 c-4 -16 -3 -18 9 -8 7 6 11 15 8 20 -8 13 -11 11 -17 -12z"/>
<path d="M6247 6277 c-11 -29 -9 -43 4 -30 6 6 9 19 7 29 -3 18 -4 18 -11 1z"/>
<path d="M6544 6170 c0 -52 1 -74 3 -47 2 26 2 68 0 95 -2 26 -3 4 -3 -48z"/>
<path d="M5970 6134 c13 -33 13 -90 0 -115 -7 -12 -7 -19 -1 -19 19 0 33 77
21 120 -6 22 -15 40 -20 40 -6 0 -6 -10 0 -26z"/>
<path d="M5520 6090 l0 -60 30 0 c17 0 30 5 30 10 0 6 -8 10 -17 8 -15 -2 -19
6 -21 50 -4 72 -22 66 -22 -8z"/>
<path d="M5600 6090 c0 -33 4 -60 10 -60 6 0 10 27 10 60 0 33 -4 60 -10 60
-6 0 -10 -27 -10 -60z"/>
<path d="M5640 6090 c0 -58 1 -60 26 -60 45 0 64 17 64 58 0 47 -14 62 -57 62
l-33 0 0 -60z m70 29 c18 -33 4 -69 -25 -69 -23 0 -25 4 -25 45 0 38 3 45 20
45 10 0 24 -9 30 -21z"/>
<path d="M5763 6090 c-12 -33 -18 -60 -13 -60 4 0 10 7 14 15 3 8 17 15 31 15
14 0 28 -7 31 -15 4 -8 10 -15 14 -15 5 0 -1 27 -13 60 -12 33 -26 60 -32 60
-5 0 -20 -27 -32 -60z m46 -2 c1 -5 -6 -8 -14 -8 -16 0 -19 9 -8 36 6 16 7 16
14 -2 4 -10 8 -22 8 -26z"/>
<path d="M5860 6096 c0 -30 5 -58 10 -61 6 -4 10 5 10 19 0 34 23 34 39 0 6
-15 14 -24 17 -21 3 3 1 15 -5 26 -9 15 -8 26 1 40 16 26 -5 51 -43 51 -28 0
-29 -1 -29 -54z m58 21 c2 -12 -3 -17 -17 -17 -15 0 -21 6 -21 21 0 25 33 22
38 -4z"/>
<path d="M768 6073 c57 -2 147 -2 200 0 53 1 7 3 -103 3 -110 0 -154 -2 -97
-3z"/>
<path d="M1468 6073 c34 -2 90 -2 125 0 34 2 6 3 -63 3 -69 0 -97 -1 -62 -3z"/>
<path d="M2203 6073 c9 -2 23 -2 30 0 6 3 -1 5 -18 5 -16 0 -22 -2 -12 -5z"/>
<path d="M2268 6073 c12 -2 32 -2 45 0 12 2 2 4 -23 4 -25 0 -35 -2 -22 -4z"/>
<path d="M7838 6073 c7 -3 16 -2 19 1 4 3 -2 6 -13 5 -11 0 -14 -3 -6 -6z"/>
<path d="M8128 6073 c7 -3 16 -2 19 1 4 3 -2 6 -13 5 -11 0 -14 -3 -6 -6z"/>
<path d="M8483 6073 c26 -2 68 -2 95 0 26 2 4 3 -48 3 -52 0 -74 -1 -47 -3z"/>
<path d="M9533 6073 c15 -2 39 -2 55 0 15 2 2 4 -28 4 -30 0 -43 -2 -27 -4z"/>
<path d="M1258 5829 c-31 -17 -22 -57 17 -80 19 -12 35 -25 35 -29 0 -17 -34
-29 -53 -18 -21 11 -33 5 -22 -11 9 -16 71 -13 85 4 16 20 5 62 -19 70 -11 3
-25 13 -32 21 -10 13 -10 17 2 25 8 4 22 6 32 3 9 -3 17 -1 17 5 0 6 -4 11 -9
11 -5 0 -15 2 -23 5 -7 2 -21 0 -30 -6z"/>
<path d="M1923 5827 c-5 -6 -20 -39 -32 -72 -22 -60 -22 -61 -56 -57 l-35 4 0
64 c0 36 -4 64 -10 64 -6 0 -10 -32 -10 -75 l0 -75 54 0 c45 0 54 3 59 20 7
29 60 27 80 -2 28 -43 29 -9 2 61 -29 76 -37 88 -52 68z m26 -74 c1 -7 -8 -13
-19 -13 -23 0 -23 0 -9 37 10 26 12 27 19 8 5 -11 9 -26 9 -32z"/>
<path d="M7840 5833 c-35 -13 -50 -37 -50 -79 0 -51 19 -74 63 -74 38 0 50 7
66 37 32 61 -20 137 -79 116z m41 -23 c36 -20 18 -120 -22 -120 -18 0 -49 41
-49 65 0 14 9 34 20 45 23 23 25 23 51 10z"/>
<path d="M9444 5825 c-4 -8 -4 -25 -1 -36 3 -12 -1 -32 -9 -45 -12 -18 -13
-27 -4 -45 11 -19 18 -21 60 -16 29 4 52 1 59 -6 8 -8 11 -7 11 5 0 9 -4 19
-9 22 -4 3 -6 18 -4 33 4 26 3 26 -10 11 -8 -10 -17 -18 -20 -18 -12 0 -17 33
-6 46 6 7 9 23 7 36 -2 18 -10 24 -36 26 -22 2 -34 -2 -38 -13z m56 -19 c0
-20 -19 -31 -32 -18 -6 6 -7 15 -4 21 10 16 36 13 36 -3z m0 -98 c0 -12 -38
-10 -45 2 -4 6 -4 18 -1 27 6 14 9 14 26 -2 11 -10 20 -22 20 -27z"/>
<path d="M1360 5755 c0 -43 4 -75 10 -75 6 0 10 32 10 75 0 43 -4 75 -10 75
-6 0 -10 -32 -10 -75z"/>
<path d="M1420 5755 c0 -88 18 -102 22 -17 l3 57 21 -55 c12 -30 27 -55 35
-55 8 0 23 25 34 55 l20 55 3 -57 c4 -85 22 -71 22 18 0 65 -2 75 -17 72 -10
-2 -26 -26 -39 -58 l-22 -55 -15 36 c-8 20 -18 45 -21 57 -4 13 -16 22 -27 22
-17 0 -19 -8 -19 -75z"/>
<path d="M1620 5772 c0 -71 15 -95 60 -94 46 1 53 13 58 87 6 84 -13 86 -22 3
-7 -75 -27 -95 -60 -62 -11 10 -16 34 -16 70 0 30 -4 54 -10 54 -6 0 -10 -26
-10 -58z"/>
<path d="M2000 5820 c0 -5 9 -10 20 -10 18 0 20 -7 20 -65 0 -51 3 -65 15 -65
12 0 15 14 15 65 0 58 2 65 20 65 11 0 20 5 20 10 0 6 -25 10 -55 10 -30 0
-55 -4 -55 -10z"/>
<path d="M2130 5755 c0 -60 3 -75 15 -75 12 0 15 15 15 75 0 60 -3 75 -15 75
-12 0 -15 -15 -15 -75z"/>
<path d="M2207 5812 c-19 -21 -22 -83 -7 -113 8 -14 21 -19 55 -19 40 0 46 3
61 31 17 33 13 81 -7 106 -17 20 -83 16 -102 -5z m77 -8 c42 -42 -1 -132 -49
-100 -28 19 -32 69 -6 95 25 25 35 26 55 5z"/>
<path d="M2357 5823 c-9 -8 -9 -90 -1 -120 11 -42 24 -24 24 35 l1 57 30 -57
c42 -82 59 -77 59 17 0 43 -4 75 -10 75 -5 0 -10 -26 -10 -57 l-1 -58 -30 58
c-27 52 -45 67 -62 50z"/>
<path d="M7670 5755 c0 -43 4 -75 10 -75 6 0 10 14 10 30 0 21 5 30 16 30 9 0
21 -13 27 -30 6 -16 17 -30 24 -30 17 0 16 5 -3 42 -11 22 -13 33 -5 41 16 16
13 54 -5 61 -9 3 -29 6 -45 6 l-29 0 0 -75z m65 35 c0 -8 -10 -16 -22 -18 -18
-3 -23 2 -23 18 0 16 5 21 23 18 12 -2 22 -10 22 -18z"/>
<path d="M7960 5754 l0 -75 41 3 c49 4 71 27 52 57 -6 10 -9 28 -6 40 8 30
-14 51 -53 51 l-34 0 0 -76z m65 36 c0 -8 -10 -16 -22 -18 -18 -3 -23 2 -23
18 0 16 5 21 23 18 12 -2 22 -10 22 -18z m5 -55 c16 -19 4 -35 -26 -35 -19 0
-24 5 -24 25 0 29 29 35 50 10z"/>
<path d="M8096 5808 c-37 -52 -9 -128 47 -128 38 0 50 7 66 37 30 57 1 113
-59 113 -29 0 -43 -6 -54 -22z m75 2 c14 -8 19 -21 19 -48 0 -44 -14 -62 -47
-62 -43 0 -54 87 -14 110 20 12 19 12 42 0z"/>
<path d="M8230 5820 c0 -5 9 -10 20 -10 18 0 20 -7 20 -65 0 -51 3 -65 15 -65
12 0 15 14 15 65 0 58 2 65 20 65 11 0 20 5 20 10 0 6 -25 10 -55 10 -30 0
-55 -4 -55 -10z"/>
<path d="M8431 5816 c-22 -26 -25 -83 -7 -111 14 -21 24 -26 53 -23 20 2 38 8
40 14 2 6 -7 9 -25 6 -37 -5 -54 17 -50 65 3 37 4 38 41 38 46 0 43 19 -5 23
-21 2 -39 -3 -47 -12z"/>
<path d="M8557 5812 c-22 -24 -22 -95 -1 -116 16 -16 71 -21 90 -8 34 22 41
94 13 129 -17 20 -83 16 -102 -5z m85 -16 c12 -17 9 -71 -4 -84 -7 -7 -21 -12
-33 -12 -29 0 -45 19 -45 52 0 52 56 82 82 44z"/>
<path d="M8710 5755 c0 -43 4 -75 10 -75 6 0 10 26 10 58 l1 57 30 -57 c42
-82 59 -77 59 17 0 43 -4 75 -10 75 -5 0 -10 -26 -10 -57 l-1 -58 -31 58 c-43
80 -58 76 -58 -18z"/>
<path d="M8840 5820 c0 -5 11 -10 25 -10 24 0 25 -2 25 -65 0 -37 4 -65 10
-65 6 0 10 28 10 65 0 58 2 65 19 65 11 0 23 5 26 10 4 6 -17 10 -54 10 -34 0
-61 -4 -61 -10z"/>
<path d="M8980 5755 c0 -43 4 -75 10 -75 6 0 10 13 10 29 0 44 17 47 41 7 12
-20 25 -36 31 -36 10 0 1 38 -14 57 -5 7 -5 14 2 18 5 3 10 19 10 35 0 30 -14
40 -61 40 l-29 0 0 -75z m67 39 c6 -16 -12 -34 -34 -34 -7 0 -13 11 -13 25 0
18 5 25 20 25 11 0 23 -7 27 -16z"/>
<path d="M9116 5808 c-22 -31 -20 -91 2 -111 10 -10 35 -17 55 -17 42 0 67 28
67 75 0 49 -25 75 -70 75 -29 0 -43 -6 -54 -22z m92 -50 c3 -39 0 -49 -17 -58
-44 -23 -82 30 -61 85 8 22 15 26 42 23 32 -3 33 -5 36 -50z"/>
<path d="M9270 5755 l0 -75 41 0 c24 0 38 4 34 10 -3 6 -17 10 -31 10 -23 0
-24 3 -24 65 0 37 -4 65 -10 65 -6 0 -10 -32 -10 -75z"/>
<path d="M1060 5470 l0 -80 45 0 c25 0 45 5 45 10 0 6 -13 10 -29 10 -23 0
-30 5 -33 25 -5 22 -2 25 23 25 37 0 38 18 2 22 -20 2 -28 9 -28 23 0 15 8 21
33 23 48 5 39 22 -13 22 l-45 0 0 -80z"/>
<path d="M1180 5470 c0 -91 17 -109 22 -22 l3 57 30 -55 c17 -30 38 -56 48
-58 16 -3 18 4 15 72 -3 83 -23 103 -23 23 0 -26 -2 -47 -5 -47 -3 0 -18 25
-33 55 -40 82 -57 74 -57 -25z"/>
<path d="M1322 5539 c3 -8 15 -45 28 -82 28 -88 45 -86 77 7 26 78 27 86 14
86 -5 0 -19 -30 -32 -67 l-22 -68 -22 64 c-12 36 -27 67 -35 69 -8 3 -11 -1
-8 -9z"/>
<path d="M1478 5540 c-7 -20 4 -150 13 -150 5 0 9 36 9 80 0 44 -4 80 -9 80
-5 0 -11 -4 -13 -10z"/>
<path d="M1540 5470 c0 -47 4 -80 10 -80 6 0 10 16 10 35 0 25 4 35 16 35 8 0
22 -16 30 -35 8 -19 19 -35 24 -35 14 0 12 20 -4 49 -12 21 -12 28 1 47 13 20
12 25 -6 43 -12 12 -34 21 -51 21 l-30 0 0 -80z m59 51 c19 -12 6 -41 -19 -41
-15 0 -20 7 -20 25 0 26 14 31 39 16z"/>
<path d="M1685 5525 c-50 -49 -24 -135 41 -135 47 0 74 29 74 80 0 74 -66 105
-115 55z m81 -20 c22 -34 11 -83 -22 -91 -34 -9 -54 12 -54 57 0 58 46 79 76
34z"/>
<path d="M1837 5543 c-11 -10 -8 -153 3 -153 5 0 10 26 12 58 l3 57 33 -57
c47 -83 62 -78 62 22 0 47 -4 80 -10 80 -9 0 -12 -18 -13 -87 -1 -35 -11 -28
-40 32 -26 53 -36 63 -50 48z"/>
<path d="M1990 5470 c0 -91 17 -109 22 -22 l3 57 20 -54 c11 -30 25 -56 31
-58 6 -2 22 25 35 59 l24 63 3 -62 c4 -91 22 -77 22 17 0 101 -19 108 -57 23
-28 -63 -24 -64 -57 20 -8 20 -22 37 -30 37 -13 0 -16 -14 -16 -80z"/>
<path d="M2190 5470 l0 -80 45 0 c25 0 45 5 45 10 0 6 -16 10 -35 10 -31 0
-35 3 -35 25 0 21 5 25 30 25 17 0 30 5 30 10 0 6 -13 10 -30 10 -25 0 -30 4
-30 25 0 22 4 25 35 25 19 0 35 5 35 10 0 6 -20 10 -45 10 l-45 0 0 -80z"/>
<path d="M2316 5543 c-10 -10 -7 -153 4 -153 5 0 10 26 12 58 l3 57 30 -55
c17 -30 38 -56 48 -58 16 -3 18 4 15 72 -3 85 -20 102 -28 29 l-5 -48 -25 48
c-24 45 -42 62 -54 50z"/>
<path d="M2450 5541 c0 -5 10 -11 23 -13 20 -3 22 -9 25 -70 4 -90 22 -88 22
2 0 68 1 70 26 70 14 0 23 4 19 10 -8 13 -115 13 -115 1z"/>
<path d="M2587 5529 c-20 -28 -13 -44 29 -70 41 -25 39 -44 -4 -44 -19 0 -32
-5 -32 -12 0 -17 62 -17 78 -1 23 23 14 55 -24 77 -40 24 -40 47 0 44 35 -3
29 21 -6 25 -18 2 -31 -4 -41 -19z"/>
<path d="M8236 5542 c-16 -27 -52 -143 -45 -147 4 -3 13 4 19 15 7 13 21 20
40 20 19 0 33 -7 40 -20 6 -11 15 -18 20 -15 12 8 -42 155 -57 155 -6 0 -14
-4 -17 -8z m28 -54 c9 -35 8 -38 -14 -38 -11 0 -20 3 -20 8 0 19 13 52 20 52
4 0 10 -10 14 -22z"/>
<path d="M8340 5476 c0 -41 5 -78 10 -81 6 -4 10 23 10 74 0 47 -4 81 -10 81
-6 0 -10 -31 -10 -74z"/>
<path d="M8460 5470 l0 -80 41 0 c46 0 51 23 6 28 -26 3 -27 5 -27 68 0 36 -4
64 -10 64 -6 0 -10 -33 -10 -80z"/>
<path d="M8566 5528 c-23 -32 -20 -94 4 -118 64 -64 158 42 104 118 -11 16
-25 22 -54 22 -29 0 -43 -6 -54 -22z m88 -14 c3 -9 6 -31 6 -50 0 -27 -5 -37
-26 -46 -23 -11 -29 -10 -45 11 -22 26 -23 39 -9 75 7 20 17 26 39 26 17 0 31
-6 35 -16z"/>
<path d="M8731 5531 c-30 -30 -28 -85 4 -116 25 -25 42 -29 83 -19 18 5 22 13
22 45 0 37 -2 39 -30 39 -16 0 -30 -4 -30 -10 0 -5 7 -10 15 -10 19 0 20 -39
1 -46 -43 -17 -79 50 -51 93 13 20 23 24 53 21 20 -2 37 2 37 7 0 6 -19 11
-42 13 -32 2 -47 -2 -62 -17z"/>
<path d="M8872 5473 c2 -44 7 -78 13 -78 6 0 11 34 13 78 2 65 0 77 -13 77
-13 0 -15 -12 -13 -77z"/>
<path d="M8947 5532 c-24 -27 -22 -97 3 -122 24 -24 49 -25 76 -5 18 15 17 16
-12 10 -38 -7 -64 14 -64 54 0 44 21 65 60 58 28 -6 31 -5 20 8 -17 21 -63 19
-83 -3z"/>
<path d="M8689 5203 c-13 -16 -12 -17 4 -4 9 7 17 15 17 17 0 8 -8 3 -21 -13z"/>
<path d="M7753 5075 c-1 -42 1 -51 6 -30 3 17 13 30 21 30 8 0 18 -13 22 -30
6 -29 6 -29 5 5 -2 28 -7 36 -24 38 -13 2 -23 12 -26 25 -2 12 -4 -5 -4 -38z"/>
<path d="M7943 5075 c0 -33 2 -45 4 -27 2 18 2 45 0 60 -2 15 -4 0 -4 -33z"/>
<path d="M5103 5112 c-31 -5 -53 -39 -53 -84 0 -47 28 -78 70 -78 44 0 70 31
70 83 0 58 -33 88 -87 79z m61 -60 c10 -36 -13 -82 -41 -82 -48 0 -70 73 -33
110 27 27 62 13 74 -28z"/>
<path d="M5408 5109 c-28 -16 -21 -29 11 -23 16 3 32 1 35 -5 8 -13 -15 -60
-43 -85 -35 -32 -27 -46 29 -46 28 0 50 5 50 10 0 6 -13 10 -30 10 -36 0 -37
4 -5 42 30 36 33 83 6 98 -24 12 -31 12 -53 -1z"/>
<path d="M7557 5113 c-11 -10 -8 -81 3 -88 6 -3 10 3 10 14 0 12 6 21 13 21
23 0 37 21 26 42 -10 18 -39 24 -52 11z m38 -23 c0 -7 -6 -15 -12 -17 -8 -3
-13 4 -13 17 0 13 5 20 13 18 6 -3 12 -11 12 -18z"/>
<path d="M7860 5076 c0 -25 5 -48 10 -51 6 -3 10 3 10 13 0 12 9 22 21 25 32
9 22 51 -13 55 -27 3 -28 2 -28 -42z m45 14 c0 -7 -6 -15 -12 -17 -8 -3 -13 4
-13 17 0 13 5 20 13 18 6 -3 12 -11 12 -18z"/>
<path d="M9227 5113 c-11 -10 -8 -93 3 -93 6 0 10 9 10 20 0 13 7 20 20 20 14
0 20 7 20 24 0 28 -35 47 -53 29z m43 -28 c0 -8 -7 -15 -15 -15 -8 0 -15 7
-15 15 0 8 7 15 15 15 8 0 15 -7 15 -15z"/>
<path d="M1167 5103 c18 -2 50 -2 70 0 21 2 7 4 -32 4 -38 0 -55 -2 -38 -4z"/>
<path d="M2483 5103 c42 -2 112 -2 155 0 42 1 7 3 -78 3 -85 0 -120 -2 -77 -3z"/>
<path d="M4920 5030 c0 -61 3 -81 13 -78 6 3 13 19 15 36 4 42 24 41 45 -3 9
-19 21 -35 27 -35 14 0 12 16 -5 50 -13 24 -13 33 -3 50 20 31 -1 54 -51 58
l-41 3 0 -81z m75 50 c8 -13 -13 -40 -31 -40 -8 0 -14 10 -14 25 0 18 5 25 19
25 11 0 23 -5 26 -10z"/>
<path d="M5220 5095 c-17 -21 -3 -53 31 -71 41 -21 35 -50 -9 -47 -42 1 -38
-21 4 -25 20 -2 36 4 48 17 23 26 13 57 -25 76 -46 24 -38 51 15 45 11 -1 15
3 12 9 -10 16 -62 13 -76 -4z"/>
<path d="M7708 5104 c-3 -5 -3 -26 -1 -46 4 -27 10 -38 22 -38 13 0 13 2 2 9
-8 5 -12 19 -9 34 5 26 -6 56 -14 41z"/>
<path d="M8058 5092 c-13 -2 -18 -13 -18 -38 0 -19 5 -34 10 -34 6 0 10 14 10
30 0 42 27 40 33 -2 l4 -33 1 36 c2 38 -9 49 -40 41z"/>
<path d="M8138 5092 c-14 -2 -18 -13 -17 -40 1 -36 2 -36 8 -7 9 43 39 45 44
3 l4 -33 1 36 c2 38 -9 49 -40 41z"/>
<path d="M7648 5083 c12 -2 22 -8 22 -13 0 -5 -10 -10 -22 -12 -33 -4 -29 -33
5 -34 24 -1 27 2 27 32 0 31 -3 34 -27 33 -24 -2 -25 -2 -5 -6z m17 -43 c-3
-5 -10 -10 -16 -10 -5 0 -9 5 -9 10 0 6 7 10 16 10 8 0 12 -4 9 -10z"/>
<path d="M7995 5080 c19 -9 19 -9 -3 -16 -24 -7 -27 -35 -4 -40 7 -1 8 0 2 3
-15 7 -12 23 4 23 8 0 17 -8 19 -17 3 -10 5 -1 6 20 1 32 -2 37 -21 36 -22 0
-22 -1 -3 -9z"/>
<path d="M8207 5063 c-3 -16 -1 -32 4 -37 5 -6 9 4 9 27 0 44 -6 48 -13 10z"/>
<path d="M8242 5053 c1 -37 1 -37 5 -5 5 40 33 44 33 5 0 -20 3 -24 9 -14 15
23 1 51 -25 51 -21 0 -24 -4 -22 -37z"/>
<path d="M8319 5055 c-1 -19 -2 -41 -3 -47 -2 -20 48 -16 52 5 3 12 -3 17 -19
17 -22 0 -22 1 -4 14 28 20 28 46 -1 46 -20 0 -24 -5 -25 -35z m31 15 c0 -5
-4 -10 -10 -10 -5 0 -10 5 -10 10 0 6 5 10 10 10 6 0 10 -4 10 -10z m2 -62
c-9 -9 -15 -9 -24 0 -9 9 -7 12 12 12 19 0 21 -3 12 -12z"/>
<path d="M9304 5076 c-15 -38 23 -84 48 -57 11 12 10 13 -4 8 -9 -3 -22 1 -28
9 -10 12 -8 14 15 14 20 0 26 4 23 18 -4 22 -46 29 -54 8z m41 -6 c3 -5 -3
-10 -15 -10 -12 0 -18 5 -15 10 3 6 10 10 15 10 5 0 12 -4 15 -10z"/>
<path d="M9381 5045 c2 -33 3 -35 6 -10 2 17 11 35 20 42 13 10 13 12 -6 10
-18 -1 -21 -7 -20 -42z"/>
<path d="M9440 5075 c-25 -30 15 -85 42 -56 8 8 8 11 1 7 -14 -7 -43 3 -43 15
0 5 14 9 30 9 28 0 30 2 20 20 -13 24 -33 26 -50 5z m35 -5 c3 -5 -3 -10 -15
-10 -12 0 -18 5 -15 10 3 6 10 10 15 10 5 0 12 -4 15 -10z"/>
<path d="M9510 5056 c0 -19 4 -38 10 -41 6 -4 7 6 4 24 -5 26 -3 32 17 40 24
10 24 10 -3 10 -25 1 -28 -2 -28 -33z"/>
<path d="M9570 5060 c0 -5 14 -10 32 -10 36 0 35 4 -4 14 -17 4 -28 2 -28 -4z"/>
<path d="M623 4995 c0 -38 2 -53 4 -32 2 20 2 52 0 70 -2 17 -4 1 -4 -38z"/>
<path d="M7364 4925 c0 -66 1 -92 3 -57 2 34 2 88 0 120 -2 31 -3 3 -3 -63z"/>
<path d="M1300 4951 c0 -51 3 -59 21 -64 11 -3 27 -3 35 0 35 13 22 83 -16 83
-13 0 -20 7 -20 20 0 11 -4 20 -10 20 -6 0 -10 -26 -10 -59z m58 -24 c3 -22
-1 -27 -17 -27 -15 0 -21 6 -21 23 0 46 33 49 38 4z"/>
<path d="M2515 5000 c-3 -5 -1 -10 4 -10 6 0 11 5 11 10 0 6 -2 10 -4 10 -3 0
-8 -4 -11 -10z"/>
<path d="M960 4980 c-17 -32 -8 -73 18 -86 36 -18 62 -7 62 27 0 24 -4 29 -22
28 -13 0 -17 -3 -10 -6 6 -2 12 -14 12 -25 0 -14 -6 -19 -21 -16 -27 4 -39 35
-28 67 8 20 14 22 39 17 17 -3 30 -1 30 4 0 6 -16 10 -35 10 -24 0 -37 -6 -45
-20z"/>
<path d="M2312 4953 c-2 -43 2 -54 18 -63 14 -8 26 -8 40 0 16 9 20 20 18 63
l-1 52 -6 -50 c-5 -45 -8 -50 -31 -50 -23 0 -26 5 -31 50 l-6 50 -1 -52z"/>
<path d="M2559 4980 c-5 -71 11 -114 33 -92 9 9 8 12 -5 12 -12 0 -17 8 -17
30 0 43 31 40 53 -6 13 -27 15 -40 6 -56 -8 -16 -8 -19 2 -16 11 4 21 26 43
96 4 12 3 22 -2 22 -5 0 -13 -15 -17 -32 l-7 -33 -14 33 c-8 19 -21 32 -32 32
-10 0 -23 5 -30 12 -9 9 -12 9 -13 -2z"/>
<path d="M1075 4963 c33 -8 38 -20 11 -27 -27 -7 -37 -41 -13 -49 31 -10 47 5
47 44 0 38 -1 39 -32 38 -22 -1 -26 -3 -13 -6z m30 -54 c-8 -12 -35 -12 -35 0
0 11 22 20 33 14 4 -2 5 -9 2 -14z"/>
<path d="M1158 4963 l23 -4 -21 -35 c-19 -30 -20 -35 -6 -40 9 -3 24 -3 34 2
15 7 14 8 -6 12 l-23 3 21 35 22 34 -34 -1 c-24 -1 -27 -3 -10 -6z"/>
<path d="M1222 4958 c-21 -21 -14 -57 13 -70 19 -9 28 -9 37 0 9 9 6 12 -15
12 -17 0 -27 5 -27 15 0 9 10 15 26 15 19 0 25 5 22 18 -4 21 -39 27 -56 10z
m43 -8 c3 -5 -3 -10 -15 -10 -12 0 -18 5 -15 10 3 6 10 10 15 10 5 0 12 -4 15
-10z"/>
<path d="M1400 4955 c-15 -18 -6 -61 14 -68 19 -7 56 20 56 42 0 37 -46 55
-70 26z m48 -28 c3 -22 -1 -27 -17 -27 -15 0 -21 6 -21 23 0 46 33 49 38 4z"/>
<path d="M2420 4923 c0 -27 4 -42 10 -38 6 3 10 19 10 35 0 31 18 50 30 31 4
-7 5 -23 3 -35 -3 -13 0 -27 7 -31 8 -5 10 6 8 37 -3 41 -4 43 -35 44 -32 1
-33 0 -33 -43z"/>
<path d="M2518 4933 c5 -59 10 -63 11 -10 1 26 -3 47 -7 47 -4 0 -6 -17 -4
-37z"/>
<path d="M7940 4925 c0 -16 -4 -23 -13 -19 -19 7 -39 -20 -35 -48 2 -17 10
-23 31 -24 26 -1 27 0 27 57 0 33 -2 59 -5 59 -3 0 -5 -11 -5 -25z m-2 -49 c2
-10 -1 -23 -7 -29 -16 -16 -34 6 -26 33 8 24 28 22 33 -4z"/>
<path d="M7781 4900 l-1 -45 -22 38 c-12 20 -26 37 -30 37 -4 0 -7 -24 -7 -52
2 -52 2 -52 8 -13 l6 40 25 -40 c24 -40 24 -40 28 -13 2 15 1 42 -1 60 -3 28
-4 25 -6 -12z"/>
<path d="M9503 4875 c0 -33 1 -52 4 -42 5 18 6 18 24 1 20 -18 27 -6 7 14 -8
8 -8 15 2 27 8 10 9 15 1 15 -6 0 -11 -4 -11 -10 0 -25 -19 -6 -23 23 -2 17
-4 5 -4 -28z"/>
<path d="M623 4880 c0 -25 2 -35 4 -22 2 12 2 32 0 45 -2 12 -4 2 -4 -23z"/>
<path d="M9247 4913 c-13 -13 -7 -38 13 -51 26 -16 25 -30 -2 -35 -20 -4 -19
-4 5 -6 34 -1 38 30 6 53 -23 16 -17 41 8 32 8 -3 11 -1 8 4 -7 11 -28 13 -38
3z"/>
<path d="M7822 4898 c-23 -23 -7 -68 25 -68 21 0 35 37 23 60 -12 23 -30 26
-48 8z m33 -28 c0 -27 -20 -38 -28 -15 -8 20 3 47 17 42 6 -2 11 -14 11 -27z"/>
<path d="M7982 4898 c-25 -25 -6 -68 30 -68 10 0 18 4 18 9 0 5 -9 7 -20 4
-14 -4 -20 0 -20 11 0 10 9 16 25 16 23 0 24 2 15 20 -12 23 -30 26 -48 8z
m33 -8 c3 -5 -1 -10 -10 -10 -9 0 -13 5 -10 10 3 6 8 10 10 10 2 0 7 -4 10
-10z"/>
<path d="M9309 4898 c-5 -51 20 -104 35 -79 4 6 2 11 -4 11 -6 0 -11 12 -10
28 3 41 1 52 -10 52 -5 0 -10 -6 -11 -12z"/>
<path d="M9446 4884 c-9 -8 -16 -19 -16 -24 0 -23 14 -40 34 -39 16 1 17 2 4
6 -11 3 -18 14 -18 28 0 14 7 25 18 27 11 2 13 6 5 11 -6 4 -19 0 -27 -9z"/>
<path d="M9383 4883 c23 -6 22 -19 -3 -26 -29 -8 -26 -37 5 -37 22 0 25 4 25
35 0 30 -3 35 -22 34 -17 -1 -19 -2 -5 -6z m17 -43 c0 -5 -7 -10 -15 -10 -8 0
-15 5 -15 10 0 6 7 10 15 10 8 0 15 -4 15 -10z"/>
<path d="M4680 4750 c0 -47 4 -80 10 -80 6 0 10 33 10 80 0 47 -4 80 -10 80
-6 0 -10 -33 -10 -80z"/>
<path d="M4746 4823 c-10 -11 -7 -153 4 -153 6 0 10 25 10 56 0 65 10 64 45
-7 39 -75 55 -66 55 31 0 91 -17 109 -22 23 l-3 -58 -30 52 c-29 51 -47 68
-59 56z"/>
<path d="M4880 4821 c0 -5 10 -11 23 -13 20 -3 22 -8 22 -71 0 -47 4 -67 13
-67 8 0 12 21 12 70 0 68 1 70 25 70 14 0 25 5 25 10 0 6 -27 10 -60 10 -33 0
-60 -4 -60 -9z"/>
<path d="M5014 4816 c-3 -7 -4 -42 -2 -77 l3 -64 43 -3 c25 -2 42 1 42 7 0 6
-13 11 -30 11 -25 0 -30 4 -30 25 0 20 5 25 25 25 14 0 25 5 25 10 0 6 -11 10
-25 10 -20 0 -25 5 -25 25 0 21 5 25 30 25 17 0 30 5 30 10 0 16 -80 12 -86
-4z"/>
<path d="M5137 4823 c-4 -3 -7 -39 -7 -80 0 -58 3 -73 15 -73 11 0 15 11 15
36 0 44 18 42 40 -4 22 -47 45 -43 25 5 -11 25 -12 40 -5 47 20 20 11 56 -16
66 -29 12 -58 13 -67 3z m60 -24 c16 -16 5 -39 -18 -39 -14 0 -19 7 -19 25 0
26 18 33 37 14z"/>
<path d="M5270 4750 c0 -47 4 -80 10 -80 6 0 10 16 10 35 0 32 2 35 31 35 17
0 28 4 24 10 -3 6 -17 10 -31 10 -19 0 -24 5 -24 25 0 21 5 25 30 25 17 0 30
5 30 10 0 6 -18 10 -40 10 l-40 0 0 -80z"/>
<path d="M5404 4813 c-4 -10 -18 -45 -30 -77 -28 -70 -28 -66 -10 -66 7 0 16
9 19 20 4 15 14 20 37 20 23 0 33 -5 37 -20 3 -11 12 -20 19 -20 18 0 18 3
-14 84 -28 72 -47 91 -58 59z m30 -49 c10 -26 7 -34 -15 -34 -15 0 -19 4 -15
16 3 9 6 20 6 25 0 15 17 10 24 -7z"/>
<path d="M5525 4805 c-29 -28 -33 -79 -9 -113 12 -18 24 -22 52 -20 19 2 37 8
39 14 2 6 -10 8 -31 6 -31 -4 -36 -1 -41 21 -16 64 14 115 55 90 11 -8 21 -9
25 -3 6 10 -26 30 -50 30 -9 0 -27 -11 -40 -25z"/>
<path d="M5640 4750 l0 -80 45 0 c25 0 45 5 45 10 0 6 -16 10 -35 10 -31 0
-35 3 -35 25 0 21 5 25 30 25 17 0 30 5 30 10 0 6 -13 10 -30 10 -25 0 -30 4
-30 25 0 22 4 25 36 25 21 0 33 4 29 10 -3 6 -24 10 -46 10 l-39 0 0 -80z"/>
<path d="M623 4780 c0 -25 2 -35 4 -22 2 12 2 32 0 45 -2 12 -4 2 -4 -23z"/>
<path d="M1223 4725 c0 -38 2 -53 4 -32 2 20 2 52 0 70 -2 17 -4 1 -4 -38z"/>
<path d="M2483 4725 c0 -38 2 -53 4 -32 2 20 2 52 0 70 -2 17 -4 1 -4 -38z"/>
<path d="M859 4764 c-11 -14 -10 -20 14 -40 34 -29 34 -44 0 -44 -20 0 -24 -3
-16 -11 15 -15 44 -8 57 14 9 15 6 22 -18 42 -28 23 -28 52 0 41 8 -3 14 -1
14 4 0 16 -36 11 -51 -6z"/>
<path d="M2143 4773 c-22 -8 -14 -42 12 -59 30 -20 18 -45 -18 -37 -17 5 -20
3 -10 -7 7 -8 22 -10 37 -6 35 9 34 39 -1 65 -23 17 -25 22 -14 30 8 5 21 7
29 3 10 -3 13 -1 8 6 -7 12 -22 14 -43 5z"/>
<path d="M2660 4769 c0 -5 5 -7 10 -4 6 3 10 8 10 11 0 2 -4 4 -10 4 -5 0 -10
-5 -10 -11z"/>
<path d="M1347 4757 c-9 -23 8 -90 23 -95 12 -4 13 -2 3 9 -15 15 -17 66 -4
71 5 2 3 8 -4 15 -10 9 -14 9 -18 0z"/>
<path d="M2600 4755 c-7 -9 -8 -15 0 -20 5 -3 10 -22 10 -41 0 -26 4 -34 18
-33 10 0 12 3 5 6 -15 5 -18 70 -4 75 5 2 3 8 -4 15 -10 10 -16 9 -25 -2z"/>
<path d="M8008 4763 c12 -2 30 -2 40 0 9 3 -1 5 -23 4 -22 0 -30 -2 -17 -4z"/>
<path d="M8093 4763 c9 -2 23 -2 30 0 6 3 -1 5 -18 5 -16 0 -22 -2 -12 -5z"/>
<path d="M943 4705 c0 -27 2 -38 4 -22 2 15 2 37 0 50 -2 12 -4 0 -4 -28z"/>
<path d="M981 4700 c2 -34 3 -38 6 -15 9 58 43 70 43 15 0 -43 18 -46 22 -3 4
49 28 57 28 9 0 -19 5 -38 11 -41 7 -5 9 8 7 37 l-3 43 -57 0 -58 1 1 -46z"/>
<path d="M1120 4716 c0 -38 12 -51 48 -51 20 -1 22 3 21 45 -2 34 -3 38 -6 15
-9 -62 -43 -69 -43 -9 0 19 -4 34 -10 34 -5 0 -10 -15 -10 -34z"/>
<path d="M1260 4741 c0 -5 9 -7 20 -4 29 8 25 -16 -6 -27 -37 -15 -28 -45 14
-45 28 -1 32 2 32 26 0 43 -10 59 -36 59 -13 0 -24 -4 -24 -9z m38 -53 c-6
-18 -28 -21 -28 -4 0 9 7 16 16 16 9 0 14 -5 12 -12z"/>
<path d="M1399 4729 c-8 -16 -8 -28 0 -45 18 -41 71 -25 71 21 0 44 -50 61
-71 24z m55 -12 c8 -12 7 -21 -6 -33 -20 -20 -38 -11 -38 20 0 39 23 46 44 13z"/>
<path d="M1490 4703 c0 -24 5 -43 10 -43 6 0 10 16 10 35 0 22 6 37 17 44 14
7 12 9 -10 8 -25 -2 -27 -5 -27 -44z"/>
<path d="M2213 4705 c0 -27 2 -38 4 -22 2 15 2 37 0 50 -2 12 -4 0 -4 -28z"/>
<path d="M2251 4701 c2 -34 3 -38 6 -16 10 64 42 69 44 7 l2 -37 6 35 c9 51
38 53 44 3 4 -34 4 -33 3 7 l-1 45 -52 1 -53 1 1 -46z"/>
<path d="M2394 4710 c1 -42 3 -45 29 -46 26 -1 27 1 26 45 l-2 46 -6 -40 c-4
-26 -11 -40 -21 -40 -10 0 -17 14 -21 40 l-7 40 2 -45z"/>
<path d="M2526 4741 c-4 -5 3 -7 14 -4 14 4 20 0 20 -11 0 -9 -8 -16 -19 -16
-21 0 -33 -21 -22 -38 4 -7 19 -11 34 -10 23 2 27 7 27 33 0 43 -37 74 -54 46z
m34 -56 c0 -8 -7 -15 -15 -15 -8 0 -15 7 -15 15 0 8 7 15 15 15 8 0 15 -7 15
-15z"/>
<path d="M2660 4705 c0 -27 2 -46 4 -44 8 8 10 78 3 85 -4 4 -7 -14 -7 -41z"/>
<path d="M2713 4743 c-7 -2 -13 -20 -13 -38 0 -25 5 -35 20 -40 26 -8 50 11
50 39 0 36 -25 53 -57 39z m47 -37 c0 -22 -22 -37 -37 -25 -17 14 -17 46 0 52
15 5 37 -11 37 -27z"/>
<path d="M2790 4704 c0 -24 5 -44 10 -44 6 0 10 15 10 34 0 33 14 55 27 42 3
-3 10 -23 14 -43 l7 -38 -1 45 c-2 43 -3 45 -34 47 -33 1 -33 1 -33 -43z"/>
<path d="M623 4660 c0 -41 2 -58 4 -37 2 20 2 54 0 75 -2 20 -4 3 -4 -38z"/>
<path d="M7478 4640 c-1 -28 0 -50 5 -50 4 0 7 17 7 38 l1 37 21 -40 21 -40
18 40 18 40 0 -37 c1 -57 21 -45 21 12 0 61 -22 69 -41 15 -16 -43 -23 -44
-39 -5 -19 47 -28 44 -32 -10z"/>
<path d="M8023 4635 c0 -33 2 -45 4 -27 2 18 2 45 0 60 -2 15 -4 0 -4 -33z"/>
<path d="M8130 4646 c0 -26 -5 -46 -12 -49 -7 -2 -10 -8 -5 -12 12 -14 24 7
32 51 4 26 2 44 -4 49 -7 4 -11 -9 -11 -39z"/>
<path d="M7698 4667 c-8 -23 7 -80 22 -85 12 -4 13 -2 3 9 -15 15 -17 56 -4
61 5 2 3 8 -4 15 -10 9 -14 9 -17 0z"/>
<path d="M7941 4633 c1 -40 2 -43 8 -19 8 38 25 40 29 4 3 -25 22 -41 22 -19
0 25 -21 61 -35 61 -9 0 -13 5 -10 10 3 6 1 10 -4 10 -7 0 -11 -20 -10 -47z"/>
<path d="M8349 4668 c-3 -32 4 -64 15 -76 12 -12 13 -3 7 81 -1 12 -21 8 -22
-5z"/>
<path d="M7617 4653 c-12 -11 -8 -50 7 -62 29 -24 65 14 46 50 -10 19 -40 26
-53 12z m41 -31 c3 -17 -2 -22 -17 -22 -14 0 -21 6 -21 18 0 38 33 41 38 4z"/>
<path d="M7753 4625 c0 -22 2 -30 4 -17 2 12 2 30 0 40 -3 9 -5 -1 -4 -23z"/>
<path d="M7787 4653 c-11 -11 -8 -48 5 -61 29 -29 68 10 48 48 -10 19 -40 27
-53 13z m41 -31 c3 -17 -2 -22 -17 -22 -14 0 -21 6 -21 18 0 38 33 41 38 4z"/>
<path d="M7860 4625 c0 -41 17 -47 22 -7 2 20 8 26 22 24 11 -2 15 1 11 7 -3
6 -17 11 -31 11 -21 0 -24 -5 -24 -35z"/>
<path d="M8165 4641 c-9 -28 5 -51 30 -51 29 0 39 14 31 46 -8 30 -51 34 -61
5z m50 -16 c0 -11 -8 -21 -17 -23 -14 -3 -18 3 -18 23 0 20 4 26 18 23 9 -2
17 -12 17 -23z"/>
<path d="M8243 4625 c0 -22 2 -30 4 -17 2 12 2 30 0 40 -3 9 -5 -1 -4 -23z"/>
<path d="M8272 4623 c1 -38 1 -38 5 -5 5 42 35 40 45 -3 6 -29 6 -29 5 5 -2
30 -6 35 -29 38 -26 3 -28 1 -26 -35z"/>
<path d="M8057 4593 c-4 -3 -7 -11 -7 -17 0 -6 5 -5 12 2 6 6 9 14 7 17 -3 3
-9 2 -12 -2z"/>
<path d="M8396 4583 c-6 -14 -5 -15 5 -6 7 7 10 15 7 18 -3 3 -9 -2 -12 -12z"/>
<path d="M623 4530 c0 -30 2 -43 4 -27 2 15 2 39 0 55 -2 15 -4 2 -4 -28z"/>
<path d="M7364 4460 c0 -63 1 -89 3 -57 2 31 2 83 0 115 -2 31 -3 5 -3 -58z"/>
<path d="M4194 4534 c-25 -37 -9 -78 31 -81 28 -2 28 -1 5 5 -18 6 -26 16 -28
36 -4 33 13 57 35 49 11 -4 14 -2 9 5 -12 20 -35 14 -52 -14z"/>
<path d="M5000 4549 c0 -5 5 -7 10 -4 6 3 10 8 10 11 0 2 -4 4 -10 4 -5 0 -10
-5 -10 -11z"/>
<path d="M5246 4514 c-3 -25 -4 -50 -1 -54 3 -5 23 -8 45 -7 24 1 36 5 31 10
-5 5 -7 16 -4 23 3 10 0 12 -10 8 -17 -6 -32 12 -17 21 5 3 10 15 10 26 0 13
-7 19 -24 19 -20 0 -24 -6 -30 -46z m42 24 c-6 -18 -28 -21 -28 -4 0 9 7 16
16 16 9 0 14 -5 12 -12z m-8 -72 c-13 -13 -35 7 -25 24 5 8 11 8 21 -1 10 -8
12 -15 4 -23z"/>
<path d="M5397 4542 c-20 -22 -22 -63 -5 -80 14 -14 54 -16 63 -2 4 6 13 5 24
-2 30 -19 53 -3 49 34 -2 26 -8 34 -26 36 -18 3 -26 -3 -35 -27 -14 -38 -45
-51 -64 -25 -17 24 -16 39 3 59 10 9 24 13 38 10 17 -5 18 -4 6 4 -22 15 -35
13 -53 -7z m118 -52 c0 -13 -6 -25 -12 -27 -16 -6 -27 21 -19 43 9 23 31 11
31 -16z"/>
<path d="M5821 4505 l1 -60 9 50 c5 30 4 54 -1 59 -7 7 -10 -12 -9 -49z"/>
<path d="M5890 4505 l0 -55 33 1 c23 1 26 3 10 6 -20 4 -23 11 -23 54 0 27 -4
49 -10 49 -5 0 -10 -25 -10 -55z"/>
<path d="M4948 4537 c-7 -22 7 -80 20 -85 11 -3 11 -1 0 17 -9 16 -10 25 -2
39 8 13 8 20 -1 29 -10 9 -14 9 -17 0z"/>
<path d="M5628 4538 c-6 -20 6 -81 17 -85 8 -2 11 35 6 90 -1 12 -19 8 -23 -5z"/>
<path d="M4283 4523 c-19 -7 -16 -62 3 -70 38 -14 67 32 39 61 -17 17 -22 18
-42 9z m35 -36 c2 -19 -1 -27 -13 -27 -19 0 -30 24 -21 46 9 23 31 11 34 -19z"/>
<path d="M4361 4486 c2 -41 2 -41 8 -8 8 43 25 46 29 5 2 -18 7 -33 12 -33 5
0 10 15 12 33 4 41 21 38 30 -5 6 -31 6 -31 5 7 l-2 40 -47 1 -48 0 1 -40z"/>
<path d="M4493 4523 c-8 -3 -13 -21 -12 -41 1 -38 3 -36 13 11 9 37 29 29 37
-14 l6 -34 2 32 c1 34 19 53 31 33 4 -7 5 -20 3 -30 -3 -10 0 -21 6 -24 7 -5
11 4 11 23 0 16 -6 33 -12 38 -15 9 -67 13 -85 6z"/>
<path d="M4613 4495 c2 -36 5 -40 30 -41 25 -1 27 1 26 40 l-2 41 -6 -35 c-4
-22 -12 -35 -21 -35 -9 0 -18 13 -22 35 l-6 35 1 -40z"/>
<path d="M4691 4486 l2 -41 6 35 c4 22 12 35 21 35 9 0 18 -13 22 -35 l6 -35
-1 40 c-2 36 -5 40 -29 41 -26 1 -28 -1 -27 -40z"/>
<path d="M4773 4490 c0 -25 2 -35 4 -22 2 12 2 32 0 45 -2 12 -4 2 -4 -23z"/>
<path d="M4812 4521 c-8 -5 -12 -21 -10 -37 2 -23 9 -30 28 -31 l25 -3 -23 10
c-31 13 -26 52 8 61 20 6 21 7 5 8 -11 0 -26 -3 -33 -8z"/>
<path d="M4876 4521 c-4 -5 3 -7 14 -4 26 7 26 -14 0 -22 -11 -3 -20 -15 -20
-26 0 -14 7 -19 30 -19 25 0 30 4 30 24 0 13 -3 31 -6 40 -7 17 -39 22 -48 7z
m34 -46 c0 -8 -7 -15 -15 -15 -26 0 -18 20 13 29 1 1 2 -6 2 -14z"/>
<path d="M5000 4491 c0 -23 3 -41 8 -41 11 0 13 68 2 75 -6 4 -10 -10 -10 -34z"/>
<path d="M5040 4515 c-24 -29 8 -75 44 -62 21 8 22 63 0 71 -23 9 -30 8 -44
-9z m45 -26 c0 -15 -7 -25 -17 -27 -13 -3 -18 3 -18 21 0 13 3 27 7 31 13 12
28 -1 28 -25z"/>
<path d="M5121 4486 c2 -29 3 -33 6 -14 2 14 11 32 18 38 16 13 20 8 29 -40 2
-14 3 -7 3 15 -2 36 -5 40 -29 41 -26 1 -28 -1 -27 -40z"/>
<path d="M5551 4486 l2 -41 6 35 c4 22 12 35 21 35 9 0 18 -13 22 -35 l6 -35
-1 40 c-2 36 -5 40 -29 41 -26 1 -28 -1 -27 -40z"/>
<path d="M5680 4488 c0 -21 5 -38 10 -38 6 0 10 13 10 28 0 15 5 33 11 39 9 9
7 12 -10 10 -17 -1 -21 -8 -21 -39z"/>
<path d="M5740 4515 c-7 -9 -10 -25 -6 -41 5 -20 12 -25 34 -22 19 2 28 9 30
26 6 43 -33 68 -58 37z m47 -39 c-4 -9 -13 -16 -21 -16 -19 0 -29 30 -15 47
11 12 14 12 27 -1 8 -8 12 -22 9 -30z"/>
<path d="M5965 4520 c-5 -9 -1 -10 14 -5 13 4 21 2 21 -5 0 -7 -9 -14 -20 -17
-11 -3 -20 -14 -20 -24 0 -15 7 -19 31 -19 29 0 30 2 27 38 -2 29 -8 38 -25
40 -11 2 -24 -2 -28 -8z m35 -45 c0 -8 -7 -15 -15 -15 -26 0 -18 20 13 29 1 1
2 -6 2 -14z"/>
<path d="M6030 4525 c0 -3 7 -21 15 -41 8 -19 11 -42 8 -52 -14 -39 13 3 29
45 20 54 16 73 -5 22 l-13 -34 -12 33 c-9 28 -22 43 -22 27z"/>
<path d="M6120 4516 c-6 -8 -10 -25 -8 -38 2 -18 10 -23 33 -25 18 -1 22 1 10
4 -33 8 -42 23 -14 23 33 0 41 8 28 31 -12 23 -32 24 -49 5z m35 -6 c3 -5 -3
-10 -15 -10 -12 0 -18 5 -15 10 3 6 10 10 15 10 5 0 12 -4 15 -10z"/>
<path d="M6203 4523 c-15 -6 -18 -73 -3 -73 6 0 10 13 10 28 0 15 5 33 12 40
12 12 3 15 -19 5z"/>
<path d="M7780 4500 c0 -5 5 -10 11 -10 5 0 7 5 4 10 -3 6 -8 10 -11 10 -2 0
-4 -4 -4 -10z"/>
<path d="M7467 4493 c-11 -10 -8 -93 3 -93 6 0 10 7 10 15 0 9 11 20 25 25 27
10 32 29 13 48 -13 13 -41 16 -51 5z m42 -16 c12 -15 5 -27 -16 -27 -7 0 -13
9 -13 20 0 23 13 26 29 7z"/>
<path d="M7728 4479 c-7 -22 4 -78 17 -83 10 -4 12 4 8 30 -4 23 -2 34 6 34 8
0 7 5 -3 15 -17 18 -23 19 -28 4z"/>
<path d="M7544 4443 c-5 -19 -2 -30 11 -39 36 -26 75 22 43 54 -21 21 -47 14
-54 -15z m50 1 c4 -9 1 -23 -5 -31 -10 -12 -14 -12 -26 0 -16 15 -7 47 12 47
7 0 16 -7 19 -16z"/>
<path d="M7624 4459 c-4 -7 3 -19 15 -28 24 -18 19 -33 -7 -24 -10 4 -13 2 -8
-5 10 -16 31 -15 46 2 9 12 7 17 -9 28 -26 16 -27 25 -3 31 13 4 12 5 -5 6
-12 0 -25 -4 -29 -10z"/>
<path d="M7691 4438 c-1 -21 4 -38 9 -38 12 0 12 27 0 55 -7 16 -9 13 -9 -17z"/>
<path d="M7780 4435 c0 -19 5 -35 10 -35 6 0 10 16 10 35 0 19 -4 35 -10 35
-5 0 -10 -16 -10 -35z"/>
<path d="M7821 4456 c-15 -18 -6 -52 16 -60 23 -9 44 13 41 43 -4 30 -38 40
-57 17z m47 -24 c3 -17 -2 -22 -17 -22 -16 0 -21 6 -21 26 0 33 33 30 38 -4z"/>
<path d="M7900 4435 c0 -19 5 -35 10 -35 6 0 10 14 10 30 0 42 27 40 33 -2 4
-32 4 -32 5 5 2 35 0 37 -28 37 -28 0 -30 -3 -30 -35z"/>
<path d="M7984 4459 c-4 -7 3 -19 15 -28 24 -18 19 -33 -7 -24 -13 5 -14 3 -5
-7 15 -16 43 -6 43 15 0 9 -7 18 -15 21 -20 8 -19 21 3 27 13 4 12 5 -5 6 -12
0 -25 -4 -29 -10z"/>
<path d="M7370 4336 c0 -2 8 -10 18 -17 15 -13 16 -12 3 4 -13 16 -21 21 -21
13z"/>
<path d="M9679 4323 c-13 -16 -12 -17 4 -4 16 13 21 21 13 21 -2 0 -10 -8 -17
-17z"/>
<path d="M622 4285 c0 -16 2 -22 5 -12 2 9 2 23 0 30 -3 6 -5 -1 -5 -18z"/>
<path d="M7578 4303 c83 -2 221 -2 305 0 83 1 15 3 -153 3 -168 0 -236 -2
-152 -3z"/>
<path d="M9851 4114 c0 -11 3 -14 6 -6 3 7 2 16 -1 19 -3 4 -6 -2 -5 -13z"/>
<path d="M9794 3998 l-19 -23 23 19 c12 11 22 21 22 23 0 8 -8 2 -26 -19z"/>
<path d="M9340 3555 c0 -17 -5 -25 -18 -25 -24 0 -42 -19 -42 -46 0 -26 15
-39 48 -39 21 -1 22 3 22 67 0 37 -2 68 -5 68 -3 0 -5 -11 -5 -25z m-5 -66 c0
-15 -7 -25 -17 -27 -13 -3 -18 3 -18 21 0 13 3 27 7 31 13 12 28 -1 28 -25z"/>
<path d="M6305 3557 c-22 -17 -26 -77 -6 -101 15 -18 66 -22 76 -6 4 6 -8 10
-29 10 -30 0 -37 4 -42 27 -9 35 7 58 40 58 14 -1 25 4 23 10 -6 16 -40 17
-62 2z"/>
<path d="M6406 3551 c-22 -24 -18 -89 6 -105 26 -16 70 4 80 36 21 62 -45 115
-86 69z m58 -7 c9 -8 16 -26 16 -39 0 -23 -23 -55 -40 -55 -16 0 -40 31 -40
51 0 16 32 59 44 59 3 0 12 -7 20 -16z"/>
<path d="M6520 3503 c0 -48 3 -64 10 -53 5 8 10 31 10 50 l1 35 25 -47 c13
-27 29 -48 34 -48 6 0 9 29 8 68 -2 66 -2 66 -5 13 l-4 -55 -30 52 c-16 29
-34 52 -39 52 -6 0 -10 -30 -10 -67z"/>
<path d="M6630 3560 c0 -5 9 -10 20 -10 16 0 20 -8 23 -57 l3 -58 2 58 c2 50
5 57 22 57 11 0 20 5 20 10 0 6 -20 10 -45 10 -25 0 -45 -4 -45 -10z"/>
<path d="M6740 3504 c0 -41 4 -63 10 -59 6 3 10 17 10 31 0 33 19 30 31 -6 6
-16 15 -30 21 -30 6 0 7 7 2 18 -4 9 -7 34 -6 54 1 28 -3 40 -18 48 -42 23
-50 14 -50 -56z m55 26 c0 -8 -8 -16 -17 -18 -13 -2 -18 3 -18 18 0 15 5 20
18 18 9 -2 17 -10 17 -18z"/>
<path d="M6863 3562 c-6 -4 -17 -20 -22 -36 -22 -56 27 -104 78 -76 29 15 30
94 2 110 -23 12 -41 13 -58 2z m58 -33 c12 -23 2 -66 -18 -73 -25 -10 -53 12
-53 44 0 54 47 73 71 29z"/>
<path d="M6972 3508 l-2 -68 33 1 c29 1 30 2 7 8 -22 6 -26 14 -31 66 l-6 60
-1 -67z"/>
<path d="M7107 3552 c-10 -10 -17 -33 -17 -50 0 -50 41 -77 80 -52 11 7 7 10
-17 10 -23 0 -36 6 -44 21 -16 32 3 69 36 69 15 0 24 4 20 10 -10 16 -40 12
-58 -8z"/>
<path d="M7207 3552 c-20 -22 -22 -83 -5 -100 16 -16 50 -15 73 2 13 9 19 26
19 51 0 58 -52 86 -87 47z m57 -8 c9 -8 16 -26 16 -39 0 -23 -23 -55 -40 -55
-17 0 -40 32 -40 55 0 23 23 55 40 55 5 0 16 -7 24 -16z"/>
<path d="M7321 3503 c1 -57 2 -63 9 -34 5 19 6 40 3 48 -3 7 -2 13 1 13 4 0
16 -21 28 -47 l21 -48 23 50 23 50 0 -47 c1 -27 6 -48 11 -48 13 0 13 117 0
125 -7 4 -20 -15 -33 -45 l-21 -51 -23 51 c-30 69 -43 64 -42 -17z"/>
<path d="M7482 3503 l1 -68 6 55 6 55 18 -52 c10 -29 22 -53 27 -53 5 0 17 24
27 53 l18 52 5 -55 c5 -48 6 -51 10 -20 6 44 0 100 -10 100 -4 0 -16 -20 -27
-45 -10 -25 -21 -45 -25 -45 -3 0 -13 19 -20 42 -23 68 -38 60 -36 -19z"/>
<path d="M7664 3554 c-4 -10 -13 -34 -20 -53 -17 -41 -18 -77 -2 -43 14 28 54
30 63 2 3 -11 10 -20 15 -20 10 0 -25 109 -40 124 -6 6 -12 2 -16 -10z m26
-51 c0 -7 -7 -13 -15 -13 -16 0 -19 9 -9 35 5 13 8 14 15 3 5 -7 9 -19 9 -25z"/>
<path d="M7752 3503 c2 -67 2 -67 5 -13 l4 55 27 -49 c39 -71 52 -71 52 3 0
33 -4 63 -10 66 -6 4 -10 -12 -10 -42 l0 -48 -27 48 c-14 26 -30 47 -35 47 -4
0 -7 -30 -6 -67z"/>
<path d="M7870 3503 c0 -63 0 -63 28 -63 37 0 62 28 62 68 0 36 -30 62 -68 59
-20 -1 -22 -6 -22 -64z m70 22 c12 -30 4 -52 -22 -66 -28 -15 -36 -2 -30 49 3
33 8 42 23 42 12 0 23 -10 29 -25z"/>
<path d="M7992 3558 c-19 -19 -14 -35 18 -58 25 -18 29 -25 19 -36 -7 -9 -20
-12 -32 -8 -13 4 -17 2 -13 -5 9 -15 39 -14 54 1 20 20 14 44 -14 57 -32 14
-29 47 4 44 14 -2 21 1 17 7 -8 14 -38 13 -53 -2z"/>
<path d="M8130 3546 c-14 -37 -12 -75 5 -111 16 -36 19 -24 5 25 -6 23 -6 48
0 70 12 41 5 53 -10 16z"/>
<path d="M8350 3504 c0 -41 4 -63 10 -59 6 3 10 33 10 66 0 33 -4 59 -10 59
-6 0 -10 -29 -10 -66z"/>
<path d="M10182 3539 c10 -29 7 -71 -7 -114 -7 -20 -6 -20 9 -1 23 28 19 146
-5 146 -4 0 -3 -14 3 -31z"/>
<path d="M8470 3506 c0 -66 20 -88 21 -24 l1 43 15 -37 c9 -21 20 -38 24 -38
5 0 17 19 27 43 l17 42 6 -45 6 -45 1 58 c1 31 -2 57 -7 57 -5 0 -18 -21 -29
-47 l-20 -46 -20 46 c-28 62 -42 60 -42 -7z"/>
<path d="M8943 3543 c-4 -11 3 -23 20 -37 34 -28 34 -43 0 -49 -27 -5 -27 -5
2 -3 41 2 46 36 10 60 -28 18 -24 41 6 33 11 -3 17 -1 13 4 -9 15 -44 10 -51
-8z"/>
<path d="M8706 3503 c7 -51 19 -72 31 -58 5 4 2 10 -4 12 -16 6 -17 63 -2 63
6 0 4 7 -5 15 -24 24 -28 18 -20 -32z"/>
<path d="M8177 3524 c-4 -4 -7 -20 -7 -35 0 -34 31 -55 58 -40 14 9 13 10 -10
11 -39 0 -45 19 -8 26 21 5 30 12 28 23 -3 16 -48 28 -61 15z m48 -14 c4 -6
-5 -10 -20 -10 -15 0 -24 4 -20 10 3 6 12 10 20 10 8 0 17 -4 20 -10z"/>
<path d="M8267 3523 c-11 -11 -8 -58 5 -71 15 -15 45 -15 54 0 5 8 2 9 -9 5
-20 -7 -47 1 -47 14 0 5 14 9 30 9 31 0 39 17 18 38 -13 13 -41 16 -51 5z m43
-13 c0 -5 -9 -10 -21 -10 -11 0 -17 5 -14 10 3 6 13 10 21 10 8 0 14 -4 14
-10z"/>
<path d="M8622 3518 c-30 -30 1 -93 36 -71 11 6 17 23 17 44 0 26 -4 35 -20
37 -11 1 -26 -3 -33 -10z m43 -29 c0 -15 -7 -25 -18 -27 -22 -4 -33 24 -17 43
18 21 35 13 35 -16z"/>
<path d="M8762 3518 c-18 -18 -14 -56 7 -68 25 -13 48 -4 55 22 11 44 -32 76
-62 46z m46 -31 c3 -21 -1 -27 -16 -27 -24 0 -36 28 -21 47 17 20 33 11 37
-20z"/>
<path d="M8848 3488 c-2 -21 0 -38 4 -38 5 0 8 12 8 26 0 15 8 33 18 40 16 12
15 13 -5 11 -17 -1 -22 -9 -25 -39z"/>
<path d="M9028 3473 c-1 -29 0 -53 5 -53 4 0 7 7 7 15 0 8 6 12 13 9 20 -7 39
21 35 53 -2 23 -8 28 -30 29 -25 1 -26 -2 -30 -53z m47 16 c0 -15 -7 -25 -17
-27 -13 -3 -18 3 -18 21 0 13 3 27 7 31 13 12 28 -1 28 -25z"/>
<path d="M9120 3516 c-27 -33 14 -98 42 -67 7 8 8 11 2 8 -6 -4 -20 0 -30 8
-19 14 -19 14 1 15 11 0 26 4 34 9 12 8 12 12 2 25 -17 20 -35 20 -51 2z m40
-6 c0 -5 -7 -10 -15 -10 -8 0 -15 5 -15 10 0 6 7 10 15 10 8 0 15 -4 15 -10z"/>
<path d="M9200 3509 c-20 -36 34 -93 55 -59 4 6 -5 10 -20 10 -35 0 -28 24 8
28 29 4 33 12 15 30 -18 18 -46 14 -58 -9z m45 1 c3 -5 -3 -10 -15 -10 -12 0
-18 5 -15 10 3 6 10 10 15 10 5 0 12 -4 15 -10z"/>
<path d="M9381 3517 c-8 -11 -6 -18 9 -32 26 -24 25 -39 -1 -32 -16 4 -19 3
-11 -5 15 -15 42 -2 42 21 0 10 -7 21 -15 25 -8 3 -15 10 -15 17 0 6 7 9 15 5
8 -3 15 -1 15 4 0 15 -26 12 -39 -3z"/>
<path d="M9531 3488 c1 -43 1 -43 11 -13 6 17 15 36 21 43 7 9 4 12 -12 12
-18 0 -21 -6 -20 -42z"/>
<path d="M9597 3523 c-13 -12 -7 -60 8 -73 9 -7 22 -9 32 -5 17 7 16 8 -2 13
-33 7 -42 22 -14 22 33 0 41 8 28 31 -10 19 -39 25 -52 12z m37 -12 c3 -5 -1
-11 -9 -15 -15 -6 -29 7 -18 18 9 9 21 8 27 -3z"/>
<path d="M9676 3515 c-3 -8 4 -21 16 -29 22 -16 15 -41 -9 -32 -8 3 -11 1 -8
-4 9 -15 31 -12 46 6 12 15 11 19 -9 32 -27 17 -28 29 -4 35 13 4 12 5 -4 6
-12 0 -24 -6 -28 -14z"/>
<path d="M9751 3465 c1 -33 4 -50 6 -37 3 15 10 22 19 18 17 -7 44 20 44 43 0
24 -21 40 -48 38 -20 -1 -22 -6 -21 -62z m47 22 c2 -19 -1 -27 -13 -27 -19 0
-30 24 -21 46 9 23 31 11 34 -19z"/>
<path d="M9840 3510 c-20 -38 8 -78 45 -64 21 8 30 51 15 69 -18 21 -47 19
-60 -5z m48 -23 c3 -22 -1 -27 -17 -27 -15 0 -21 6 -21 23 0 46 33 49 38 4z"/>
<path d="M9931 3486 l2 -41 6 35 c9 49 34 46 42 -5 l7 -40 -2 45 c-1 42 -3 45
-28 46 -26 1 -28 -1 -27 -40z"/>
<path d="M10017 3523 c-13 -13 -7 -32 14 -38 24 -8 20 -31 -6 -27 -10 2 -14
-1 -10 -7 9 -16 31 -13 46 5 12 15 11 19 -9 32 -27 17 -28 29 -4 35 14 4 13 5
-4 6 -11 0 -24 -2 -27 -6z"/>
<path d="M10090 3515 c-28 -33 23 -96 53 -66 8 8 4 11 -16 11 -15 0 -27 5 -27
10 0 6 11 10 23 10 31 0 38 9 26 31 -12 23 -42 25 -59 4z m45 -5 c3 -5 -3 -10
-15 -10 -12 0 -18 5 -15 10 3 6 10 10 15 10 5 0 12 -4 15 -10z"/>
<path d="M8390 3454 c0 -8 5 -12 10 -9 6 4 8 11 5 16 -9 14 -15 11 -15 -7z"/>
<path d="M9448 3454 c-5 -4 -8 -16 -8 -28 0 -14 3 -17 11 -9 6 6 9 19 7 28 -1
9 -6 13 -10 9z"/>
</g>
</svg>
