<?xml version="1.0" standalone="no"?>
<!DOCTYPE svg PUBLIC "-//W3C//DTD SVG 20010904//EN"
 "http://www.w3.org/TR/2001/REC-SVG-20010904/DTD/svg10.dtd">
<svg version="1.0" xmlns="http://www.w3.org/2000/svg"
 width="1024.000000pt" height="1024.000000pt" viewBox="0 0 1024.000000 1024.000000"
 preserveAspectRatio="xMidYMid meet">

<g transform="translate(0.000000,1024.000000) scale(0.100000,-0.100000)"
fill="#000000" stroke="none">
<path d="M4452 8958 c-21 -21 -13 -47 19 -63 38 -20 33 -38 -12 -45 -31 -5
-32 -7 -11 -14 61 -21 86 36 32 74 -34 25 -31 40 8 40 21 0 24 2 12 10 -20 13
-34 12 -48 -2z"/>
<path d="M4840 8962 c-67 -21 -44 -145 25 -128 14 4 25 11 25 17 0 6 -7 6 -20
-1 -15 -8 -24 -6 -40 10 -38 38 -15 97 33 88 15 -3 27 -4 27 -2 0 9 -37 21
-50 16z"/>
<path d="M4930 8952 c-28 -23 -31 -89 -4 -109 41 -30 94 3 94 57 0 31 -30 70
-54 70 -8 0 -24 -8 -36 -18z m58 -14 c13 -13 16 -47 6 -72 -4 -10 -18 -16 -35
-16 -22 0 -30 6 -35 26 -13 52 31 95 64 62z"/>
<path d="M5047 8953 c-8 -31 -8 -103 0 -116 5 -7 10 8 13 38 l6 50 18 -42 c10
-24 22 -43 26 -43 4 0 17 21 28 48 l20 47 1 -47 c1 -26 6 -50 11 -53 6 -4 10
18 10 60 0 57 -2 66 -17 63 -9 -2 -23 -22 -32 -45 -8 -24 -18 -43 -21 -43 -4
0 -12 17 -18 39 -15 48 -38 71 -45 44z"/>
<path d="M5386 8905 c-29 -73 -30 -75 -17 -75 5 0 11 9 14 20 7 27 53 27 67
-1 7 -11 14 -18 17 -16 6 6 -37 126 -47 132 -5 3 -20 -24 -34 -60z m37 -23
c-21 -5 -25 2 -17 34 l7 29 13 -30 c10 -25 10 -31 -3 -33z"/>
<path d="M4310 8912 c0 -35 5 -54 18 -65 43 -39 82 -9 82 64 0 66 -18 63 -22
-3 -3 -49 -5 -53 -28 -53 -23 0 -25 4 -28 53 -4 66 -22 69 -22 4z"/>
<path d="M4540 8895 l0 -65 35 0 c19 0 35 5 35 10 0 6 -11 10 -25 10 -20 0
-25 5 -25 24 0 19 6 26 28 29 l27 4 -27 2 c-21 1 -28 6 -28 20 0 14 8 21 28
24 22 3 20 4 -10 6 l-38 1 0 -65z"/>
<path d="M4640 8895 c0 -37 4 -65 10 -65 6 0 10 14 10 30 0 19 5 30 14 30 7 0
19 -13 26 -30 7 -16 16 -30 21 -30 12 0 11 11 -5 39 -10 18 -11 30 -3 42 17
28 1 49 -38 49 l-35 0 0 -65z m60 36 c0 -10 -7 -22 -16 -25 -23 -9 -24 -8 -24
19 0 18 5 25 20 25 13 0 20 -7 20 -19z"/>
<path d="M5212 8893 l1 -68 7 55 c6 59 7 59 39 -23 14 -35 24 -29 41 23 7 23
18 44 23 47 6 4 8 0 5 -8 -3 -8 -2 -32 2 -54 7 -36 8 -33 9 28 1 79 -18 92
-39 26 -8 -22 -17 -42 -21 -45 -4 -2 -15 16 -25 41 -26 69 -44 59 -42 -22z"/>
<path d="M5490 8895 c0 -37 4 -65 10 -65 6 0 10 24 10 53 l0 52 30 -52 c17
-29 35 -53 40 -53 6 0 10 29 10 65 0 37 -4 65 -10 65 -5 0 -10 -21 -10 -47 l0
-48 -27 48 c-38 67 -53 62 -53 -18z"/>
<path d="M5620 8895 c0 -64 0 -65 28 -65 43 0 72 26 72 65 0 43 -22 65 -66 65
l-34 0 0 -65z m75 31 c22 -33 5 -76 -30 -76 -23 0 -25 3 -25 50 0 43 3 50 20
50 11 0 27 -11 35 -24z"/>
<path d="M5751 8946 c-15 -18 -5 -41 25 -54 35 -17 31 -42 -7 -42 -17 0 -28
-4 -24 -10 9 -14 48 -13 63 2 21 21 13 47 -19 63 -34 18 -34 40 0 39 11 0 21
3 21 8 0 13 -47 9 -59 -6z"/>
<path d="M4623 8260 c-43 -17 -58 -94 -27 -138 19 -28 83 -31 106 -4 37 42 26
125 -19 143 -28 11 -31 11 -60 -1z m67 -39 c32 -61 -17 -125 -69 -92 -19 12
-20 74 -2 95 18 22 58 20 71 -3z"/>
<path d="M4191 8193 c-13 -38 -26 -74 -29 -80 -2 -7 3 -13 11 -13 8 0 17 9 20
20 4 15 14 20 37 20 23 0 33 -5 37 -20 3 -11 12 -20 20 -20 8 0 13 6 11 13 -3
6 -15 42 -28 80 -16 44 -29 67 -39 67 -11 0 -24 -23 -40 -67z m53 5 c9 -35 8
-38 -14 -38 -11 0 -20 3 -20 8 0 19 13 52 20 52 4 0 10 -10 14 -22z"/>
<path d="M4330 8180 c0 -47 4 -80 10 -80 6 0 10 33 10 80 0 47 -4 80 -10 80
-6 0 -10 -33 -10 -80z"/>
<path d="M4474 8253 c-38 -27 -41 -105 -5 -137 22 -20 82 -19 89 1 2 9 -5 11
-29 6 -39 -7 -59 14 -59 63 0 41 21 58 61 50 22 -4 29 -2 27 7 -5 14 -67 21
-84 10z"/>
<path d="M4758 8228 c-5 -48 2 -128 13 -128 4 0 9 26 11 58 l3 57 20 -54 c11
-30 25 -56 31 -58 5 -2 20 23 31 54 l22 58 0 -57 c1 -45 4 -58 16 -58 12 0 15
16 15 80 0 71 -2 80 -19 80 -13 0 -24 -14 -36 -47 -10 -27 -21 -52 -25 -56 -4
-4 -16 16 -26 45 -23 63 -50 76 -56 26z"/>
<path d="M4960 8180 c0 -44 4 -80 9 -80 5 0 11 12 13 28 2 20 9 28 28 30 35 5
50 20 50 51 0 37 -17 51 -62 51 l-38 0 0 -80z m70 45 c16 -19 -3 -45 -31 -45
-14 0 -19 7 -19 30 0 23 5 30 19 30 10 0 24 -7 31 -15z"/>
<path d="M5105 8240 c-11 -12 -18 -35 -18 -60 0 -54 25 -80 74 -80 46 0 69 27
69 80 0 53 -23 80 -69 80 -25 0 -44 -7 -56 -20z m93 -32 c11 -23 11 -33 0 -55
-26 -55 -88 -35 -88 28 0 59 63 78 88 27z"/>
<path d="M5267 8253 c-4 -3 -7 -39 -7 -80 0 -58 3 -73 15 -73 12 0 15 13 15
58 l0 57 33 -55 c18 -30 41 -56 50 -58 15 -3 17 7 17 77 0 65 -3 81 -15 81
-12 0 -15 -13 -15 -57 l-1 -58 -30 58 c-27 52 -45 67 -62 50z"/>
<path d="M5430 8180 l0 -80 45 0 c52 0 61 17 13 22 -25 2 -34 8 -36 26 -3 19
1 22 28 22 21 0 30 4 27 13 -2 6 -13 12 -25 12 -12 0 -22 4 -22 8 0 4 0 14 0
22 0 10 10 15 30 15 17 0 30 5 30 10 0 6 -20 10 -45 10 l-45 0 0 -80z"/>
<path d="M5550 8180 c0 -64 3 -80 15 -80 12 0 15 13 15 58 l1 57 32 -57 c20
-36 39 -58 50 -58 15 0 17 10 17 80 0 44 -4 80 -9 80 -13 0 -21 -27 -21 -73
l-1 -42 -31 58 c-20 38 -37 57 -49 57 -17 0 -19 -9 -19 -80z"/>
<path d="M5700 8250 c0 -5 11 -10 25 -10 24 0 25 -2 25 -70 0 -90 18 -92 22
-2 3 61 5 67 26 70 46 7 20 22 -38 22 -33 0 -60 -4 -60 -10z"/>
<path d="M5852 8248 c-21 -21 -13 -45 25 -75 44 -36 38 -58 -14 -50 -24 4 -33
2 -30 -6 6 -19 72 -20 91 -2 27 28 20 48 -26 78 -40 25 -38 51 3 43 22 -4 29
-2 27 7 -6 17 -60 21 -76 5z"/>
<path d="M4121 7188 c-13 -40 -26 -79 -28 -85 -3 -7 0 -13 6 -13 6 0 16 12 21
26 8 21 15 25 33 20 12 -3 27 -6 33 -6 7 0 14 -9 17 -20 6 -22 27 -28 27 -7
-1 29 -57 152 -71 155 -11 2 -21 -18 -38 -70z m49 18 c0 -8 3 -21 6 -30 4 -12
0 -16 -15 -16 -23 0 -24 3 -15 38 7 24 24 30 24 8z"/>
<path d="M4260 7175 c0 -50 4 -85 10 -85 6 0 10 35 10 85 0 50 -4 85 -10 85
-6 0 -10 -35 -10 -85z"/>
<path d="M4040 6915 c0 -77 16 -105 22 -38 2 27 8 39 21 41 14 3 17 -4 17 -37
0 -22 5 -43 10 -46 6 -4 10 13 10 44 0 41 -4 51 -20 56 -11 3 -24 3 -30 0 -6
-4 -10 6 -10 24 0 17 -4 31 -10 31 -6 0 -10 -32 -10 -75z"/>
<path d="M3841 6973 c2 -26 46 -138 53 -138 5 0 16 23 24 50 l15 50 11 -42
c19 -74 31 -72 55 7 12 40 20 75 17 77 -6 7 -25 -39 -33 -79 -8 -41 -20 -34
-28 15 -4 23 -11 49 -15 57 -10 17 -11 16 -33 -60 l-14 -45 -17 58 c-10 31
-22 57 -27 57 -5 0 -9 -3 -8 -7z"/>
<path d="M4150 6970 c0 -5 5 -10 10 -10 6 0 10 5 10 10 0 6 -4 10 -10 10 -5 0
-10 -4 -10 -10z"/>
<path d="M4150 6890 c0 -27 5 -50 10 -50 6 0 10 23 10 50 0 28 -4 50 -10 50
-5 0 -10 -22 -10 -50z"/>
<path d="M4200 6920 c-9 -16 -6 -22 15 -36 33 -21 32 -34 -2 -34 -24 -1 -25
-2 -11 -11 22 -12 58 5 58 27 0 8 -11 20 -25 26 -32 15 -32 28 1 28 14 0 23 4
19 10 -10 17 -44 11 -55 -10z"/>
<path d="M4280 6869 c0 -39 4 -69 10 -69 6 0 10 9 10 19 0 14 5 18 18 14 27
-7 44 20 40 64 -3 36 -5 38 -40 40 l-38 1 0 -69z m68 26 c3 -28 -13 -49 -32
-42 -10 4 -16 18 -16 37 0 27 3 31 23 28 13 -2 23 -11 25 -23z"/>
<path d="M4396 6924 c-22 -21 -20 -50 4 -74 21 -21 45 -26 55 -11 3 5 -7 11
-22 13 -42 5 -41 28 1 28 28 0 36 4 36 18 0 39 -45 55 -74 26z m52 -12 c2 -7
-7 -12 -23 -12 -24 0 -26 2 -15 15 14 17 31 16 38 -3z"/>
<path d="M4495 6930 c-7 -12 -1 -91 6 -96 5 -3 9 8 9 25 0 39 9 61 26 61 8 0
14 4 14 9 0 9 -50 10 -55 1z"/>
<path d="M2021 6866 c-15 -18 -3 -46 25 -57 13 -4 24 -15 24 -24 0 -15 -10
-19 -45 -15 -15 1 -17 -1 -9 -10 16 -16 55 -9 68 13 9 16 5 23 -23 47 -34 29
-35 56 0 47 11 -3 19 -1 19 4 0 14 -46 11 -59 -5z"/>
<path d="M2110 6815 l0 -65 43 2 c36 1 38 2 10 5 -27 4 -33 9 -33 29 0 19 5
24 25 24 14 0 25 5 25 10 0 6 -11 10 -25 10 -18 0 -25 5 -25 19 0 15 8 21 33
24 28 3 26 4 -10 5 l-43 2 0 -65z"/>
<path d="M2222 6813 l1 -68 6 53 6 52 28 -50 c16 -27 32 -50 38 -50 5 0 8 30
7 68 l-1 67 -6 -55 -6 -55 -28 53 c-15 28 -32 52 -37 52 -6 0 -9 -29 -8 -67z"/>
<path d="M2351 6866 c-16 -19 -6 -38 30 -59 27 -15 29 -20 18 -33 -8 -10 -21
-13 -37 -9 -15 4 -21 2 -17 -5 7 -11 35 -13 59 -4 28 11 19 52 -15 69 -34 18
-34 40 0 39 11 0 21 3 21 8 0 13 -47 9 -59 -6z"/>
<path d="M2457 6862 c-21 -23 -22 -76 -1 -96 19 -19 67 -21 82 -3 21 25 25 66
8 92 -20 30 -65 34 -89 7z m74 -16 c23 -50 -19 -106 -56 -76 -18 15 -20 71 -3
88 20 20 48 14 59 -12z"/>
<path d="M2580 6816 c0 -37 4 -66 10 -66 6 0 10 11 10 24 0 38 18 41 38 7 9
-17 20 -31 24 -31 9 0 -1 29 -15 48 -8 10 -7 16 2 21 7 5 11 19 9 32 -2 20
-10 25 -40 27 l-38 3 0 -65z m58 42 c8 -8 9 -15 1 -25 -18 -21 -39 -15 -39 12
0 27 18 33 38 13z"/>
<path d="M2742 6818 c3 -61 4 -63 31 -66 38 -5 67 23 67 63 0 40 -27 65 -69
65 l-32 0 3 -62z m59 42 c27 -15 26 -75 -1 -90 -30 -16 -40 -4 -40 44 0 56 7
64 41 46z"/>
<path d="M2878 6818 c-25 -64 -27 -87 -4 -55 16 21 62 23 70 2 3 -8 10 -15 15
-15 12 0 -33 123 -47 128 -5 1 -21 -25 -34 -60z m42 23 c0 -5 3 -16 6 -25 4
-12 0 -16 -16 -16 -16 0 -20 4 -16 16 3 9 6 20 6 25 0 5 5 9 10 9 6 0 10 -4
10 -9z"/>
<path d="M2978 6873 c20 -4 22 -10 22 -64 0 -33 4 -59 10 -59 6 0 10 26 10 59
0 54 2 60 23 64 12 2 -3 4 -33 4 -30 0 -45 -2 -32 -4z"/>
<path d="M3085 6828 c-10 -29 -20 -59 -23 -65 -2 -7 1 -13 7 -13 6 0 11 7 11
15 0 10 10 15 30 15 18 0 33 -6 36 -15 4 -8 10 -15 15 -15 12 0 -34 123 -48
127 -6 2 -19 -19 -28 -49z m42 -24 c-3 -3 -12 -4 -20 -2 -11 2 -12 9 -5 28
l10 25 11 -23 c5 -12 8 -25 4 -28z"/>
<path d="M7204 6865 c-9 -23 3 -44 31 -55 46 -18 24 -56 -26 -43 -15 4 -20 3
-15 -5 12 -20 64 -14 76 8 9 18 6 25 -19 48 -36 31 -41 57 -11 49 11 -3 20 -1
20 4 0 15 -50 10 -56 -6z"/>
<path d="M7300 6815 l0 -65 43 2 c36 1 38 2 10 5 -27 4 -33 9 -33 29 0 17 5
24 20 24 11 0 20 5 20 10 0 6 -9 10 -20 10 -33 0 -26 38 8 43 22 3 20 4 -10 6
l-38 1 0 -65z"/>
<path d="M7407 6873 c-11 -10 -8 -123 3 -123 6 0 10 24 10 53 l0 52 28 -49
c40 -73 52 -71 52 8 0 37 -4 66 -10 66 -5 0 -10 -21 -10 -47 l-1 -48 -25 48
c-24 46 -34 54 -47 40z"/>
<path d="M7537 6873 c-15 -15 -5 -39 25 -65 28 -23 31 -29 18 -38 -8 -5 -23
-7 -32 -4 -10 3 -18 1 -18 -5 0 -21 59 -12 71 11 10 19 8 25 -20 47 -38 32
-41 55 -6 49 14 -3 25 -1 25 3 0 10 -54 12 -63 2z"/>
<path d="M7636 6858 c-33 -46 -7 -108 44 -108 48 0 76 61 50 111 -15 28 -74
26 -94 -3z m72 0 c17 -17 15 -73 -3 -88 -22 -18 -48 -8 -59 22 -19 53 27 101
62 66z"/>
<path d="M7771 6813 c1 -46 3 -58 8 -39 9 41 27 43 47 4 9 -18 19 -28 21 -21
2 7 -1 21 -7 32 -8 15 -8 27 0 42 15 27 -3 49 -41 49 l-29 0 1 -67z m55 46
c10 -17 -23 -46 -37 -32 -7 7 -9 19 -6 27 7 18 33 21 43 5z"/>
<path d="M7930 6815 l0 -65 34 0 c25 0 39 7 50 22 35 49 7 108 -50 108 l-34 0
0 -65z m61 45 c13 -8 19 -21 19 -46 0 -27 -5 -37 -25 -46 -35 -16 -44 -2 -38
55 6 49 12 54 44 37z"/>
<path d="M8085 6870 c-14 -23 -43 -120 -36 -120 5 0 11 7 15 15 3 9 18 15 36
15 20 0 30 -5 30 -15 0 -8 5 -15 11 -15 6 0 9 6 7 13 -3 6 -13 36 -23 65 -19
51 -28 61 -40 42z m19 -68 c-22 -5 -27 3 -19 29 l7 22 14 -24 c11 -20 10 -25
-2 -27z"/>
<path d="M8168 6870 c19 -8 22 -17 22 -65 0 -30 5 -55 10 -55 6 0 10 26 10 59
0 54 2 60 23 64 12 2 -3 5 -33 5 -42 1 -50 -1 -32 -8z"/>
<path d="M8283 6863 c-3 -10 -14 -39 -24 -65 -11 -27 -14 -48 -9 -48 6 0 13 7
16 15 8 21 54 19 70 -2 20 -26 17 -2 -7 62 -21 57 -35 68 -46 38z m30 -43 c4
-15 0 -20 -15 -20 -14 0 -18 5 -14 16 3 9 6 20 6 25 0 17 17 1 23 -21z"/>
<path d="M1212 4318 c-6 -6 -12 -19 -12 -28 0 -18 30 -50 47 -50 18 0 32 -25
23 -39 -5 -9 -18 -12 -39 -8 -22 5 -31 3 -31 -7 0 -8 11 -16 25 -18 67 -13 99
59 40 92 -38 21 -40 45 -2 45 15 -1 26 4 24 10 -5 15 -60 18 -75 3z"/>
<path d="M1330 4250 c0 -64 3 -80 15 -80 12 0 15 16 15 80 0 64 -3 80 -15 80
-12 0 -15 -16 -15 -80z"/>
<path d="M1400 4250 c0 -94 18 -108 22 -17 l3 62 24 -63 c13 -34 28 -61 34
-59 6 2 20 30 31 63 l21 59 3 -62 c4 -92 22 -77 22 18 0 71 -2 80 -17 77 -11
-2 -27 -25 -40 -58 l-22 -55 -11 30 c-27 75 -33 85 -51 85 -17 0 -19 -8 -19
-80z"/>
<path d="M1600 4272 c0 -73 18 -102 64 -102 49 0 66 25 66 99 0 45 -3 62 -12
59 -8 -3 -11 -19 -10 -44 2 -22 -2 -52 -7 -67 -9 -23 -16 -28 -39 -25 -26 3
-27 5 -30 71 -2 51 -6 67 -17 67 -12 0 -15 -14 -15 -58z"/>
<path d="M1770 4250 l0 -80 45 0 c25 0 45 5 45 10 0 6 -13 10 -29 10 -29 0
-30 1 -37 70 -3 39 -11 70 -15 70 -5 0 -9 -36 -9 -80z"/>
<path d="M1900 4263 c-13 -37 -25 -74 -28 -80 -2 -7 3 -13 11 -13 8 0 17 9 20
20 4 14 14 20 35 20 22 0 32 -6 37 -20 3 -11 13 -20 21 -20 17 0 19 -8 -14 80
-37 99 -53 102 -82 13z m60 -25 c0 -5 -11 -8 -24 -8 -24 0 -24 2 -14 31 l11
32 13 -24 c7 -13 13 -27 14 -31z"/>
<path d="M2000 4320 c0 -5 11 -10 25 -10 24 0 25 -2 25 -70 0 -56 3 -70 15
-70 12 0 15 14 15 70 0 68 1 70 25 70 14 0 25 5 25 10 0 6 -28 10 -65 10 -37
0 -65 -4 -65 -10z"/>
<path d="M2150 4250 c0 -64 3 -80 15 -80 12 0 15 16 15 80 0 64 -3 80 -15 80
-12 0 -15 -16 -15 -80z"/>
<path d="M2243 4315 c-28 -19 -39 -75 -22 -106 16 -33 28 -39 71 -39 45 0 68
27 68 82 0 67 -63 101 -117 63z m75 -17 c7 -7 12 -28 12 -48 0 -41 -14 -60
-45 -60 -30 0 -45 19 -45 56 0 52 47 83 78 52z"/>
<path d="M2390 4250 c0 -64 3 -80 15 -80 12 0 15 13 15 58 l1 57 31 -58 c44
-82 62 -75 66 26 2 64 0 77 -13 77 -12 0 -15 -12 -15 -57 l-1 -58 -31 58 c-20
38 -37 57 -49 57 -17 0 -19 -9 -19 -80z"/>
<path d="M7990 4230 c-33 -33 -23 -57 34 -85 36 -18 26 -40 -17 -39 -47 2 -45
-20 2 -24 68 -7 85 54 26 89 -38 23 -41 29 -23 47 7 7 17 8 29 2 11 -7 20 -7
24 -1 6 10 -25 31 -44 31 -6 0 -20 -9 -31 -20z"/>
<path d="M7550 4161 c0 -65 3 -81 15 -81 10 0 15 10 15 30 0 25 4 30 23 30 37
0 63 35 51 68 -8 24 -15 27 -57 30 l-47 3 0 -80z m75 29 c0 -18 -6 -26 -22
-28 -20 -3 -23 1 -23 28 0 27 3 31 23 28 16 -2 22 -10 22 -28z"/>
<path d="M7690 4161 c0 -47 4 -81 10 -81 6 0 10 16 10 35 0 33 2 35 35 35 33
0 35 -2 35 -35 0 -24 5 -35 15 -35 12 0 15 16 15 80 0 64 -3 80 -15 80 -10 0
-15 -11 -15 -35 0 -32 -2 -35 -29 -35 -26 0 -30 4 -33 32 -2 17 -9 33 -15 36
-10 3 -13 -17 -13 -77z"/>
<path d="M7855 4198 c14 -25 25 -59 25 -80 0 -27 4 -38 15 -38 11 0 15 11 15
35 0 20 9 54 21 76 19 38 18 72 -1 39 -5 -8 -15 -24 -23 -34 -14 -19 -15 -19
-31 12 -9 18 -23 32 -31 32 -10 0 -8 -11 10 -42z"/>
<path d="M8104 4225 c-9 -22 6 -145 17 -145 5 0 9 36 9 80 0 75 -12 103 -26
65z"/>
<path d="M8185 4220 c-26 -28 -26 -91 -1 -119 23 -25 78 -28 96 -6 12 14 8 15
-28 9 -34 -5 -42 -3 -51 14 -29 54 0 108 51 98 21 -4 28 -2 26 7 -8 22 -72 20
-93 -3z"/>
<path d="M8331 4173 c-13 -38 -26 -74 -29 -80 -2 -7 3 -13 11 -13 8 0 17 9 20
20 4 15 14 20 37 20 23 0 33 -5 37 -20 5 -18 33 -29 33 -12 -2 26 -58 147 -70
150 -10 2 -23 -19 -39 -65z m49 13 c0 -8 3 -21 6 -30 4 -12 0 -16 -15 -16 -23
0 -24 3 -15 38 7 24 24 30 24 8z"/>
<path d="M8470 4160 l0 -80 40 0 c22 0 40 5 40 10 0 6 -13 10 -30 10 l-30 0 0
70 c0 40 -4 70 -10 70 -6 0 -10 -33 -10 -80z"/>
<path d="M5003 4220 c-43 -18 -58 -94 -27 -138 21 -30 83 -31 110 -1 23 26 26
101 4 123 -20 20 -60 27 -87 16z m75 -74 c2 -21 -2 -44 -9 -52 -14 -17 -51
-18 -67 -2 -13 13 -16 76 -4 94 25 38 76 13 80 -40z"/>
<path d="M5152 4214 c-33 -23 -27 -50 18 -79 50 -32 46 -60 -7 -52 -24 4 -33
2 -30 -6 5 -16 65 -21 83 -6 26 22 17 58 -21 80 -44 26 -46 49 -5 49 32 0 40
14 14 24 -22 9 -27 8 -52 -10z"/>
<path d="M5333 4223 c-7 -2 -13 -11 -13 -19 0 -12 4 -12 20 -4 50 27 53 -28 5
-89 -19 -24 -35 -45 -35 -47 0 -2 25 -4 55 -4 30 0 55 5 55 10 0 6 -16 10 -36
10 l-35 0 30 37 c36 43 41 87 12 103 -21 11 -38 12 -58 3z"/>
<path d="M4830 4140 c0 -47 4 -80 10 -80 6 0 10 16 10 35 0 25 5 35 15 35 9 0
23 -16 32 -35 9 -19 23 -35 30 -35 17 0 16 5 -2 39 -11 23 -12 35 -3 59 16 41
-2 62 -53 62 l-39 0 0 -80z m68 38 c-2 -15 -11 -24 -25 -26 -19 -3 -23 1 -23
22 0 21 5 26 26 26 21 0 25 -4 22 -22z"/>
<path d="M950 3970 l0 -80 51 0 c31 0 48 4 44 10 -3 6 -22 10 -41 10 -30 0
-34 3 -34 25 0 21 5 25 30 25 38 0 40 18 3 22 -20 2 -28 9 -28 23 0 15 8 21
33 23 48 5 39 22 -13 22 l-45 0 0 -80z"/>
<path d="M1080 3971 c0 -47 4 -81 10 -81 6 0 10 28 10 63 l1 62 32 -60 c18
-33 40 -61 50 -63 15 -3 17 6 17 77 0 47 -4 81 -10 81 -5 0 -10 -25 -10 -55 0
-30 -3 -55 -7 -55 -5 1 -19 24 -33 53 -14 29 -33 53 -42 55 -16 3 -18 -6 -18
-77z"/>
<path d="M1250 3973 c37 -102 54 -104 87 -9 26 78 27 86 14 86 -6 0 -20 -27
-32 -60 -12 -34 -25 -57 -29 -53 -4 4 -15 32 -25 61 -9 28 -23 52 -30 52 -10
0 -6 -20 15 -77z"/>
<path d="M1390 3970 c0 -47 4 -80 10 -80 6 0 10 33 10 80 0 47 -4 80 -10 80
-6 0 -10 -33 -10 -80z"/>
<path d="M1450 3970 c0 -64 3 -80 15 -80 10 0 15 10 15 30 0 21 5 30 16 30 9
0 21 -13 27 -30 6 -16 17 -30 24 -30 18 0 16 21 -3 48 -14 20 -14 24 0 38 9 8
16 21 16 28 0 23 -36 46 -73 46 l-37 0 0 -80z m75 35 c0 -13 -8 -21 -22 -23
-19 -3 -23 1 -23 23 0 22 4 26 23 23 14 -2 22 -10 22 -23z"/>
<path d="M1607 4032 c-26 -28 -31 -75 -13 -111 16 -30 31 -36 81 -32 52 5 75
101 35 141 -25 25 -81 26 -103 2z m91 -34 c17 -37 -2 -81 -38 -86 -42 -6 -65
51 -39 99 15 30 60 22 77 -13z"/>
<path d="M1760 3971 c0 -65 3 -81 15 -81 12 0 15 13 15 58 l1 57 31 -57 c44
-82 58 -77 58 22 0 91 -17 109 -22 23 l-3 -58 -30 55 c-16 30 -38 56 -47 58
-16 3 -18 -6 -18 -77z"/>
<path d="M1927 4043 c-4 -3 -7 -39 -7 -80 l0 -73 50 0 c28 0 50 5 50 10 0 6
-16 10 -35 10 -31 0 -35 3 -35 25 0 21 5 25 30 25 17 0 30 5 30 10 0 6 -13 10
-30 10 -25 0 -30 4 -30 25 0 22 4 25 35 25 19 0 35 5 35 10 0 11 -83 14 -93 3z"/>
<path d="M2050 3971 c0 -64 3 -81 14 -81 11 0 16 15 18 53 l3 52 20 -53 c10
-29 24 -51 29 -49 6 2 20 28 33 58 l22 54 1 -57 c0 -45 3 -58 15 -58 12 0 15
16 15 80 0 72 -2 80 -19 80 -13 0 -25 -16 -41 -55 -13 -31 -25 -53 -29 -50 -3
4 -13 27 -22 53 -11 34 -22 48 -37 50 -21 3 -22 0 -22 -77z"/>
<path d="M2260 3970 l0 -80 51 0 c31 0 48 4 44 10 -3 6 -22 10 -41 10 -30 0
-34 3 -34 25 0 21 5 25 30 25 17 0 30 5 30 10 0 6 -13 10 -30 10 -25 0 -30 4
-30 25 0 22 4 25 35 25 19 0 35 5 35 10 0 6 -20 10 -45 10 l-45 0 0 -80z"/>
<path d="M2390 3970 c0 -47 4 -80 10 -80 6 0 10 28 11 63 l0 62 32 -62 c21
-42 37 -63 49 -63 16 0 18 10 18 80 0 44 -4 80 -9 80 -13 0 -21 -26 -21 -73
l-1 -42 -30 58 c-43 83 -59 77 -59 -23z"/>
<path d="M2530 4040 c0 -5 11 -10 25 -10 24 0 25 -2 25 -70 0 -56 3 -70 15
-70 12 0 15 14 15 70 0 68 1 70 25 70 14 0 25 5 25 10 0 6 -28 10 -65 10 -37
0 -65 -4 -65 -10z"/>
<path d="M2678 4026 c-9 -22 -8 -29 7 -46 10 -11 26 -22 36 -25 11 -4 19 -16
19 -27 0 -18 -4 -20 -36 -15 -25 4 -34 2 -31 -6 5 -16 65 -21 83 -6 26 21 17
55 -22 78 -40 24 -40 46 0 46 37 -1 27 19 -12 23 -26 3 -34 -1 -44 -22z"/>
<path d="M7700 3880 c0 -78 16 -112 22 -47 4 42 26 42 47 0 9 -18 22 -33 29
-33 16 0 15 5 -4 42 -11 22 -13 33 -5 41 15 15 14 50 -1 65 -7 7 -29 12 -50
12 l-38 0 0 -80z m73 46 c7 -17 -11 -36 -35 -36 -13 0 -18 8 -18 25 0 20 5 25
24 25 13 0 26 -6 29 -14z"/>
<path d="M7856 3945 c-34 -34 -32 -116 4 -135 31 -16 78 -12 100 10 24 24 27
86 4 118 -18 26 -84 31 -108 7z m82 -17 c7 -7 12 -28 12 -48 0 -41 -14 -60
-47 -60 -24 0 -43 26 -43 60 0 51 47 79 78 48z"/>
<path d="M8010 3880 l0 -80 43 0 c24 0 48 5 55 12 14 14 16 54 4 62 -5 3 -7
19 -4 37 6 37 -8 49 -60 49 l-38 0 0 -80z m75 50 c8 -13 -13 -40 -31 -40 -8 0
-14 10 -14 25 0 18 5 25 19 25 11 0 23 -5 26 -10z m8 -72 c7 -23 -4 -38 -29
-38 -19 0 -24 5 -24 25 0 20 5 25 24 25 13 0 26 -6 29 -12z"/>
<path d="M8167 3943 c-26 -29 -27 -102 -1 -127 22 -23 80 -20 104 4 24 24 27
86 4 118 -19 28 -83 31 -107 5z m92 -37 c12 -26 12 -33 0 -55 -18 -32 -58 -40
-76 -15 -17 24 -16 55 3 82 21 31 55 25 73 -12z"/>
<path d="M8300 3950 c0 -5 11 -10 25 -10 23 0 24 -3 27 -67 2 -42 8 -68 16
-71 9 -3 12 15 12 67 0 69 1 71 25 71 14 0 25 5 25 10 0 6 -28 10 -65 10 -37
0 -65 -4 -65 -10z"/>
<path d="M4207 3922 c-24 -27 -23 -104 2 -126 22 -20 82 -19 89 1 2 9 -5 11
-27 7 -41 -9 -61 10 -61 56 0 46 20 65 60 56 31 -6 42 7 14 18 -29 11 -61 6
-77 -12z"/>
<path d="M4340 3920 c-24 -24 -27 -86 -4 -118 11 -15 25 -22 50 -22 47 0 74
29 74 80 0 49 -27 80 -70 80 -17 0 -39 -9 -50 -20z m77 -8 c18 -11 25 -55 14
-86 -9 -23 -16 -27 -43 -24 -27 2 -34 9 -42 35 -15 54 30 101 71 75z"/>
<path d="M4490 3859 c0 -60 3 -80 13 -76 7 2 12 23 12 55 0 29 2 52 5 52 3 0
14 -25 25 -55 10 -31 23 -54 29 -52 5 2 19 30 30 63 l21 59 3 -62 c4 -91 22
-77 22 17 0 64 -3 80 -15 80 -8 0 -15 -1 -15 -2 0 -2 -11 -29 -24 -61 l-24
-59 -23 61 c-17 43 -29 61 -41 61 -16 0 -18 -10 -18 -81z"/>
<path d="M4690 3860 c0 -94 18 -108 22 -17 l3 62 23 -63 c13 -35 28 -62 34
-60 6 2 21 31 34 63 l23 60 0 -62 c1 -35 5 -63 11 -63 6 0 10 33 10 80 0 61
-3 80 -14 80 -13 0 -56 -85 -56 -111 0 -24 -17 5 -35 59 -12 39 -21 52 -36 52
-17 0 -19 -8 -19 -80z"/>
<path d="M4890 3882 c0 -67 19 -102 56 -102 54 0 64 15 64 90 0 90 -18 92 -22
3 -3 -64 -5 -68 -27 -71 -35 -5 -51 22 -51 85 0 29 -4 53 -10 53 -6 0 -10 -26
-10 -58z"/>
<path d="M5050 3859 c0 -60 3 -80 13 -76 8 2 12 24 12 60 0 32 0 57 2 57 1 0
16 -27 35 -60 45 -83 58 -79 58 20 0 91 -17 109 -22 23 l-3 -58 -33 58 c-47
83 -62 77 -62 -24z"/>
<path d="M5210 3859 c0 -60 3 -80 13 -77 8 3 13 31 15 81 2 64 0 77 -13 77
-12 0 -15 -15 -15 -81z"/>
<path d="M5291 3921 c-25 -25 -28 -87 -5 -119 18 -26 75 -30 94 -8 10 13 5 15
-31 13 -40 -2 -43 0 -52 30 -14 48 13 87 55 79 21 -4 28 -2 26 7 -8 22 -65 20
-87 -2z"/>
<path d="M5426 3866 c-29 -83 -30 -86 -17 -86 5 0 13 9 16 20 5 15 15 20 40
20 25 0 35 -5 40 -20 3 -11 12 -20 19 -20 18 0 -37 154 -56 158 -11 2 -23 -20
-42 -72z m64 -18 c0 -5 -11 -8 -24 -8 -24 0 -24 2 -14 31 l11 32 13 -24 c7
-13 13 -27 14 -31z"/>
<path d="M5525 3930 c3 -5 17 -10 31 -10 23 0 24 -2 24 -70 0 -40 4 -70 10
-70 6 0 10 30 10 70 0 68 1 70 25 70 14 0 25 5 25 10 0 6 -29 10 -66 10 -41 0
-63 -4 -59 -10z"/>
<path d="M5676 3924 c-3 -9 -6 -45 -6 -80 0 -50 3 -64 15 -64 12 0 15 16 15
80 0 75 -10 101 -24 64z"/>
<path d="M5751 3914 c-30 -39 -24 -102 13 -126 22 -15 73 -8 91 12 24 27 25
93 1 119 -28 31 -79 28 -105 -5z m93 -26 c15 -43 -3 -82 -38 -86 -16 -2 -32 2
-37 10 -13 20 -11 82 3 96 22 22 62 10 72 -20z"/>
<path d="M5907 3920 c-7 -28 4 -140 14 -140 5 0 9 28 10 63 l0 62 32 -62 c43
-87 57 -83 57 17 0 47 -4 80 -10 80 -5 0 -10 -26 -10 -57 l-1 -58 -31 58 c-32
59 -52 71 -61 37z"/>
<path d="M8035 3680 c-33 -13 -46 -36 -47 -80 -1 -54 23 -80 73 -80 47 0 69
27 69 85 0 46 -6 57 -37 74 -25 13 -30 13 -58 1z m69 -51 c22 -65 -36 -119
-76 -69 -22 27 -23 49 -2 78 22 32 65 26 78 -9z"/>
<path d="M8540 3682 c-47 -14 -44 -62 6 -91 45 -27 37 -56 -13 -48 -24 4 -33
2 -30 -6 5 -16 65 -21 83 -6 26 22 17 58 -21 81 -41 23 -41 43 -2 43 15 -1 27
4 27 11 0 14 -28 23 -50 16z"/>
<path d="M7354 3666 c-10 -26 1 -139 14 -144 8 -2 12 7 12 27 0 26 4 31 24 31
46 0 74 58 44 88 -17 17 -87 15 -94 -2z m71 -36 c0 -18 -6 -26 -22 -28 -20 -3
-23 1 -23 28 0 27 3 31 23 28 16 -2 22 -10 22 -28z"/>
<path d="M7490 3600 l0 -80 45 0 c25 0 45 5 45 10 0 6 -13 10 -30 10 l-30 0 0
70 c0 56 -3 70 -15 70 -12 0 -15 -16 -15 -80z"/>
<path d="M7616 3608 c-14 -40 -26 -76 -26 -80 0 -16 19 -7 25 12 5 15 15 20
42 20 26 0 36 -5 40 -20 3 -11 12 -20 20 -20 8 0 13 6 11 13 -3 6 -16 42 -29
80 -32 90 -48 89 -83 -5z m59 -5 c5 -19 2 -23 -14 -23 -21 0 -26 15 -15 45 8
19 19 10 29 -22z"/>
<path d="M7730 3670 c0 -5 9 -10 20 -10 14 0 20 -7 21 -22 3 -96 5 -112 17
-115 9 -4 12 14 12 66 0 69 1 71 25 71 14 0 25 5 25 10 0 6 -27 10 -60 10 -33
0 -60 -4 -60 -10z"/>
<path d="M7870 3600 c0 -64 3 -80 15 -80 10 0 15 11 15 35 0 32 2 35 30 35 17
0 30 5 30 10 0 6 -13 10 -30 10 -25 0 -30 4 -30 25 0 21 5 25 30 25 17 0 30 5
30 10 0 6 -20 10 -45 10 l-45 0 0 -80z"/>
<path d="M8168 3670 c-7 -20 4 -150 13 -150 5 0 9 16 9 35 0 25 5 35 15 35 9
0 23 -16 32 -35 9 -19 23 -35 30 -35 17 0 16 4 -3 42 -11 22 -13 33 -5 41 15
15 14 50 -1 65 -14 14 -85 16 -90 2z m72 -35 c0 -20 -5 -25 -25 -25 -20 0 -25
5 -25 25 0 20 5 25 25 25 20 0 25 -5 25 -25z"/>
<path d="M8310 3601 c0 -95 18 -110 22 -18 l3 62 23 -63 c13 -35 29 -61 35
-59 6 2 20 30 31 63 l21 59 3 -62 c4 -91 22 -77 22 17 0 71 -2 80 -18 80 -14
0 -24 -15 -37 -55 -11 -30 -21 -52 -24 -49 -4 3 -13 26 -22 52 -11 34 -22 48
-37 50 -21 3 -22 0 -22 -77z"/>
<path d="M4824 3647 c-3 -8 -4 -45 -2 -83 l3 -69 57 -3 c49 -3 57 0 63 18 9
28 71 29 80 0 3 -11 12 -20 20 -20 10 0 7 19 -15 78 -37 102 -55 103 -87 7
l-23 -71 -35 4 -35 4 0 69 c0 63 -13 98 -26 66z m180 -74 c6 -20 4 -23 -18
-23 -30 0 -29 -2 -15 40 12 34 19 30 33 -17z"/>
<path d="M5050 3648 c0 -2 11 -25 25 -52 14 -27 25 -62 25 -78 0 -15 5 -28 10
-28 6 0 10 14 10 30 0 17 11 53 25 80 18 36 22 50 12 50 -7 0 -21 -17 -31 -37
l-18 -38 -19 38 c-11 20 -24 37 -29 37 -6 0 -10 -1 -10 -2z"/>
<path d="M5190 3570 l0 -80 45 0 c25 0 45 5 45 10 0 6 -13 10 -30 10 -25 0
-30 4 -30 24 0 17 8 27 28 34 l27 10 -27 1 c-23 1 -28 6 -28 26 0 21 5 25 30
25 17 0 30 5 30 10 0 6 -20 10 -45 10 l-45 0 0 -80z"/>
<path d="M5320 3570 c0 -47 4 -80 10 -80 6 0 10 16 10 35 0 25 5 35 15 35 9 0
23 -16 32 -35 9 -19 23 -35 30 -35 10 0 9 10 -6 38 -18 36 -19 40 -4 55 14 13
14 21 5 42 -10 21 -18 25 -52 25 l-40 0 0 -80z m65 35 c0 -13 -8 -21 -22 -23
-19 -3 -23 1 -23 23 0 22 4 26 23 23 14 -2 22 -10 22 -23z"/>
</g>
</svg>
