<?xml version="1.0" standalone="no"?>
<!DOCTYPE svg PUBLIC "-//W3C//DTD SVG 20010904//EN"
 "http://www.w3.org/TR/2001/REC-SVG-20010904/DTD/svg10.dtd">
<svg version="1.0" xmlns="http://www.w3.org/2000/svg"
 width="1024.000000pt" height="1024.000000pt" viewBox="0 0 1024.000000 1024.000000"
 preserveAspectRatio="xMidYMid meet">

<g transform="translate(0.000000,1024.000000) scale(0.100000,-0.100000)"
fill="#000000" stroke="none">
<path d="M6633 6740 c0 -25 2 -35 4 -22 2 12 2 32 0 45 -2 12 -4 2 -4 -23z"/>
<path d="M4930 6551 l0 -81 45 0 c25 0 45 5 45 10 0 6 -13 10 -30 10 -29 0
-29 0 -32 67 -2 42 -8 68 -15 71 -10 3 -13 -17 -13 -77z"/>
<path d="M5042 6548 l3 -83 43 -3 c33 -2 42 0 42 12 0 11 -10 16 -30 16 l-30
0 0 70 c0 56 -3 70 -15 70 -13 0 -15 -14 -13 -82z"/>
<path d="M5160 6544 c0 -54 4 -83 10 -79 6 3 10 34 10 68 l1 62 27 -64 c15
-35 32 -62 37 -61 6 1 20 28 31 59 l22 56 3 -58 c6 -88 24 -74 27 21 3 75 1
82 -17 82 -14 0 -25 -16 -43 -61 l-25 -61 -23 61 c-16 45 -27 61 -41 61 -17 0
-19 -9 -19 -86z"/>
<path d="M6634 6280 c0 -85 2 -120 3 -77 2 42 2 112 0 155 -1 42 -3 7 -3 -78z"/>
<path d="M3954 6327 c-21 -18 -27 -32 -27 -65 0 -56 24 -82 73 -82 23 0 40 5
43 14 4 11 -3 13 -33 9 -36 -5 -40 -3 -50 23 -7 18 -8 40 -3 59 8 26 13 30 46
30 38 0 51 18 21 29 -27 10 -42 7 -70 -17z"/>
<path d="M4103 6340 c-28 -11 -43 -40 -43 -82 0 -51 24 -78 68 -78 43 0 55 7
71 37 38 72 -24 153 -96 123z m65 -32 c16 -16 16 -80 0 -96 -7 -7 -21 -12 -33
-12 -31 0 -45 19 -45 60 0 41 14 60 45 60 12 0 26 -5 33 -12z"/>
<path d="M4273 6338 c-46 -22 -54 -106 -13 -143 12 -11 31 -15 61 -13 l44 3 0
40 c0 38 -2 40 -32 43 -19 2 -33 -1 -33 -7 0 -6 9 -11 20 -11 15 0 20 -7 20
-26 0 -23 -3 -25 -32 -22 -39 4 -58 41 -42 86 9 24 14 27 57 27 50 0 59 8 28
25 -24 12 -49 12 -78 -2z"/>
<path d="M6163 6340 c-28 -12 -43 -40 -43 -84 0 -52 29 -78 83 -74 42 3 42 3
45 46 3 41 2 42 -27 42 -17 0 -31 -4 -31 -10 0 -5 9 -10 20 -10 15 0 20 -7 20
-25 0 -21 -5 -25 -28 -25 -38 0 -52 17 -52 61 0 46 20 63 65 56 25 -4 35 -2
35 7 0 23 -49 31 -87 16z"/>
<path d="M4400 6259 c0 -60 3 -80 13 -77 7 3 14 28 17 59 l5 54 30 -57 c19
-37 36 -58 48 -58 15 0 17 10 17 80 0 64 -3 80 -15 80 -12 0 -15 -13 -15 -57
l-1 -58 -30 58 c-21 40 -35 57 -49 57 -18 0 -20 -7 -20 -81z"/>
<path d="M4568 6260 c2 -44 8 -80 13 -80 5 0 9 36 9 80 0 57 -4 80 -12 80 -10
0 -12 -21 -10 -80z"/>
<path d="M4610 6330 c0 -5 11 -10 25 -10 24 0 25 -2 25 -70 0 -56 3 -70 15
-70 12 0 15 14 15 70 0 63 2 70 20 70 11 0 20 5 20 10 0 6 -27 10 -60 10 -33
0 -60 -4 -60 -10z"/>
<path d="M4760 6260 c0 -64 3 -80 15 -80 12 0 15 16 15 80 0 64 -3 80 -15 80
-12 0 -15 -16 -15 -80z"/>
<path d="M4812 6328 c3 -7 15 -43 28 -80 33 -94 50 -92 84 9 14 42 24 78 22
81 -11 10 -27 -13 -42 -63 -10 -30 -21 -55 -24 -55 -4 0 -15 27 -25 60 -11 37
-24 60 -33 60 -8 0 -12 -6 -10 -12z"/>
<path d="M4970 6260 l0 -80 50 0 c28 0 50 5 50 10 0 6 -16 10 -35 10 -30 0
-35 3 -35 24 0 19 6 25 25 28 14 2 26 8 26 13 0 6 -12 11 -26 13 -17 2 -25 9
-25 23 0 15 7 19 35 19 19 0 35 5 35 10 0 6 -22 10 -50 10 l-50 0 0 -80z"/>
<path d="M5160 6261 c0 -65 3 -81 15 -81 10 0 15 10 15 30 0 25 4 30 23 30 37
0 63 35 51 68 -8 24 -15 27 -57 30 l-47 3 0 -80z m75 29 c0 -18 -6 -26 -22
-28 -20 -3 -23 1 -23 28 0 27 3 31 23 28 16 -2 22 -10 22 -28z"/>
<path d="M5300 6260 l0 -80 61 0 c52 0 62 3 66 20 4 15 14 20 38 20 25 0 35
-5 40 -20 3 -11 13 -20 22 -20 8 0 12 6 10 13 -3 6 -16 42 -28 80 -31 91 -49
90 -84 -6 l-26 -73 -35 4 -34 4 0 69 c0 55 -3 69 -15 69 -12 0 -15 -16 -15
-80z m184 3 c6 -20 4 -23 -17 -23 -24 0 -25 1 -14 35 11 36 17 34 31 -12z"/>
<path d="M5560 6260 c0 -63 3 -80 15 -80 10 0 15 15 17 58 l3 57 30 -57 c19
-37 36 -58 48 -58 15 0 17 11 17 81 0 60 -3 80 -12 77 -7 -3 -15 -28 -18 -57
l-5 -53 -27 56 c-20 40 -33 56 -48 56 -18 0 -20 -7 -20 -80z"/>
<path d="M5730 6261 c0 -47 4 -81 10 -81 6 0 10 28 10 63 l1 62 35 -62 c50
-88 64 -84 64 17 0 91 -17 109 -22 23 l-3 -58 -30 55 c-16 30 -38 56 -47 58
-16 3 -18 -6 -18 -77z"/>
<path d="M5890 6260 c0 -64 3 -80 15 -80 12 0 15 16 15 80 0 64 -3 80 -15 80
-12 0 -15 -16 -15 -80z"/>
<path d="M5960 6260 c0 -94 18 -108 22 -17 l3 62 33 -62 c23 -45 38 -63 52
-63 18 0 20 7 20 80 0 64 -3 80 -15 80 -12 0 -15 -13 -15 -57 l0 -58 -33 58
c-20 36 -38 57 -49 57 -16 0 -18 -10 -18 -80z"/>
<path d="M7696 6134 c-23 -23 -20 -40 14 -64 39 -28 39 -50 -1 -50 -17 0 -28
-4 -24 -10 9 -14 48 -13 63 2 20 20 14 42 -19 69 -34 27 -33 49 2 49 11 0 17
5 14 10 -9 15 -31 12 -49 -6z"/>
<path d="M8543 6124 c-21 -21 -24 -32 -20 -61 3 -19 11 -41 18 -49 15 -18 71
-15 77 4 3 11 0 12 -17 3 -17 -9 -24 -8 -41 9 -22 22 -26 51 -9 82 9 16 17 19
42 14 30 -5 31 -5 13 9 -27 20 -33 19 -63 -11z"/>
<path d="M2784 6030 c0 -63 1 -89 3 -57 2 31 2 83 0 115 -2 31 -3 5 -3 -58z"/>
<path d="M7500 6133 c0 -24 45 -133 54 -130 6 2 21 30 33 63 25 68 26 74 14
74 -5 0 -18 -26 -29 -57 l-19 -58 -18 58 c-10 31 -22 57 -27 57 -4 0 -8 -3 -8
-7z"/>
<path d="M7630 6076 c0 -36 5 -68 10 -71 6 -4 10 20 10 64 0 41 -4 71 -10 71
-6 0 -10 -28 -10 -64z"/>
<path d="M7792 6079 c3 -72 19 -89 65 -73 27 9 28 13 29 74 1 36 -1 47 -3 25
-6 -66 -12 -82 -32 -88 -30 -7 -41 12 -41 70 0 30 -4 53 -10 53 -7 0 -10 -23
-8 -61z"/>
<path d="M7955 6128 c-29 -78 -42 -128 -35 -128 5 0 12 9 15 20 4 14 15 20 35
20 20 0 31 -6 35 -20 3 -11 11 -20 16 -20 13 0 12 2 -17 75 -25 63 -40 78 -49
53z m29 -40 c9 -35 8 -38 -15 -38 -15 0 -19 4 -15 16 3 9 6 22 6 30 0 22 17
16 24 -8z"/>
<path d="M8050 6070 l0 -70 35 0 c19 0 35 5 35 10 0 6 -11 10 -25 10 -24 0
-25 3 -25 60 0 33 -4 60 -10 60 -6 0 -10 -30 -10 -70z"/>
<path d="M8190 6070 c0 -40 4 -70 10 -70 6 0 10 14 10 30 0 25 4 30 25 30 17
0 29 8 37 25 15 33 -4 55 -48 55 l-34 0 0 -70z m60 45 c10 -12 10 -18 0 -30
-21 -25 -40 -18 -40 15 0 33 19 40 40 15z"/>
<path d="M8310 6070 l0 -70 35 0 c19 0 35 5 35 10 0 6 -14 10 -31 10 -26 0
-30 3 -27 23 2 16 11 23 33 26 l30 4 -30 6 c-21 4 -30 12 -30 26 0 14 9 22 30
26 29 6 29 7 -7 8 l-38 1 0 -70z"/>
<path d="M8410 6076 c0 -36 5 -68 10 -71 6 -4 10 7 10 24 0 41 24 41 45 0 20
-38 32 -31 16 10 -10 23 -10 33 0 49 18 29 -3 52 -47 52 l-34 0 0 -64z m59 45
c19 -12 6 -41 -19 -41 -13 0 -20 7 -20 18 0 31 14 39 39 23z"/>
<path d="M8650 6070 l0 -70 35 0 c19 0 35 5 35 10 0 6 -11 10 -25 10 -20 0
-25 5 -25 24 0 19 6 26 28 29 l27 4 -27 2 c-23 1 -28 6 -28 25 0 20 6 25 33
29 28 3 26 4 -10 5 l-43 2 0 -70z"/>
<path d="M8750 6071 c0 -69 15 -99 22 -44 2 19 10 29 27 33 60 14 51 73 -13
78 l-36 3 0 -70z m65 29 c0 -18 -6 -26 -22 -28 -20 -3 -23 1 -23 28 0 27 3 31
23 28 16 -2 22 -10 22 -28z"/>
<path d="M8870 6131 c23 -6 25 -13 30 -71 6 -77 23 -66 19 12 -3 48 -1 53 21
59 16 5 4 7 -35 7 -40 0 -51 -2 -35 -7z"/>
<path d="M8980 6070 c0 -40 4 -70 10 -70 6 0 10 30 10 70 0 40 -4 70 -10 70
-6 0 -10 -30 -10 -70z"/>
<path d="M9047 6122 c-21 -23 -22 -86 -1 -106 41 -41 104 -5 104 60 0 56 -67
86 -103 46z m64 -2 c13 -7 19 -21 19 -44 0 -39 -19 -59 -52 -54 -19 2 -24 10
-26 43 -3 29 1 43 14 52 21 16 21 16 45 3z"/>
<path d="M9180 6070 c0 -50 3 -69 11 -64 7 4 9 25 7 56 -6 55 -3 55 32 -9 38
-71 50 -67 50 16 0 41 -4 71 -10 71 -5 0 -10 -24 -10 -52 l0 -53 -28 49 c-41
74 -52 71 -52 -14z"/>
<path d="M6633 6085 c0 -22 2 -30 4 -17 2 12 2 30 0 40 -3 9 -5 -1 -4 -23z"/>
<path d="M3820 6021 c-12 -50 -1 -123 21 -136 6 -4 7 3 2 22 -10 36 -10 112 0
141 5 13 4 22 -1 22 -6 0 -15 -22 -22 -49z"/>
<path d="M6317 6040 c9 -44 9 -85 0 -130 -8 -35 -8 -35 7 -10 20 34 21 130 1
156 -15 18 -15 17 -8 -16z"/>
<path d="M4155 6050 c3 -5 8 -10 11 -10 2 0 4 5 4 10 0 6 -5 10 -11 10 -5 0
-7 -4 -4 -10z"/>
<path d="M4482 6048 c-19 -19 -14 -35 19 -61 39 -31 35 -63 -7 -53 -17 5 -23
3 -19 -4 8 -14 48 -13 63 2 21 21 13 47 -18 63 -45 23 -39 52 9 46 7 -2 10 2
6 8 -8 15 -38 14 -53 -1z"/>
<path d="M5368 6043 c-24 -27 -30 -60 -17 -85 16 -31 28 -38 67 -38 30 0 32 2
32 34 0 22 -6 36 -16 40 -23 9 -34 7 -34 -4 0 -5 6 -10 14 -10 23 0 30 -20 13
-37 -34 -34 -80 24 -58 73 10 22 17 26 46 22 22 -2 34 0 32 6 -6 19 -62 18
-79 -1z"/>
<path d="M6040 6050 c0 -5 5 -10 10 -10 6 0 10 5 10 10 0 6 -4 10 -10 10 -5 0
-10 -4 -10 -10z"/>
<path d="M3897 6008 c-26 -71 -29 -88 -18 -88 6 0 11 7 11 15 0 22 56 20 69
-2 5 -10 12 -15 15 -12 8 8 -37 122 -50 126 -6 2 -18 -16 -27 -39z m42 -25 c1
-7 -8 -13 -19 -13 -23 0 -23 0 -9 37 10 26 12 27 19 8 5 -11 9 -26 9 -32z"/>
<path d="M5973 6031 c-8 -13 -9 -22 -3 -26 6 -3 10 -24 10 -46 0 -34 3 -39 23
-39 20 1 20 2 5 11 -11 6 -18 22 -18 39 0 17 7 33 18 39 15 9 15 10 0 11 -9 0
-18 7 -20 15 -2 13 -5 12 -15 -4z"/>
<path d="M4083 6026 c-6 -8 -8 -17 -3 -22 5 -5 10 -25 12 -44 2 -29 7 -35 28
-37 14 -1 18 0 8 3 -13 4 -18 16 -18 44 0 28 5 40 18 43 16 4 16 5 0 6 -10 0
-18 6 -18 11 0 14 -13 12 -27 -4z"/>
<path d="M4000 6001 c-13 -26 -13 -54 2 -69 15 -15 58 -16 58 -1 0 6 -9 8 -20
4 -24 -8 -35 14 -26 51 5 20 12 25 26 21 11 -3 20 -1 20 4 0 17 -49 9 -60 -10z"/>
<path d="M4158 6013 c-2 -5 -1 -28 3 -53 l6 -45 1 53 c2 48 -2 63 -10 45z"/>
<path d="M4212 6008 c-7 -7 -12 -24 -12 -38 0 -31 17 -50 45 -50 28 0 45 19
45 50 0 31 -17 50 -45 50 -12 0 -26 -5 -33 -12z m56 -15 c14 -25 -4 -65 -25
-61 -19 3 -29 38 -19 64 7 19 33 18 44 -3z"/>
<path d="M4322 5965 c1 -42 2 -44 5 -13 8 70 53 76 53 7 0 -21 5 -39 10 -39
12 0 13 70 2 88 -5 7 -23 11 -40 10 -32 -2 -32 -3 -30 -53z"/>
<path d="M4582 6008 c-7 -7 -12 -24 -12 -38 0 -14 5 -31 12 -38 14 -14 54 -16
63 -3 3 6 -7 9 -22 8 -19 -1 -28 3 -31 16 -3 14 4 17 32 17 29 0 34 3 29 18
-12 32 -48 43 -71 20z m48 -13 c11 -13 8 -15 -14 -15 -25 0 -33 10 -19 23 10
11 19 8 33 -8z"/>
<path d="M4682 6008 c-17 -17 -15 -63 3 -78 8 -7 24 -10 35 -7 16 4 20 0 20
-21 0 -47 8 -18 13 49 l6 66 -33 1 c-18 1 -38 -4 -44 -10z m52 -21 c8 -12 8
-22 0 -34 -16 -25 -38 -22 -42 5 -7 50 18 67 42 29z"/>
<path d="M4780 5981 c0 -45 14 -60 55 -59 30 1 30 1 25 52 -4 46 -5 47 -8 14
-6 -70 -52 -76 -52 -7 0 21 -4 39 -10 39 -5 0 -10 -17 -10 -39z"/>
<path d="M4902 6008 c-7 -7 -12 -24 -12 -38 0 -14 5 -31 12 -38 13 -13 68 -17
68 -4 0 4 -12 8 -27 7 -18 0 -29 6 -31 18 -3 13 3 17 27 17 19 0 31 5 31 13 0
18 -21 37 -40 37 -9 0 -21 -5 -28 -12z m52 -13 c4 -11 -1 -15 -19 -15 -24 0
-32 10 -18 23 11 12 31 8 37 -8z"/>
<path d="M5000 5965 c0 -32 3 -45 9 -36 5 7 7 21 4 30 -5 21 21 56 35 47 7 -4
12 -25 12 -47 0 -21 5 -39 10 -39 15 0 12 76 -4 89 -7 6 -25 10 -40 9 -24 -2
-26 -5 -26 -53z"/>
<path d="M5108 5995 c-16 -35 3 -75 36 -75 14 0 28 5 32 12 5 8 2 9 -9 5 -26
-10 -47 3 -47 28 0 29 22 47 45 38 13 -4 16 -3 11 5 -13 22 -56 14 -68 -13z"/>
<path d="M5198 5995 c-17 -38 3 -75 42 -75 16 0 30 5 30 11 0 6 -7 9 -15 5
-21 -8 -45 3 -45 20 0 9 12 14 35 14 38 0 40 2 25 31 -16 28 -58 25 -72 -6z
m60 -2 c2 -8 -6 -13 -22 -13 -25 0 -33 10 -19 24 10 10 36 3 41 -11z"/>
<path d="M5485 6005 c-3 -8 -7 -21 -9 -27 -2 -7 0 -23 5 -35 6 -17 16 -23 39
-23 16 0 30 4 30 10 0 5 -7 7 -15 4 -16 -6 -45 12 -45 27 0 5 16 9 35 9 36 0
46 15 23 38 -17 17 -58 15 -63 -3z m53 -12 c2 -8 -6 -13 -22 -13 -19 0 -24 4
-19 15 6 18 34 16 41 -2z"/>
<path d="M5589 6010 c0 -3 -2 -22 -4 -42 -2 -21 0 -40 6 -43 5 -4 9 9 9 28 0
36 21 64 40 52 5 -3 10 -24 10 -46 0 -21 5 -39 10 -39 11 0 13 43 4 78 -5 18
-13 22 -40 20 -19 -1 -34 -5 -35 -8z"/>
<path d="M5702 6008 c-7 -7 -12 -24 -12 -38 0 -14 5 -31 12 -38 13 -13 68 -17
68 -4 0 4 -12 8 -27 7 -18 0 -29 6 -31 18 -3 14 4 17 32 17 39 0 41 2 26 31
-12 21 -50 25 -68 7z m56 -15 c2 -8 -6 -13 -22 -13 -25 0 -33 10 -19 24 10 10
36 3 41 -11z"/>
<path d="M5800 5968 c0 -26 5 -48 10 -48 6 0 10 16 10 36 0 27 5 37 20 41 30
8 24 22 -10 21 -29 -1 -30 -3 -30 -50z"/>
<path d="M5875 6011 c-4 -7 2 -10 16 -8 31 3 35 -21 5 -29 -19 -4 -26 -13 -26
-30 0 -21 5 -24 36 -24 l35 0 -3 48 c-3 43 -5 47 -30 50 -14 2 -29 -2 -33 -7z
m43 -67 c-9 -9 -21 -13 -27 -9 -16 10 -3 25 22 25 20 0 20 -1 5 -16z"/>
<path d="M6040 5970 c0 -27 5 -50 10 -50 6 0 10 23 10 50 0 28 -4 50 -10 50
-5 0 -10 -22 -10 -50z"/>
<path d="M6096 6004 c-32 -31 -11 -84 33 -84 30 0 41 15 41 54 0 43 -44 61
-74 30z m52 -6 c16 -16 15 -30 -2 -53 -12 -16 -16 -17 -30 -6 -9 7 -16 21 -16
30 0 17 18 41 30 41 3 0 11 -5 18 -12z"/>
<path d="M6200 5968 c0 -27 5 -48 10 -48 6 0 10 18 10 39 0 24 5 41 14 44 20
8 26 -2 26 -45 0 -21 5 -38 10 -38 12 0 13 69 2 87 -4 7 -22 12 -40 10 -31 -2
-32 -3 -32 -49z"/>
<path d="M1151 5943 c0 -5 12 -42 27 -83 17 -47 32 -75 42 -75 9 0 25 28 42
75 32 87 33 90 14 90 -8 0 -21 -26 -32 -65 -10 -36 -21 -65 -24 -65 -3 0 -14
29 -24 65 -11 39 -24 65 -32 65 -8 0 -14 -3 -13 -7z"/>
<path d="M1324 5929 c-29 -32 -26 -105 5 -130 32 -26 67 -24 96 6 32 31 34 96
5 125 -27 27 -81 26 -106 -1z m84 -11 c7 -7 12 -31 12 -55 0 -33 -5 -45 -21
-53 -32 -18 -69 11 -69 55 0 53 46 85 78 53z"/>
<path d="M1482 5868 c2 -54 7 -83 16 -86 9 -3 12 18 12 82 0 71 -3 86 -15 86
-13 0 -15 -14 -13 -82z"/>
<path d="M1561 5924 c-54 -68 6 -168 83 -138 9 3 16 13 16 20 0 11 -4 12 -19
4 -27 -14 -37 -13 -55 6 -20 19 -21 74 -3 99 11 14 21 17 46 12 24 -5 31 -3
29 6 -3 6 -21 13 -40 15 -29 2 -40 -2 -57 -24z"/>
<path d="M1690 5945 c-1 -3 -1 -40 -2 -82 l0 -78 46 -3 c28 -2 46 1 46 7 0 6
-9 11 -19 11 -35 0 -51 12 -51 36 0 20 5 24 30 24 17 0 30 5 30 10 0 6 -13 10
-30 10 -25 0 -30 4 -30 25 0 22 4 25 35 25 19 0 35 5 35 10 0 10 -90 15 -90 5z"/>
<path d="M1872 5868 c2 -54 7 -83 16 -86 9 -3 12 18 12 82 0 71 -3 86 -15 86
-13 0 -15 -14 -13 -82z"/>
<path d="M1940 5866 c0 -51 4 -86 10 -86 6 0 10 29 10 68 l0 67 30 -54 c59
-107 70 -107 70 4 0 50 -4 85 -10 85 -6 0 -10 -28 -10 -62 l0 -63 -34 60 c-18
33 -40 61 -49 63 -15 3 -17 -8 -17 -82z"/>
<path d="M2105 5875 c-3 -41 -4 -79 0 -85 12 -19 25 -10 25 19 0 23 5 30 27
36 40 10 53 24 53 56 0 32 -23 49 -68 49 -30 0 -30 0 -37 -75z m73 26 c4 -23
-11 -41 -35 -41 -8 0 -13 14 -13 36 0 31 3 35 23 32 14 -2 23 -11 25 -27z"/>
<path d="M2242 5879 c3 -55 8 -74 23 -85 25 -18 55 -18 83 2 19 13 22 24 22
85 0 38 -4 69 -9 69 -10 0 -23 -58 -15 -71 11 -18 -7 -68 -27 -74 -35 -11 -49
12 -49 81 0 52 -3 64 -16 64 -14 0 -16 -11 -12 -71z"/>
<path d="M2390 5940 c0 -5 11 -10 25 -10 24 0 25 -2 25 -76 0 -56 3 -75 13
-71 8 2 12 27 13 73 1 67 2 69 28 72 14 2 24 8 21 13 -8 12 -125 12 -125 -1z"/>
<path d="M7840 5856 c-14 -49 -6 -114 16 -143 13 -16 14 -15 7 12 -10 39 -10
112 0 148 4 15 3 27 -2 27 -4 0 -14 -20 -21 -44z"/>
<path d="M8947 5880 c4 -14 8 -50 8 -80 0 -30 -4 -66 -8 -80 -8 -24 -7 -24 7
-6 20 25 30 77 22 119 -3 19 -13 42 -22 53 -14 18 -15 18 -7 -6z"/>
<path d="M7900 5866 c-15 -19 -2 -43 31 -60 36 -17 31 -41 -9 -41 -40 0 -36
-19 5 -23 60 -6 69 49 12 81 -36 20 -33 43 5 40 14 -1 26 2 26 8 0 15 -56 10
-70 -5z"/>
<path d="M8540 5810 l0 -70 33 0 c43 0 67 26 67 73 0 45 -22 67 -66 67 l-34 0
0 -70z m64 47 c13 -9 17 -23 14 -52 -3 -35 -6 -40 -30 -43 -28 -3 -28 -2 -28
52 0 59 9 68 44 43z"/>
<path d="M8773 5865 c-10 -19 -10 -42 3 -102 4 -22 34 -33 34 -13 0 6 -4 10
-10 10 -5 0 -10 16 -10 35 0 27 4 35 18 35 15 1 15 2 1 13 -9 7 -18 19 -21 27
-4 12 -7 11 -15 -5z"/>
<path d="M8111 5796 c-1 -64 15 -68 21 -6 2 24 9 36 21 38 14 3 17 -4 17 -42
0 -25 5 -46 10 -46 6 0 10 20 10 44 0 51 -18 73 -49 57 -14 -8 -21 -8 -24 2
-3 6 -6 -15 -6 -47z"/>
<path d="M8226 5837 c-21 -15 -13 -44 15 -52 27 -9 18 -31 -10 -28 -13 2 -20
-1 -16 -7 10 -17 52 -11 60 7 4 12 -2 24 -19 38 -31 25 -33 35 -5 35 11 0 17
5 14 10 -8 13 -18 13 -39 -3z"/>
<path d="M8310 5830 c-23 -23 -24 -29 -10 -64 19 -50 90 -27 90 28 0 18 -34
56 -50 56 -5 0 -19 -9 -30 -20z m58 -31 c2 -15 -4 -31 -13 -39 -24 -20 -50 9
-41 45 9 36 50 32 54 -6z"/>
<path d="M8433 5842 c-20 -3 -23 -9 -23 -53 0 -27 5 -49 10 -49 6 0 10 18 10
40 0 33 4 42 22 49 26 9 12 19 -19 13z"/>
<path d="M8683 5843 c-23 -9 -14 -20 12 -15 18 3 25 0 25 -12 0 -9 -8 -16 -19
-16 -24 0 -45 -25 -37 -45 3 -9 18 -15 41 -15 35 0 35 0 35 43 0 56 -19 76
-57 60z m37 -67 c0 -21 -20 -30 -33 -17 -9 9 -8 14 3 21 21 14 30 12 30 -4z"/>
<path d="M8847 5843 c-14 -13 -6 -20 18 -15 18 3 25 0 25 -12 0 -9 -8 -16 -19
-16 -24 0 -45 -25 -38 -45 4 -9 19 -14 42 -13 34 1 35 2 35 43 0 22 -5 46 -12
53 -13 13 -41 16 -51 5z m43 -67 c0 -17 -27 -29 -35 -16 -4 6 -3 15 0 20 9 15
35 12 35 -4z"/>
<path d="M8000 5815 c-10 -26 -4 -55 14 -67 17 -11 54 -9 62 3 4 8 -1 9 -15 4
-22 -7 -51 9 -51 26 0 5 16 9 35 9 19 0 35 4 35 9 0 27 -15 41 -41 41 -22 0
-32 -6 -39 -25z m58 -2 c2 -8 -6 -13 -22 -13 -19 0 -24 4 -19 15 6 18 34 16
41 -2z"/>
<path d="M6629 5792 c-3 -20 -2 -29 4 -23 5 5 7 19 5 32 -3 20 -5 19 -9 -9z"/>
<path d="M3561 5794 c0 -11 3 -14 6 -6 3 7 2 16 -1 19 -3 4 -6 -2 -5 -13z"/>
<path d="M7498 5543 c7 -3 16 -2 19 1 4 3 -2 6 -13 5 -11 0 -14 -3 -6 -6z"/>
<path d="M4999 4359 c-34 -12 -53 -58 -45 -103 8 -43 29 -60 72 -60 49 0 77
31 77 84 0 64 -48 99 -104 79z m72 -46 c15 -40 2 -82 -28 -89 -35 -9 -57 7
-61 44 -5 46 13 72 49 72 23 0 32 -6 40 -27z"/>
<path d="M5146 4357 c-27 -20 -17 -58 21 -82 41 -25 39 -50 -5 -50 -36 0 -44
-20 -11 -28 24 -6 64 6 74 23 13 20 -4 55 -35 72 -47 26 -40 54 13 49 21 -3
23 15 1 23 -24 9 -38 7 -58 -7z"/>
<path d="M5333 4363 c-7 -2 -13 -11 -13 -19 0 -12 4 -12 20 -4 50 27 53 -26 5
-83 -19 -22 -35 -44 -35 -49 0 -4 25 -8 55 -8 30 0 55 5 55 10 0 6 -16 10 -36
10 l-35 0 30 37 c57 69 27 136 -46 106z"/>
<path d="M4820 4281 c0 -65 3 -81 15 -81 10 0 15 11 15 35 0 24 5 35 14 35 8
0 20 -16 27 -35 7 -19 19 -35 26 -35 17 0 16 18 -2 50 -9 17 -10 29 -3 37 5 6
8 24 6 40 -3 26 -7 28 -50 31 l-48 3 0 -80z m75 49 c9 -15 -15 -42 -33 -38 -8
2 -17 13 -18 26 -3 18 1 22 20 22 14 0 28 -5 31 -10z"/>
<path d="M1320 4348 c0 -2 11 -39 24 -83 25 -87 50 -110 62 -58 22 99 23 99
44 15 17 -68 39 -53 66 46 17 61 19 82 10 82 -8 0 -21 -29 -31 -67 l-19 -68
-15 65 c-22 91 -43 92 -61 3 l-14 -68 -20 68 c-11 39 -25 67 -33 67 -7 0 -13
-1 -13 -2z"/>
<path d="M1563 4268 c2 -53 7 -83 15 -86 8 -2 12 10 12 37 0 40 1 41 34 41 33
0 35 -2 38 -37 2 -20 9 -38 16 -41 9 -3 12 18 12 82 0 70 -3 86 -15 86 -10 0
-15 -11 -15 -35 0 -33 -2 -35 -35 -35 -33 0 -35 2 -35 35 0 24 -5 35 -14 35
-12 0 -14 -16 -13 -82z"/>
<path d="M1730 4264 c0 -64 3 -85 13 -81 8 2 12 29 12 85 0 59 -4 82 -12 82
-10 0 -13 -24 -13 -86z"/>
<path d="M1802 4338 c-24 -24 -14 -58 23 -79 54 -32 39 -68 -23 -52 -24 6 -26
5 -13 -10 30 -37 108 -5 99 39 -2 10 -19 29 -38 42 -43 29 -45 47 -5 47 17 1
30 5 30 10 0 15 -58 18 -73 3z"/>
<path d="M1920 4266 c0 -51 4 -86 10 -86 6 0 10 13 10 29 0 23 6 30 32 37 74
22 66 96 -11 102 l-41 3 0 -85z m69 50 c17 -20 3 -46 -25 -46 -18 0 -24 5 -24
23 0 38 26 50 49 23z"/>
<path d="M2060 4265 l0 -85 45 0 c33 0 45 4 45 15 0 8 -3 14 -7 14 -5 -1 -20
-1 -35 0 -23 1 -28 6 -28 26 0 21 5 25 30 25 38 0 40 18 3 22 -20 2 -29 9 -31
26 -3 19 1 22 32 22 20 0 36 5 36 10 0 6 -20 10 -45 10 l-45 0 0 -85z"/>
<path d="M2190 4265 c0 -50 4 -85 10 -85 6 0 10 16 10 35 0 27 4 35 18 35 11
0 25 -14 35 -35 9 -19 21 -35 27 -35 14 0 12 16 -5 50 -14 27 -14 32 0 53 13
21 13 25 -1 45 -11 16 -25 22 -55 22 l-39 0 0 -85z m67 54 c17 -17 4 -39 -23
-39 -19 0 -24 5 -24 25 0 27 26 35 47 14z"/>
<path d="M7600 4245 c0 -50 4 -85 10 -85 6 0 10 16 10 35 0 28 4 35 19 35 13
0 24 -11 32 -35 7 -19 19 -35 26 -35 17 0 16 14 -3 52 -11 22 -13 33 -5 41 18
18 13 55 -8 67 -11 5 -33 10 -50 10 l-31 0 0 -85z m68 39 c3 -22 -21 -39 -39
-28 -11 6 -12 38 -2 48 13 13 38 1 41 -20z"/>
<path d="M7751 4304 c-23 -30 -27 -74 -10 -107 16 -30 28 -37 66 -37 64 0 100
103 53 150 -30 30 -83 27 -109 -6z m87 -6 c7 -7 12 -31 12 -55 0 -36 -4 -45
-24 -54 -17 -8 -29 -8 -45 0 -28 15 -31 94 -3 110 23 14 45 14 60 -1z"/>
<path d="M7912 4248 c3 -79 4 -83 27 -86 61 -9 103 28 79 71 -6 12 -11 32 -9
45 4 34 -17 52 -61 52 l-39 0 3 -82z m67 53 c19 -12 6 -41 -19 -41 -15 0 -20
7 -20 25 0 26 14 31 39 16z m12 -77 c11 -14 10 -18 -6 -30 -30 -22 -45 -17
-45 16 0 23 5 30 19 30 10 0 25 -7 32 -16z"/>
<path d="M8082 4323 c-23 -9 -44 -64 -37 -99 11 -60 84 -85 125 -44 30 30 28
113 -2 134 -22 16 -60 20 -86 9z m72 -35 c9 -12 16 -32 16 -43 0 -28 -27 -65
-47 -65 -46 0 -70 74 -36 112 22 24 49 23 67 -4z"/>
<path d="M8205 4320 c-3 -6 5 -10 19 -10 24 0 25 -3 28 -72 2 -46 7 -73 16
-76 9 -3 12 16 12 72 0 74 1 76 25 76 14 0 25 5 25 10 0 6 -26 10 -59 10 -33
0 -63 -4 -66 -10z"/>
<path d="M8445 4318 c-3 -7 -13 -38 -24 -68 -10 -30 -22 -63 -26 -72 -5 -13
-2 -18 8 -18 8 0 17 9 20 20 4 15 14 20 40 20 27 0 37 -5 42 -20 3 -11 13 -20
21 -20 18 0 19 -5 -17 89 -29 76 -52 101 -64 69z m34 -58 c9 -28 8 -30 -14
-30 -17 0 -23 5 -20 15 3 8 7 22 10 30 7 22 12 19 24 -15z"/>
<path d="M8571 4304 c-23 -30 -27 -70 -9 -109 13 -28 45 -40 83 -31 36 9 32
29 -4 21 -51 -11 -80 51 -50 107 9 16 17 19 46 13 27 -5 34 -3 31 7 -3 7 -21
14 -40 16 -29 2 -40 -2 -57 -24z"/>
<path d="M8680 4320 c0 -5 11 -10 25 -10 24 0 25 -2 25 -75 0 -96 18 -98 22
-2 3 66 5 72 26 75 46 7 20 22 -38 22 -33 0 -60 -4 -60 -10z"/>
<path d="M8830 4245 c0 -95 16 -116 22 -27 4 71 -1 112 -13 112 -5 0 -9 -38
-9 -85z"/>
<path d="M8918 4319 c-28 -16 -40 -76 -23 -115 25 -61 106 -59 131 3 26 62 -4
123 -60 123 -17 0 -39 -5 -48 -11z m82 -28 c23 -44 -1 -111 -40 -111 -22 0
-50 36 -50 65 0 54 67 88 90 46z"/>
<path d="M9070 4245 c0 -98 18 -116 22 -22 l3 62 24 -45 c29 -55 51 -81 62
-74 12 7 11 164 -1 164 -5 0 -10 -28 -12 -62 l-3 -63 -33 63 c-46 89 -62 83
-62 -23z"/>
<path d="M4550 4060 c-14 -14 -20 -33 -20 -65 0 -68 45 -102 104 -79 29 11 17
26 -14 19 -43 -9 -60 8 -60 60 0 53 17 69 62 60 29 -7 31 -6 19 9 -19 22 -67
20 -91 -4z"/>
<path d="M4690 4060 c-14 -14 -20 -33 -20 -65 0 -54 25 -85 70 -85 52 0 76 37
70 110 -4 57 -78 82 -120 40z m84 -16 c32 -32 8 -114 -34 -114 -22 0 -50 36
-50 65 0 29 28 65 50 65 10 0 26 -7 34 -16z"/>
<path d="M4850 3995 c0 -101 18 -115 22 -17 l3 67 23 -68 c14 -39 29 -66 35
-64 7 2 21 29 32 60 20 54 44 95 31 50 -9 -28 3 -113 15 -113 5 0 9 38 9 85 0
78 -2 85 -19 85 -15 0 -25 -15 -42 -60 -12 -33 -23 -60 -25 -60 -2 0 -13 27
-25 60 -16 44 -27 60 -40 60 -17 0 -19 -9 -19 -85z"/>
<path d="M5060 3996 c0 -51 4 -86 10 -86 6 0 10 27 10 62 0 69 6 69 35 -4 11
-29 26 -53 32 -55 6 -2 22 27 36 64 l26 68 0 -67 c1 -38 5 -68 10 -68 20 0 27
59 15 133 -11 66 -37 44 -79 -68 -6 -16 -11 -9 -30 40 -17 44 -28 61 -44 63
-20 3 -21 -1 -21 -82z"/>
<path d="M5309 4053 c-47 -120 -57 -179 -22 -125 21 30 78 31 86 2 6 -22 27
-28 27 -7 0 6 -12 45 -26 85 -29 77 -47 90 -65 45z m40 -65 c1 -12 -6 -18 -19
-18 -23 0 -24 8 -9 47 10 26 12 27 19 8 5 -11 9 -28 9 -37z"/>
<path d="M5430 3995 c0 -47 4 -85 9 -85 10 0 24 97 16 110 -3 6 -3 10 2 10 4
0 22 -26 38 -58 17 -31 38 -58 48 -60 15 -3 17 6 17 82 0 70 -3 86 -15 86 -12
0 -15 -13 -15 -57 l-1 -58 -32 57 c-20 36 -39 58 -49 58 -16 0 -18 -11 -18
-85z"/>
<path d="M5600 3995 l0 -85 40 0 c54 0 90 34 90 85 0 51 -36 85 -90 85 l-40 0
0 -85z m82 48 c38 -35 9 -120 -39 -111 -14 2 -19 14 -21 52 -2 27 -1 55 2 62
7 19 35 18 58 -3z"/>
<path d="M1099 4048 c-7 -12 -13 -48 -13 -78 0 -30 6 -66 13 -78 18 -34 21
-24 8 31 -8 37 -8 60 1 94 14 52 10 66 -9 31z"/>
<path d="M2516 4053 c11 -23 11 -141 0 -173 -8 -24 -7 -24 10 -8 33 32 27 198
-8 198 -6 0 -7 -7 -2 -17z"/>
<path d="M2782 4050 c0 -14 2 -19 5 -12 2 6 2 18 0 25 -3 6 -5 1 -5 -13z"/>
<path d="M1690 3980 c0 -47 4 -80 10 -80 6 0 10 20 10 44 0 76 49 68 51 -8 1
-41 1 -41 11 -11 6 20 6 39 -1 59 -9 23 -16 27 -36 24 -22 -5 -25 -2 -25 23 0
16 -4 29 -10 29 -6 0 -10 -33 -10 -80z"/>
<path d="M7509 4034 c-16 -39 -16 -123 0 -152 18 -34 21 -24 8 25 -8 31 -8 57
0 95 12 61 9 74 -8 32z"/>
<path d="M1157 4043 c-18 -17 -6 -53 23 -68 19 -10 30 -23 30 -36 0 -18 -5
-21 -30 -17 -16 3 -30 1 -30 -4 0 -16 31 -21 56 -10 36 17 32 57 -7 77 -39 21
-36 51 5 47 17 -2 25 1 21 7 -7 12 -58 15 -68 4z"/>
<path d="M2130 4040 c0 -5 11 -10 25 -10 24 0 25 -2 25 -66 0 -41 4 -63 10
-59 6 3 10 33 10 66 0 52 2 59 20 59 11 0 20 5 20 10 0 6 -25 10 -55 10 -30 0
-55 -4 -55 -10z"/>
<path d="M7680 3969 c0 -51 4 -78 10 -74 6 3 10 24 10 45 0 68 45 61 53 -8 3
-25 4 -21 3 13 -1 49 -2 50 -31 50 -26 1 -30 5 -30 28 1 15 -3 27 -7 27 -4 0
-8 -36 -8 -81z"/>
<path d="M8220 3975 c0 -43 4 -75 10 -75 6 0 10 32 10 75 0 43 -4 75 -10 75
-6 0 -10 -32 -10 -75z"/>
<path d="M8550 3973 l0 -78 28 0 c38 0 62 21 62 55 0 33 -22 54 -50 47 -17 -4
-20 0 -20 24 0 16 -4 29 -10 29 -6 0 -10 -32 -10 -77z m68 -27 c-2 -23 -8 -31
-23 -31 -23 0 -33 38 -15 60 19 23 41 6 38 -29z"/>
<path d="M9537 4023 c10 -35 10 -98 0 -143 -7 -34 -7 -34 6 -10 8 14 18 39 21
57 8 34 -8 108 -25 118 -6 4 -7 -3 -2 -22z"/>
<path d="M1890 4027 c0 -9 -5 -17 -12 -17 -9 0 -9 -3 0 -12 7 -7 12 -29 12
-50 0 -26 5 -41 15 -45 24 -8 30 4 11 22 -16 16 -13 63 4 75 4 3 -1 14 -11 24
-17 17 -19 18 -19 3z"/>
<path d="M2359 4023 c-2 -32 2 -88 7 -105 6 -19 44 -25 44 -8 0 6 -7 10 -15
10 -23 0 -21 77 3 83 16 4 16 5 0 6 -10 0 -18 8 -18 16 0 21 -20 19 -21 -2z"/>
<path d="M2440 4026 c0 -8 -6 -17 -12 -19 -10 -4 -10 -6 0 -6 8 -1 12 -17 12
-46 0 -32 5 -47 15 -52 9 -3 19 -2 23 2 4 4 1 10 -5 12 -8 3 -13 21 -13 43 0
21 6 41 13 43 10 4 10 6 0 6 -7 1 -13 8 -13 16 0 8 -4 15 -10 15 -5 0 -10 -6
-10 -14z"/>
<path d="M7560 3970 c0 -40 4 -70 10 -70 6 0 10 10 10 23 0 17 8 25 33 32 25
8 33 16 35 39 4 34 -10 46 -55 46 l-33 0 0 -70z m58 51 c21 -13 10 -46 -16
-49 -17 -3 -22 1 -22 21 0 35 13 45 38 28z"/>
<path d="M7970 4030 c0 -5 4 -10 9 -10 6 0 13 5 16 10 3 6 -1 10 -9 10 -9 0
-16 -4 -16 -10z"/>
<path d="M8320 3971 c0 -41 4 -71 10 -71 6 0 10 14 10 30 0 41 25 39 46 -2 10
-18 19 -28 21 -21 2 7 -1 21 -7 32 -8 15 -7 26 2 41 19 29 -1 54 -46 58 l-36
3 0 -70z m67 33 c6 -16 -12 -34 -34 -34 -7 0 -13 11 -13 25 0 18 5 25 20 25
11 0 23 -7 27 -16z"/>
<path d="M8918 4030 c-42 -25 -29 -124 17 -136 56 -14 101 55 73 113 -14 31
-59 42 -90 23z m78 -45 c9 -36 -4 -64 -33 -71 -31 -8 -53 16 -53 57 0 59 72
70 86 14z"/>
<path d="M8780 4016 c0 -8 -6 -17 -12 -19 -10 -4 -10 -6 0 -6 7 -1 12 -16 12
-40 0 -44 23 -72 42 -53 9 9 8 12 -5 12 -25 0 -24 77 1 83 16 4 16 5 0 6 -10
0 -18 8 -18 16 0 8 -4 15 -10 15 -5 0 -10 -6 -10 -14z"/>
<path d="M9158 4011 c-10 -12 -13 -23 -8 -26 6 -4 10 -24 10 -46 0 -42 21 -62
43 -40 8 8 7 11 -6 11 -13 0 -17 9 -17 35 0 24 5 35 15 35 8 0 15 5 15 10 0 6
-6 10 -14 10 -8 0 -16 7 -18 15 -2 13 -6 12 -20 -4z"/>
<path d="M9458 4013 c-2 -10 -2 -40 0 -66 4 -50 23 -70 45 -48 8 8 7 11 -6 11
-13 0 -17 9 -17 34 0 19 5 36 12 38 8 3 5 12 -9 27 -19 20 -21 20 -25 4z"/>
<path d="M1260 3933 c0 -47 4 -72 10 -68 6 3 10 14 10 25 0 13 5 17 19 13 29
-7 57 40 45 75 -8 22 -16 27 -47 29 l-37 1 0 -75z m60 53 c6 -8 10 -25 8 -38
-4 -32 -42 -32 -46 0 -7 46 14 66 38 38z"/>
<path d="M1382 3998 c-7 -7 -12 -27 -12 -45 0 -38 28 -58 63 -47 21 7 20 8 -7
13 -41 8 -46 31 -7 31 36 0 46 12 31 40 -12 22 -49 27 -68 8z m56 -15 c2 -8
-6 -13 -22 -13 -25 0 -33 10 -19 24 10 10 36 3 41 -11z"/>
<path d="M1492 3998 c-7 -7 -12 -27 -12 -45 0 -40 35 -63 66 -44 17 9 16 10
-7 11 -15 0 -32 6 -38 14 -9 11 -4 15 29 20 44 7 45 8 30 37 -12 21 -50 25
-68 7z m42 -4 c25 -9 19 -24 -9 -24 -24 0 -32 10 -18 23 8 8 8 8 27 1z"/>
<path d="M1602 3998 c-7 -7 -12 -27 -12 -45 0 -26 6 -36 25 -45 21 -10 29 -9
43 6 16 16 16 17 -10 11 -33 -8 -50 17 -37 54 7 19 14 22 35 17 17 -5 23 -3
19 4 -8 14 -48 13 -63 -2z"/>
<path d="M1962 3998 c-17 -17 -15 -64 4 -83 39 -39 100 17 76 69 -13 28 -58
36 -80 14z m58 -18 c16 -30 3 -62 -23 -58 -38 5 -33 77 5 78 4 0 12 -9 18 -20z"/>
<path d="M2249 3986 c-24 -53 19 -103 68 -80 14 6 11 9 -16 13 -48 8 -53 31
-7 31 28 0 36 4 36 18 0 45 -63 59 -81 18z m59 -4 c2 -7 -7 -12 -23 -12 -24 0
-26 2 -15 15 14 17 31 16 38 -3z"/>
<path d="M7800 3949 c16 -39 18 -55 9 -71 -8 -15 -8 -19 1 -16 11 3 35 57 56
121 11 34 -12 16 -25 -20 l-14 -37 -14 37 c-9 20 -19 37 -24 37 -5 0 0 -23 11
-51z"/>
<path d="M7886 3984 c-7 -19 10 -44 30 -44 8 0 14 -7 14 -16 0 -12 -7 -15 -25
-12 -27 6 -34 -6 -9 -16 22 -8 56 12 52 32 -2 9 -13 21 -26 27 -25 11 -24 31
2 29 9 -1 16 2 16 7 0 16 -48 9 -54 -7z"/>
<path d="M7970 3950 c0 -27 5 -50 10 -50 6 0 10 23 10 50 0 28 -4 50 -10 50
-5 0 -10 -22 -10 -50z"/>
<path d="M8032 3988 c-7 -7 -12 -27 -12 -45 0 -35 26 -58 54 -47 23 9 20 23
-3 17 -27 -7 -46 29 -31 57 8 15 17 19 32 14 14 -4 18 -2 14 5 -9 15 -39 14
-54 -1z"/>
<path d="M8115 3991 c-3 -6 7 -9 21 -8 38 3 41 -19 4 -31 -19 -7 -30 -18 -30
-30 0 -24 17 -32 53 -25 22 4 27 11 27 35 0 42 -17 68 -45 68 -13 0 -26 -4
-30 -9z m53 -63 c-7 -19 -38 -22 -38 -4 0 10 9 16 21 16 12 0 19 -5 17 -12z"/>
<path d="M8440 3981 c-17 -32 -12 -60 14 -76 46 -30 93 24 66 74 -14 28 -65
29 -80 2z m60 -6 c7 -9 10 -25 6 -41 -5 -19 -12 -25 -29 -22 -25 3 -35 41 -17
64 16 18 24 18 40 -1z"/>
<path d="M8672 3988 c-26 -26 -4 -98 29 -98 29 0 49 22 49 53 0 38 -15 57 -45
57 -12 0 -26 -5 -33 -12z m58 -18 c14 -26 -4 -63 -28 -58 -21 4 -29 57 -10 69
20 13 26 11 38 -11z"/>
<path d="M9040 3964 c0 -52 15 -74 48 -71 32 4 32 4 30 65 l-1 47 -6 -45 c-5
-36 -10 -45 -26 -45 -16 0 -21 8 -23 43 -4 51 -22 57 -22 6z"/>
<path d="M9230 3923 c0 -42 4 -73 10 -73 6 0 10 10 10 23 0 18 5 23 22 23 30
-1 52 43 38 78 -8 22 -15 26 -45 24 l-35 -3 0 -72z m70 27 c0 -22 -25 -44 -40
-35 -14 9 -13 62 3 68 17 6 37 -12 37 -33z"/>
<path d="M9340 3957 c0 -50 13 -66 52 -64 27 2 28 4 26 57 -1 42 -2 46 -5 18
-7 -66 -53 -77 -53 -13 0 19 -4 37 -10 40 -6 4 -10 -11 -10 -38z"/>
<path d="M1813 3963 c9 -2 25 -2 35 0 9 3 1 5 -18 5 -19 0 -27 -2 -17 -5z"/>
<path d="M2070 3960 c0 -5 11 -10 25 -10 14 0 25 5 25 10 0 6 -11 10 -25 10
-14 0 -25 -4 -25 -10z"/>
<path d="M4530 3710 l0 -80 50 0 c28 0 50 5 50 10 0 6 -16 10 -35 10 -30 0
-35 3 -35 24 0 19 6 25 25 28 14 2 25 8 25 13 -1 6 -12 9 -25 7 -21 -3 -25 1
-25 22 0 22 4 26 30 26 17 0 30 5 30 10 0 6 -20 10 -45 10 l-45 0 0 -80z"/>
<path d="M4663 3750 l22 -40 -23 -40 c-17 -31 -19 -40 -8 -40 8 0 23 14 34 32
l20 31 16 -31 c9 -18 23 -32 32 -32 12 0 10 8 -10 41 l-24 42 24 38 c19 30 21
39 9 39 -8 0 -22 -15 -31 -32 l-17 -33 -15 33 c-9 18 -23 32 -33 32 -16 0 -15
-4 4 -40z"/>
<path d="M4790 3710 l0 -80 51 0 c31 0 48 4 44 10 -3 6 -19 10 -36 10 -24 0
-29 4 -29 25 0 20 5 25 24 25 14 0 28 5 31 10 4 6 -7 10 -24 10 -26 0 -31 4
-31 25 0 21 5 25 29 25 17 0 33 5 36 10 4 6 -13 10 -44 10 l-51 0 0 -80z"/>
<path d="M4944 3783 c-31 -22 -43 -87 -23 -124 14 -27 53 -41 84 -29 35 13 32
31 -5 24 -18 -4 -36 -1 -45 6 -18 15 -20 81 -3 98 16 16 51 15 67 0 10 -11 12
-9 9 7 -2 15 -12 21 -38 23 -19 1 -40 -1 -46 -5z"/>
<path d="M5050 3738 c0 -64 17 -100 52 -112 20 -7 33 -5 52 8 24 15 26 22 26
86 0 40 -4 70 -10 70 -5 0 -10 -26 -10 -57 0 -71 -9 -86 -46 -81 -28 3 -29 4
-32 71 -2 51 -6 67 -17 67 -11 0 -15 -13 -15 -52z"/>
<path d="M5200 3780 c0 -5 11 -10 25 -10 24 0 25 -2 25 -75 0 -43 4 -75 10
-75 6 0 10 32 10 75 0 73 1 75 25 75 14 0 25 5 25 10 0 6 -27 10 -60 10 -33 0
-60 -4 -60 -10z"/>
<path d="M5340 3710 c0 -64 3 -80 15 -80 12 0 15 16 15 80 0 64 -3 80 -15 80
-12 0 -15 -16 -15 -80z"/>
<path d="M5416 3768 c-18 -26 -21 -80 -5 -109 27 -52 110 -41 129 17 21 63
-11 114 -71 114 -28 0 -42 -6 -53 -22z m98 -30 c15 -43 -3 -82 -38 -86 -16 -2
-33 1 -38 6 -15 15 -14 78 2 97 21 25 63 15 74 -17z"/>
<path d="M5580 3711 c0 -47 4 -81 10 -81 6 0 10 28 10 63 l0 62 36 -62 c49
-88 64 -84 64 17 0 91 -17 109 -22 23 l-3 -58 -30 55 c-16 30 -38 56 -47 58
-16 3 -18 -6 -18 -77z"/>
<path d="M2782 3745 c0 -16 2 -22 5 -12 2 9 2 23 0 30 -3 6 -5 -1 -5 -18z"/>
</g>
</svg>
